<svg width="120" height="120" viewBox="0 0 120 120" fill="none" xmlns="http://www.w3.org/2000/svg">
    <g clip-path="url(#clip0_376_447)">
        <g filter="url(#filter0_d_376_447)">
            <path d="M93.5681 81.9965C79.189 93.6767 61.779 99.5974 46.5539 110.4C41.4387 94.3121 30.4731 86.6666 18.3696 75.8539C2.1779 61.3899 -13.5103 21.73 18.9737 15.6579C27.6334 14.0441 36.3133 18.5427 43.0397 24.2415C49.3432 29.5873 54.6498 36.1132 58.587 43.3755C62.4133 25.6233 79.1689 11.5325 97.2838 10.8265C100.486 10.7055 103.779 10.9677 106.709 12.289C109.418 13.5095 111.683 15.5671 113.536 17.8971C121.259 27.6003 121.672 41.7717 116.839 53.1997C112.005 64.6478 103.476 74.0686 93.5681 81.9965Z" fill="url(#paint0_linear_376_447)"/>
        </g>
    </g>
    <defs>
        <filter id="filter0_d_376_447" x="-4" y="10.8" width="128" height="107.6" filterUnits="userSpaceOnUse" color-interpolation-filters="sRGB">
            <feFlood flood-opacity="0" result="BackgroundImageFix"/>
            <feColorMatrix in="SourceAlpha" type="matrix" values="0 0 0 0 0 0 0 0 0 0 0 0 0 0 0 0 0 0 127 0" result="hardAlpha"/>
            <feOffset dy="4"/>
            <feGaussianBlur stdDeviation="2"/>
            <feComposite in2="hardAlpha" operator="out"/>
            <feColorMatrix type="matrix" values="0 0 0 0 0.713156 0 0 0 0 0.704614 0 0 0 0 0.862793 0 0 0 1 0"/>
            <feBlend mode="normal" in2="BackgroundImageFix" result="effect1_dropShadow_376_447"/>
            <feBlend mode="normal" in="SourceGraphic" in2="effect1_dropShadow_376_447" result="shape"/>
        </filter>
        <linearGradient id="paint0_linear_376_447" x1="38.4" y1="110.4" x2="98.4" y2="60" gradientUnits="userSpaceOnUse">
            <stop stop-color="#7474DD"/>
            <stop offset="1" stop-color="#FFCDEC"/>
        </linearGradient>
        <clipPath id="clip0_376_447">
            <rect width="120" height="120" fill="white"/>
        </clipPath>
    </defs>
</svg>
