<svg width="270" height="170" viewBox="0 0 270 170" fill="none" xmlns="http://www.w3.org/2000/svg">
    <g clip-path="url(#clip0_525_545)">
        <g filter="url(#filter0_d_525_545)">
            <path d="M0 8C18.103 35.7752 73.1975 66.62 91.2598 76.7739C109.236 86.8745 120.505 87.3339 126.697 83.675C132.888 80.0215 141.663 69.6646 144.243 74.13C146.823 78.5954 139.427 85.7795 139.427 85.7795C139.427 85.7795 157.576 77.1799 158.997 83.4721C159.965 87.7558 144.075 93.4231 144.075 93.4231C144.075 93.4231 161.581 87.9428 162.482 94.4379C163.124 99.0475 146.61 100.933 146.61 100.933C146.61 100.933 162.219 98.711 160.029 105.601C158.997 108.849 144.075 108.575 144.075 108.575C144.075 108.575 157.598 109.613 153.833 114.911C151.719 117.892 127.615 113.368 113.106 110.879C92.9796 107.428 18.9819 83.675 0 58V8Z" fill="url(#paint0_linear_525_545)"/>
        </g>
        <g filter="url(#filter1_d_525_545)">
            <path d="M269.5 52C251.397 79.7752 196.303 110.62 178.24 120.774C160.264 130.875 148.995 131.334 142.803 127.675C136.612 124.022 127.837 113.665 125.257 118.13C122.677 122.595 130.073 129.78 130.073 129.78C130.073 129.78 111.924 121.18 110.503 127.472C109.535 131.756 125.425 137.423 125.425 137.423C125.425 137.423 107.919 131.943 107.018 138.438C106.376 143.048 122.89 144.933 122.89 144.933C122.89 144.933 107.281 142.711 109.471 149.601C110.503 152.849 125.425 152.575 125.425 152.575C125.425 152.575 111.902 153.613 115.667 158.911C117.781 161.892 141.885 157.368 156.394 154.879C176.52 151.428 250.518 127.675 269.5 102V52Z" fill="url(#paint1_linear_525_545)"/>
        </g>
    </g>
    <defs>
        <filter id="filter0_d_525_545" x="-4" y="8" width="170.5" height="115.893" filterUnits="userSpaceOnUse" color-interpolation-filters="sRGB">
            <feFlood flood-opacity="0" result="BackgroundImageFix"/>
            <feColorMatrix in="SourceAlpha" type="matrix" values="0 0 0 0 0 0 0 0 0 0 0 0 0 0 0 0 0 0 127 0" result="hardAlpha"/>
            <feOffset dy="4"/>
            <feGaussianBlur stdDeviation="2"/>
            <feComposite in2="hardAlpha" operator="out"/>
            <feColorMatrix type="matrix" values="0 0 0 0 0.713156 0 0 0 0 0.704614 0 0 0 0 0.862793 0 0 0 1 0"/>
            <feBlend mode="normal" in2="BackgroundImageFix" result="effect1_dropShadow_525_545"/>
            <feBlend mode="normal" in="SourceGraphic" in2="effect1_dropShadow_525_545" result="shape"/>
        </filter>
        <filter id="filter1_d_525_545" x="103" y="52" width="170.5" height="115.893" filterUnits="userSpaceOnUse" color-interpolation-filters="sRGB">
            <feFlood flood-opacity="0" result="BackgroundImageFix"/>
            <feColorMatrix in="SourceAlpha" type="matrix" values="0 0 0 0 0 0 0 0 0 0 0 0 0 0 0 0 0 0 127 0" result="hardAlpha"/>
            <feOffset dy="4"/>
            <feGaussianBlur stdDeviation="2"/>
            <feComposite in2="hardAlpha" operator="out"/>
            <feColorMatrix type="matrix" values="0 0 0 0 0.713156 0 0 0 0 0.704614 0 0 0 0 0.862793 0 0 0 1 0"/>
            <feBlend mode="normal" in2="BackgroundImageFix" result="effect1_dropShadow_525_545"/>
            <feBlend mode="normal" in="SourceGraphic" in2="effect1_dropShadow_525_545" result="shape"/>
        </filter>
        <linearGradient id="paint0_linear_525_545" x1="81.25" y1="8" x2="81.25" y2="115.893" gradientUnits="userSpaceOnUse">
            <stop stop-color="#8981DF"/>
            <stop offset="1" stop-color="#FFCDEC"/>
        </linearGradient>
        <linearGradient id="paint1_linear_525_545" x1="188.25" y1="52" x2="188.25" y2="159.893" gradientUnits="userSpaceOnUse">
            <stop stop-color="#8981DF"/>
            <stop offset="1" stop-color="#FFCDEC"/>
        </linearGradient>
        <clipPath id="clip0_525_545">
            <rect width="270" height="170" fill="white"/>
        </clipPath>
    </defs>
</svg>
