<svg width="600" height="600" viewBox="0 0 600 600" fill="none" xmlns="http://www.w3.org/2000/svg">
<circle cx="300" cy="300" r="300" fill="#743799"/>
<path d="M327.307 475.372C315.295 475.372 305.041 474.493 296.545 472.735C288.049 470.978 280.139 468.121 272.814 464.166C265.637 460.211 257.946 455.084 249.743 448.785L242.053 469H171.081V361.993H241.613C246.154 374.298 253.112 383.014 262.487 388.141C272.009 393.121 283.654 395.611 297.424 395.611C305.92 395.611 313.171 393.927 319.177 390.558C325.183 387.042 328.186 382.428 328.186 376.715C328.186 369.537 325.109 364.19 318.957 360.675C312.805 357.013 304.162 353.644 293.029 350.567C278.82 346.759 265.93 342.73 254.357 338.482C242.932 334.234 232.678 329.84 223.596 325.299C205.432 316.217 190.783 303.326 179.65 286.627C168.518 269.928 162.951 247.735 162.951 220.05C162.951 198.81 167.565 180.06 176.794 163.8C185.876 147.687 198.913 135.162 215.905 126.227C233.044 117.145 253.186 112.604 276.33 112.604C304.602 112.604 326.94 121.612 343.347 139.63L354.553 118.976H417.614V223.785H350.158C343.859 210.602 336.901 201.446 329.284 196.319C321.667 191.192 311.193 188.629 297.863 188.629C287.756 188.629 279.919 190.46 274.353 194.122C268.786 197.638 266.003 202.545 266.003 208.844C266.003 215.875 270.031 221.222 278.088 224.884C285.998 228.692 297.277 232.208 311.926 235.431C337.561 241.29 359.68 248.688 378.283 257.623C396.447 266.559 410.949 279.229 421.789 295.636C432.775 311.896 438.269 332.916 438.269 358.697C438.269 380.523 433.728 400.299 424.646 418.023C415.417 435.748 402.307 449.737 385.314 459.991C368.469 470.245 349.133 475.372 327.307 475.372Z" fill="white"/>
</svg>
