<svg width="537" height="410" viewBox="0 0 537 410" fill="none" xmlns="http://www.w3.org/2000/svg">
    <path d="M179.554 71.7081C93.6597 263.142 -11.9036 247.952 1.09234 347.918C10.6772 421.566 80.2249 400.414 161.068 403.176C241.911 405.938 483.961 403.41 483.961 403.41C483.961 403.41 452.953 298.29 515.379 192.775C632.547 -5.34315 238.051 -58.6638 179.554 71.7081Z" fill="#DFB2E7" fill-opacity="0.3"/>
    <path d="M143.792 393.173C143.792 393.173 230.788 342.525 248.882 328.902C267.579 314.827 315.493 308.569 355.954 320.267C396.414 331.966 464.841 357.802 483.733 376.297C494.363 386.689 493.088 393.191 493.088 393.191L143.792 393.173Z" fill="#6B5697"/>
    <path d="M328.954 316.097L350.02 322.518C350.02 322.518 307.068 358.272 292.241 365.746C276.548 373.662 259.013 380.002 244.735 372.28C227.408 362.908 252.289 336.828 252.289 336.828L328.954 316.097Z" fill="#1D1E40" fill-opacity="0.86"/>
    <path d="M237.689 298.475C237.689 298.475 250.915 307.006 249.209 346.931C247.503 386.856 337.225 322.703 337.225 322.703C337.225 322.703 317.503 316.982 312.948 263.746C308.393 210.509 305.036 229.857 305.036 229.857C305.036 229.857 231.061 288.679 237.689 298.475Z" fill="#F3C3BA"/>
    <path opacity="0.64" d="M299.51 232.207C299.51 232.207 307.105 312.03 248.882 328.902C246.75 317.475 247.153 311.027 242.145 305.492C248.269 270.266 299.51 232.207 299.51 232.207Z" fill="#F3C3BA"/>
    <path d="M306.959 224.132C306.959 224.132 300.658 271.346 317.567 269.362C334.476 267.378 349.874 186.407 350.714 179.584C351.553 172.761 357.292 127.888 355.632 123.6C353.971 119.312 294.215 99.1959 195.899 110.75C146.306 115.042 148.838 127.468 148.838 127.468C148.838 127.468 165.411 188.947 172.702 198.282C179.993 207.617 306.959 224.132 306.959 224.132Z" fill="#A16D4B"/>
    <path d="M165.529 128.792C165.529 128.792 164.168 207.414 181.962 253.728C199.756 300.043 217.541 305.492 217.541 305.492C217.541 305.492 224.968 308.759 242.163 305.492C262.638 301.606 292.287 277.929 305.049 230.232C305.049 230.232 333.791 234.556 337.08 199.176C339.272 175.635 318.293 174.162 308.556 178.043C301.86 180.709 295.567 188.436 291.933 192.819C284.438 201.856 283.39 185.775 285.99 165.347C288.326 147.069 265.728 136.455 265.728 136.455" fill="#FDCBC1"/>
    <mask id="path-8-inside-1_15_171" fill="white">
        <path d="M323.156 193.592C306.37 187.65 299.51 208.335 299.51 208.335C299.51 208.335 308.792 198.652 316.083 205.913"/>
    </mask>
    <path d="M322.656 195.006C323.437 195.282 324.294 194.873 324.57 194.092C324.847 193.311 324.438 192.454 323.657 192.178L322.656 195.006ZM299.51 208.335L298.086 207.863C297.865 208.529 298.135 209.258 298.736 209.62C299.336 209.982 300.107 209.88 300.593 209.373L299.51 208.335ZM315.025 206.976C315.612 207.561 316.561 207.559 317.146 206.972C317.731 206.385 317.729 205.435 317.142 204.851L315.025 206.976ZM323.657 192.178C319.146 190.581 315.209 190.751 311.862 191.981C308.547 193.199 305.916 195.417 303.901 197.757C301.885 200.098 300.438 202.617 299.497 204.536C299.025 205.499 298.676 206.319 298.444 206.904C298.327 207.196 298.24 207.43 298.181 207.594C298.151 207.676 298.128 207.74 298.113 207.785C298.105 207.808 298.099 207.826 298.094 207.839C298.092 207.846 298.09 207.851 298.089 207.855C298.088 207.857 298.088 207.859 298.087 207.86C298.087 207.861 298.087 207.862 298.086 207.862C298.086 207.863 298.086 207.863 299.51 208.335C300.934 208.808 300.933 208.808 300.933 208.808C300.933 208.808 300.933 208.809 300.933 208.809C300.933 208.809 300.933 208.809 300.933 208.808C300.934 208.807 300.934 208.805 300.935 208.802C300.938 208.795 300.942 208.783 300.947 208.767C300.959 208.735 300.977 208.683 301.001 208.615C301.051 208.479 301.127 208.274 301.231 208.013C301.439 207.489 301.757 206.74 302.191 205.857C303.061 204.082 304.377 201.801 306.175 199.714C307.974 197.625 310.205 195.786 312.897 194.797C315.557 193.819 318.773 193.631 322.656 195.006L323.657 192.178ZM299.51 208.335C300.593 209.373 300.592 209.374 300.592 209.374C300.592 209.374 300.592 209.374 300.591 209.375C300.591 209.375 300.591 209.375 300.591 209.375C300.591 209.375 300.592 209.374 300.593 209.373C300.595 209.371 300.6 209.366 300.607 209.359C300.62 209.346 300.642 209.324 300.672 209.294C300.732 209.234 300.825 209.144 300.947 209.029C301.193 208.8 301.556 208.474 302.016 208.103C302.942 207.356 304.227 206.449 305.698 205.76C307.175 205.069 308.764 204.632 310.328 204.726C311.852 204.817 313.457 205.415 315.025 206.976L317.142 204.851C315.064 202.782 312.774 201.867 310.507 201.731C308.281 201.598 306.181 202.221 304.426 203.043C302.666 203.867 301.174 204.927 300.132 205.769C299.608 206.192 299.189 206.566 298.899 206.838C298.753 206.974 298.639 207.084 298.56 207.163C298.52 207.202 298.489 207.234 298.467 207.256C298.456 207.268 298.447 207.277 298.44 207.284C298.437 207.287 298.434 207.29 298.432 207.292C298.431 207.293 298.43 207.294 298.429 207.295C298.429 207.296 298.428 207.296 298.428 207.296C298.427 207.297 298.427 207.297 299.51 208.335Z" fill="#4C1C17" mask="url(#path-8-inside-1_15_171)"/>
    <path d="M212.428 172.142C212.582 168.18 221.955 164.312 230.122 164.755C238.288 165.197 242.013 168.04 244.404 170.285C246.369 172.142 244.858 175.834 240.185 173.57C235.031 171.062 230.693 169.504 223.398 171.157C215.812 172.879 212.287 175.694 212.428 172.142Z" fill="#E69766"/>
    <path d="M188.823 186.758L189.088 185.332L186.236 184.803L185.972 186.228L188.823 186.758ZM179.058 245.328L180.468 244.987L180.467 244.985L179.058 245.328ZM208.168 251.36C208.63 250.706 208.473 249.801 207.819 249.339C207.164 248.878 206.26 249.034 205.798 249.689L208.168 251.36ZM187.397 186.493C185.972 186.228 185.972 186.228 185.972 186.229C185.971 186.229 185.971 186.23 185.971 186.231C185.971 186.232 185.97 186.235 185.97 186.238C185.969 186.245 185.967 186.254 185.964 186.267C185.96 186.293 185.953 186.331 185.943 186.381C185.925 186.481 185.897 186.63 185.861 186.825C185.79 187.214 185.685 187.785 185.552 188.513C185.286 189.971 184.909 192.059 184.46 194.583C183.563 199.632 182.381 206.428 181.245 213.414C180.11 220.398 179.018 227.585 178.302 233.412C177.944 236.323 177.678 238.913 177.547 240.976C177.482 242.006 177.45 242.923 177.46 243.691C177.469 244.434 177.517 245.129 177.65 245.671L180.467 244.985C180.416 244.773 180.368 244.348 180.36 243.655C180.351 242.986 180.379 242.149 180.442 241.158C180.567 239.178 180.825 236.653 181.18 233.765C181.89 227.995 182.975 220.85 184.108 213.88C185.24 206.912 186.419 200.131 187.315 195.091C187.763 192.571 188.14 190.487 188.405 189.034C188.538 188.307 188.642 187.737 188.713 187.35C188.749 187.156 188.777 187.008 188.795 186.908C188.804 186.859 188.811 186.821 188.816 186.796C188.818 186.783 188.82 186.774 188.821 186.767C188.822 186.764 188.822 186.762 188.822 186.76C188.823 186.759 188.823 186.759 188.823 186.758C188.823 186.758 188.823 186.758 187.397 186.493ZM177.649 245.669C178.275 248.255 179.642 251.304 182.302 253.59C185 255.908 188.88 257.313 194.256 256.826L193.995 253.938C189.294 254.364 186.22 253.132 184.192 251.39C182.127 249.616 180.999 247.182 180.468 244.987L177.649 245.669ZM194.256 256.826C199.473 256.353 202.889 255.087 205.044 253.874C206.12 253.269 206.873 252.682 207.372 252.223C207.621 251.994 207.806 251.798 207.936 251.649C208.001 251.575 208.052 251.513 208.091 251.464C208.11 251.439 208.126 251.418 208.139 251.401C208.145 251.392 208.151 251.385 208.156 251.378C208.158 251.374 208.16 251.371 208.163 251.368C208.164 251.367 208.165 251.365 208.166 251.364C208.166 251.363 208.167 251.362 208.167 251.362C208.168 251.361 208.168 251.36 206.983 250.524C205.798 249.689 205.799 249.688 205.799 249.687C205.8 249.687 205.8 249.686 205.801 249.685C205.801 249.684 205.802 249.683 205.803 249.682C205.804 249.68 205.806 249.679 205.807 249.677C205.809 249.674 205.81 249.672 205.811 249.671C205.813 249.668 205.812 249.67 205.809 249.674C205.801 249.684 205.783 249.707 205.752 249.742C205.69 249.813 205.579 249.932 205.41 250.087C205.073 250.397 204.501 250.852 203.622 251.347C201.867 252.335 198.855 253.498 193.995 253.938L194.256 256.826Z" fill="#4C1C17"/>
    <path d="M211.379 268.553C211.379 268.553 225.11 273.479 231.379 260.467Z" fill="#EFB6AB"/>
    <path d="M211.379 268.553C211.379 268.553 225.11 273.479 231.379 260.467" stroke="#70271C" stroke-width="6" stroke-linecap="round" stroke-linejoin="round"/>
    <path d="M221.138 199.497C221.138 199.497 228.166 205.57 235.489 204.359C242.811 203.148 245.248 196.461 245.248 196.461" stroke="black" stroke-opacity="0.7" stroke-width="4" stroke-linecap="round" stroke-linejoin="round"/>
    <path d="M170.597 198.291C170.597 198.291 172.521 203.392 176.109 203.392C180.193 203.392 182.883 199.42 182.883 199.42" stroke="black" stroke-opacity="0.7" stroke-width="4" stroke-linecap="round" stroke-linejoin="round"/>
    <path d="M168.256 169.86C170.783 170.01 171.631 167.217 177.756 168.839C183.881 170.461 184.521 172.319 185.923 171.88C188.917 170.936 186.971 166.458 180.442 164.538C176.422 163.349 172.325 163.467 169.984 165.265C168.75 166.21 165.729 169.711 168.256 169.86Z" fill="#E69766"/>
    <path d="M212.428 172.142C212.582 168.18 221.955 164.312 230.122 164.755C238.288 165.197 242.013 168.04 244.404 170.285C246.369 172.142 244.858 175.834 240.185 173.57C235.031 171.062 230.693 169.504 223.398 171.157C215.812 172.879 212.287 175.694 212.428 172.142Z" fill="#A16D4B"/>
    <path d="M168.256 169.86C170.783 170.01 171.631 167.217 177.756 168.839C183.881 170.461 184.521 172.319 185.923 171.88C188.917 170.936 186.971 166.458 180.442 164.538C176.422 163.349 172.325 163.467 169.984 165.265C168.75 166.21 165.729 169.711 168.256 169.86Z" fill="#A16D4B"/>
    <path d="M252.425 140.59C309.43 140.59 355.641 132.728 355.641 123.031C355.641 113.333 309.43 105.472 252.425 105.472C195.421 105.472 149.21 113.333 149.21 123.031C149.21 132.728 195.421 140.59 252.425 140.59Z" fill="#A16D4B"/>
    <path opacity="0.62" d="M356.639 123.433C356.639 133.139 310.525 140.603 253.523 140.603C196.521 140.603 150.308 132.741 150.308 123.044C150.308 113.348 196.521 105.481 253.523 105.481C310.525 105.481 356.639 113.732 356.639 123.433Z" fill="#A16D4B"/>
    <path d="M298.838 248.654C298.838 248.654 285.622 296.518 237.68 306.21" stroke="#4C1C17" stroke-linecap="round" stroke-linejoin="round"/>
    <path d="M378.507 182.155L453.571 402.675" stroke="black" stroke-opacity="0.5" stroke-width="5.55" stroke-linecap="round" stroke-linejoin="round"/>
    <path d="M359.493 211.715H388.965" stroke="black" stroke-opacity="0.5" stroke-width="5.55" stroke-miterlimit="10"/>
    <path d="M367.496 235.708H395.888" stroke="black" stroke-opacity="0.5" stroke-width="5.55" stroke-miterlimit="10"/>
    <path d="M376.529 262.91H406.754" stroke="black" stroke-opacity="0.5" stroke-width="5.55" stroke-miterlimit="10"/>
    <path d="M385.322 289.908H415.547" stroke="black" stroke-opacity="0.5" stroke-width="5.55" stroke-miterlimit="10"/>
    <path d="M394.845 316.047H425.074" stroke="black" stroke-opacity="0.5" stroke-width="5.55" stroke-miterlimit="10"/>
    <path d="M403.655 342.927H433.885" stroke="black" stroke-opacity="0.5" stroke-width="5.55" stroke-miterlimit="10"/>
    <path d="M367.496 235.708L359.493 384.272" stroke="black" stroke-opacity="0.5" stroke-width="5.55" stroke-linecap="round" stroke-linejoin="round"/>
    <path d="M198.758 403.661V403.9C198.754 404.098 198.711 404.294 198.632 404.476C198.553 404.657 198.438 404.822 198.295 404.959C198.151 405.097 197.982 405.205 197.797 405.278C197.612 405.35 197.414 405.386 197.215 405.382L96.5266 409.955L31.7253 378.777V365.556L154.395 377.67L196.861 388.099C197.105 388.093 197.347 388.136 197.575 388.224C197.802 388.312 198.009 388.443 198.185 388.611C198.362 388.779 198.503 388.98 198.601 389.202C198.699 389.424 198.752 389.664 198.758 389.906V389.906C198.754 390.099 198.712 390.289 198.635 390.466C198.558 390.642 198.446 390.802 198.306 390.935C198.167 391.069 198.002 391.173 197.822 391.243C197.642 391.313 197.449 391.347 197.256 391.343H194.153V402.278H197.301C197.488 402.273 197.674 402.305 197.849 402.372C198.023 402.439 198.183 402.54 198.318 402.668C198.453 402.796 198.562 402.95 198.637 403.121C198.713 403.291 198.754 403.474 198.758 403.661V403.661Z" fill="#E69766"/>
    <path d="M194.153 402.273L97.3386 407.122V394.709L194.153 391.23V402.273Z" fill="white"/>
    <path d="M117.814 398.537L193.735 395.568" stroke="#5B5B5B" stroke-width="1.85" stroke-linecap="round" stroke-linejoin="round"/>
    <path d="M115.958 403.118L193.667 399.933" stroke="#5B5B5B" stroke-width="1.85" stroke-linecap="round" stroke-linejoin="round"/>
    <path d="M33.1953 377.675L97.3387 407.122V394.709L33.1953 368.19V377.675Z" fill="white"/>
    <path d="M36.6343 371.493L97.3387 397.398" stroke="#5B5B5B" stroke-width="1.85" stroke-linecap="round" stroke-linejoin="round"/>
    <path d="M55.3538 382.04L97.3387 401.017" stroke="#5B5B5B" stroke-width="1.85" stroke-linecap="round" stroke-linejoin="round"/>
    <path d="M61.8826 387.439L97.3388 404.379" stroke="#5B5B5B" stroke-width="1.85" stroke-linecap="round" stroke-linejoin="round"/>
    <path d="M191.921 383.693V384.055C191.921 385.284 191.072 386.282 190.015 386.282L76.074 392.518L35.3413 366.821V343.325L137.382 344.455L189.579 360.202C190.872 360.202 191.911 361.431 191.911 362.913C191.911 364.106 191.081 365.077 190.065 365.077H186.236V381.574H190.101C191.108 381.56 191.921 382.523 191.921 383.693Z" fill="#E55558"/>
    <path d="M186.249 381.606L77.5259 386.987V367.657L186.249 364.946V381.606Z" fill="white"/>
    <path d="M92.4387 375.962L185.737 371.493" stroke="#5B5B5B" stroke-width="1.85" stroke-linecap="round" stroke-linejoin="round"/>
    <path d="M90.1658 382.866L185.65 378.068" stroke="#5B5B5B" stroke-width="1.85" stroke-linecap="round" stroke-linejoin="round"/>
    <path d="M36.9382 344.464L74.8671 365.552" stroke="#93242A" stroke-width="1.39" stroke-linecap="round" stroke-linejoin="round"/>
    <path d="M36.6343 366.035L74.0777 389.319" stroke="#93242A" stroke-width="1.39" stroke-linecap="round" stroke-linejoin="round"/>
    <path d="M201.471 358.345V358.611C201.432 359.08 201.212 359.516 200.856 359.826C200.5 360.135 200.037 360.295 199.565 360.269L85.2795 362.859L44.9006 345.86L45.2046 331.442L130.25 336.114L199.139 340.953C200.432 340.953 201.471 341.857 201.471 342.986C201.437 343.442 201.224 343.866 200.879 344.166C200.533 344.467 200.082 344.619 199.624 344.59H195.809V356.79H199.674C200.119 356.759 200.559 356.905 200.896 357.197C201.232 357.488 201.439 357.901 201.471 358.345Z" fill="#1D1E40" fill-opacity="0.86"/>
    <path d="M195.8 356.799L85.2795 358.738V347.148L195.8 344.464V356.799Z" fill="white"/>
    <path d="M102.751 350.464L195.8 348.106" stroke="#5B5B5B" stroke-width="1.85" stroke-linecap="round" stroke-linejoin="round"/>
    <path d="M99.8567 354.535L195.346 352.118" stroke="#5B5B5B" stroke-width="1.85" stroke-linecap="round" stroke-linejoin="round"/>
    <path d="M46.5022 333.818V344.021L85.2795 358.738V347.148L46.5022 333.818Z" fill="white"/>
    <path d="M52.0508 343.334L85.2794 356.465" stroke="#5B5B5B" stroke-width="1.85" stroke-linecap="round" stroke-linejoin="round"/>
    <path d="M59.251 343.334L85.2795 353.325" stroke="#5B5B5B" stroke-width="1.85" stroke-linecap="round" stroke-linejoin="round"/>
    <path d="M55.322 337.844L85.2795 349.285" stroke="#5B5B5B" stroke-width="1.85" stroke-linecap="round" stroke-linejoin="round"/>
    <path d="M189.262 340.822L74.1957 341.757L33.7942 327.379V304.222H119.248L188.137 311.736C189.43 311.736 190.469 313.151 190.469 314.899C190.469 316.255 189.638 317.389 188.622 317.389H184.807V336.367H188.672C191.998 336.918 191.839 340.442 189.262 340.822Z" fill="#FCCA5F"/>
    <path d="M184.807 317.195H75.5886V336.367H184.807V317.195Z" fill="white"/>
    <path d="M131.166 322.097L184.344 322.861" stroke="#5B5B5B" stroke-width="1.85" stroke-linecap="round" stroke-linejoin="round"/>
    <path d="M88.8545 329.087H184.344" stroke="#5B5B5B" stroke-width="1.85" stroke-linecap="round" stroke-linejoin="round"/>
    <path d="M35.5 305.478L73.1884 316.49" stroke="#93242A" stroke-width="1.39" stroke-linecap="round" stroke-linejoin="round"/>
    <path d="M35.5 326.078L71.5279 338.766" stroke="#93242A" stroke-width="1.39" stroke-linecap="round" stroke-linejoin="round"/>
    <path d="M125.894 333.055H184.798" stroke="#5B5B5B" stroke-width="1.85" stroke-linecap="round" stroke-linejoin="round"/>
    <path d="M177.729 309.504V309.816C177.723 310.331 177.512 310.823 177.144 311.185C176.775 311.546 176.277 311.748 175.76 311.745H57.2002L15.3105 300.946V283.555H103.895L175.297 289.198C175.933 289.192 176.545 289.438 176.999 289.881C177.453 290.324 177.713 290.928 177.72 291.561C177.72 291.811 177.671 292.059 177.575 292.29C177.478 292.521 177.336 292.73 177.158 292.906C176.979 293.082 176.767 293.221 176.534 293.314C176.301 293.407 176.052 293.454 175.801 293.45H171.84V307.71H175.841C176.329 307.703 176.801 307.887 177.154 308.223C177.507 308.558 177.713 309.018 177.729 309.504V309.504Z" fill="#6B5697"/>
    <path d="M171.854 293.301H58.6431V307.701H171.854V293.301Z" fill="white"/>
    <path d="M108.745 297.553H172.117" stroke="#5B5B5B" stroke-width="1.85" stroke-linecap="round" stroke-linejoin="round"/>
    <path d="M72.408 302.234H171.386" stroke="#5B5B5B" stroke-width="1.85" stroke-linecap="round" stroke-linejoin="round"/>
    <path d="M17.0981 284.49L56.1704 292.772" stroke="#1D1E40" stroke-opacity="0.86" stroke-width="1.85" stroke-linecap="round" stroke-linejoin="round"/>
    <path d="M17.0981 299.97L54.4418 309.495" stroke="#1D1E40" stroke-opacity="0.86" stroke-width="1.85" stroke-linecap="round" stroke-linejoin="round"/>
    <path d="M87.6567 278.096V289.198H98.4547V283.645L107.297 289.198H131.166L109.448 277.979L87.6567 278.096Z" fill="#9D4E49"/>
    <path d="M87.6567 278.065V289.162H98.4547V283.613L107.297 289.162H131.166L109.448 277.947L87.6567 278.065Z" fill="#9D4E49"/>
    <path d="M123.127 279.795V289.198H132.527V283.464L143.593 289.198H167.031L147.159 279.795H123.127Z" fill="#9D4E49"/>
    <path d="M87.6567 287.056H98.1462" stroke="#4C1C17" stroke-width="1.85" stroke-linecap="round" stroke-linejoin="round"/>
    <path d="M104.135 287.056H123.127" stroke="#4C1C17" stroke-width="1.85" stroke-linecap="round" stroke-linejoin="round"/>
    <path d="M132.523 287.056H123.127" stroke="#4C1C17" stroke-width="1.85" stroke-linecap="round" stroke-linejoin="round"/>
    <path d="M162.031 287.056H139.918" stroke="#4C1C17" stroke-width="1.85" stroke-linecap="round" stroke-linejoin="round"/>
    <path d="M79.8487 158.935C79.8487 158.935 83.0971 252.684 81.2098 262.887C79.3224 273.09 76.8452 279.325 76.8452 279.325L116.725 279.895L104.162 219.419L94.7707 176.579C91.744 174.711 88.9951 172.43 86.6042 169.802C83.6482 166.652 81.3462 162.951 79.8305 158.912" fill="#55957C"/>
    <path d="M79.8487 158.835C79.8487 158.835 83.0971 252.58 81.2098 262.788C79.3224 272.995 76.8452 279.226 76.8452 279.226L116.734 279.795L104.162 219.32L94.7707 176.48C91.7454 174.619 88.9966 172.345 86.6042 169.725C83.6482 166.575 81.3462 162.874 79.8305 158.835" fill="#E59666"/>
    <path d="M84.4309 171.948C84.4309 171.948 107.116 275.742 116.729 279.895H153.302C153.302 279.895 133.875 253.267 125.576 217.296C123.127 206.668 116.729 177.533 116.729 177.533L81.7949 155.334L84.4309 171.948Z" fill="#FCC95F"/>
    <path d="M105.737 180.633C105.737 180.633 112.116 209.004 114.879 219.419C120.364 240.132 131.978 273.65 142.681 279.895" stroke="white" stroke-width="1.39" stroke-linecap="round" stroke-linejoin="round"/>
    <path d="M129.36 96.896C129.36 96.896 126.148 101.085 127.287 104.211C128.648 107.899 113.604 100.859 117.528 98.9519C120.06 97.6851 122.431 96.1195 124.587 94.2888L129.36 96.896Z" fill="#EFB6AB"/>
    <path opacity="0.64" d="M124.905 90.2629L127.532 100.127L132.037 91.4829L124.905 90.2629Z" fill="#EFB6AB"/>
    <path d="M148.652 121.129C149.201 119.516 152.975 117.726 155.788 122.909C158.601 128.092 157.186 129.935 155.625 129.542C154.064 129.149 152.957 128.372 152.245 126.46C151.794 125.192 150.991 124.077 149.931 123.243C149.931 123.243 148.125 122.733 148.652 121.129Z" fill="#EFB6AB"/>
    <path d="M127.078 105.029C127.078 105.029 142.654 100.66 147.336 96.9728C152.018 93.2857 162.308 74.8955 166.191 72.8215C170.075 70.7475 173.083 70.8831 177.897 73.7252C182.71 76.5674 184.661 84.7323 178.677 91.5913C172.693 98.4504 159.822 108.192 159.822 108.192L132.037 126.451C132.037 126.451 133.916 115.702 127.078 105.029Z" fill="#E55558"/>
    <path d="M107.946 103.638C107.946 103.638 101.744 108.902 100.034 123.555C98.3594 138.105 80.9285 149.948 79.1636 149.545C77.3987 149.143 78.8596 182.322 111.925 178.504C131.316 176.245 125.577 158.93 125.577 158.93C125.577 158.93 136.243 160.168 144.414 146.021C151.455 133.821 152.531 131.955 153.279 128.787C154.109 125.249 150.593 119.434 142.527 121.522C139.664 122.267 133.416 129.162 133.416 129.162C133.807 128.218 133.775 110.451 127.065 105.034C123.626 105.034 123.104 104.225 119.134 102.219C114.584 99.9143 107.946 103.638 107.946 103.638Z" fill="#E55558"/>
    <path d="M123.626 92.9965C123.626 92.9965 126.838 98.979 133.861 96.2815C139.55 93.0237 139.142 88.9751 140.04 86.6797C140.963 86.2501 141.849 85.7469 142.69 85.175C142.869 85.0522 143.003 84.8748 143.073 84.6696C143.142 84.4644 143.143 84.2422 143.076 84.0364C142.84 83.2999 141.95 82.098 140.784 80.8735C140.535 75.5642 138.57 73.3276 138.57 73.3276C138.57 73.3276 132.781 67.7518 127.682 74.6154C122.582 81.4789 123.626 92.9965 123.626 92.9965Z" fill="#EFB6AB"/>
    <path d="M138.789 83.1536C139.032 82.485 138.935 81.8372 138.572 81.7065C138.209 81.5758 137.718 82.0119 137.476 82.6804C137.233 83.3489 137.33 83.9968 137.693 84.1275C138.055 84.2581 138.546 83.8221 138.789 83.1536Z" fill="black" fill-opacity="0.5"/>
    <path d="M136.175 81.018C136.175 81.018 136.987 78.7904 138.802 78.7588" stroke="#91461C" stroke-width="1.85" stroke-linecap="round" stroke-linejoin="round"/>
    <path d="M136.973 87.615C136.973 87.615 137.491 89.1875 138.575 88.8667" stroke="#4C1C17" stroke-width="1.85" stroke-linecap="round" stroke-linejoin="round"/>
    <path d="M131.837 76.3324C131.837 76.3324 135.875 91.022 122.564 100.194C109.253 109.367 102.216 100.461 101.576 97.5918C100.936 94.7226 100.401 90.8548 104.008 88.2567C107.615 85.6585 111.485 79.292 111.485 74.9859C111.485 70.6798 124.932 67.6885 127.623 66.0709C130.313 64.4533 142.327 56.6092 145.616 64.4894C149.509 73.8156 140.875 75.9122 137.232 75.9122C133.589 75.9122 132.935 74.8774 131.837 76.3324Z" fill="#9D4E49"/>
    <path d="M134.033 63.0074C134.033 63.0074 138.398 61.3852 139.977 64.8148C141.705 68.547 139.387 73.2643 131.661 75.2751C131.661 75.2751 138.493 71.3982 135.612 67.1418C133.344 63.8071 126.484 67.0017 126.484 67.0017" stroke="#772220" stroke-width="1.39" stroke-linecap="round" stroke-linejoin="round"/>
    <path d="M103.799 100.551C103.799 100.551 122.741 105.874 131.316 75.9122C131.316 75.9122 123.009 98.9564 102.089 97.8359" stroke="#772220" stroke-width="1.39" stroke-linecap="round" stroke-linejoin="round"/>
    <path d="M112.165 121.129C112.165 121.129 114.556 127.522 112.165 138.538C109.774 149.554 118.032 158.98 125.576 158.944" stroke="#93242A" stroke-width="1.39" stroke-linecap="round" stroke-linejoin="round"/>
    <path d="M122.537 104.473C126.641 109.966 128.682 116.719 128.303 123.555C127.85 131.819 127.85 135.262 127.85 135.262L133.035 129.565" stroke="#93242A" stroke-width="1.39" stroke-linecap="round" stroke-linejoin="round"/>
    <path d="M123.648 145.696C123.838 141.858 125.322 138.197 127.859 135.303" stroke="#93242A" stroke-width="1.39" stroke-linecap="round" stroke-linejoin="round"/>
    <path d="M138.802 108.676C138.802 108.676 142.508 107.799 152.807 90.9226" stroke="#93242A" stroke-width="1.39" stroke-linecap="round" stroke-linejoin="round"/>
    <path d="M130.404 108.676C132.566 113.812 133.623 119.342 133.507 124.911" stroke="#93242A" stroke-width="1.39" stroke-linecap="round" stroke-linejoin="round"/>
    <path d="M334.476 118.797C334.476 118.797 355.8 85.8122 360.241 71.6829C364.683 57.5536 369.637 48.2907 369.637 48.2907C369.637 48.2907 375.712 50.5499 378.317 66.7306C380.921 82.9113 372.146 105.883 372.146 105.883L363.703 127.486C363.703 127.486 337.398 123.433 334.476 118.797Z" fill="white"/>
    <path d="M347.561 130.161C347.561 130.161 347.139 124.179 349.289 124.671C351.44 125.164 355.491 125.064 353.645 126.795C351.381 128.9 347.561 130.161 347.561 130.161Z" fill="#EFB6AB"/>
    <path d="M375.78 40.2342L369.646 48.2907C369.646 48.2907 373.698 99.9596 374.474 114.712C375.25 129.465 374.31 163.892 374.31 163.892C374.31 163.892 396.582 153.802 401.568 154.737C406.555 155.672 384.782 41.644 384.782 41.644L375.78 40.2342Z" fill="white"/>
    <path d="M369.646 56.0399C369.646 56.0399 374.814 79.7348 373.607 101.225" stroke="#1D1E40" stroke-opacity="0.86" stroke-width="1.39" stroke-linecap="round" stroke-linejoin="round"/>
    <path d="M379.061 249.815L360.709 261.902L368.167 262.404L388.806 256.109L386.941 248.654L379.061 249.815Z" fill="#1D1E40" fill-opacity="0.86"/>
    <path opacity="0.76" d="M379.247 249.815L360.895 261.902L368.354 262.404L388.988 256.109L387.127 248.654L379.247 249.815Z" fill="#1D1E40" fill-opacity="0.86"/>
    <path d="M364.084 262.404L382.232 251.107C382.232 251.107 397.453 252.043 399.019 251.107C400.584 250.172 396.65 261.654 396.65 261.654L392.626 261.626L391.678 257.451L387.445 262.422H364.084V262.404Z" fill="#1D1E40" fill-opacity="0.86"/>
    <path d="M375.781 248.848C375.781 248.848 394.318 167.836 387.223 115.345C383.521 87.9223 402.304 122.231 402.304 122.231L406.255 185.671L394.559 248.853C394.559 248.853 381.125 251.505 375.781 248.848Z" fill="#6B5697"/>
    <path d="M379.614 44.5132L401.133 67.6298C401.133 67.6298 397.172 116.122 393.42 116.524C389.668 116.926 381.624 119.918 382.445 110.863C383.267 101.808 375.926 64.2364 374.156 55.1859C372.387 46.1354 373.367 46.89 374.156 44.5223C374.129 44.5132 374.438 48.0964 379.614 44.5132Z" fill="#1D1E40" fill-opacity="0.86"/>
    <path d="M366.943 33.3255C366.943 33.3255 374.129 45.1097 375.472 46.1625C376.815 47.2153 381.883 42.9363 383.008 41.3232C384.133 39.7101 384.768 36.4071 384.768 36.4071C384.768 36.4071 376.461 31.378 375.88 25.888C375.3 20.3981 365.518 31.0165 366.943 33.3255Z" fill="#EFB6AB"/>
    <path d="M355.6 12.9245C355.6 12.9245 354.72 28.2151 361.471 32.9143C368.222 37.6135 373.321 30.28 373.321 30.28C373.321 30.28 376.375 26.3128 377.405 23.5972C378.825 19.8288 373.235 7.47522 371.47 6.01123C369.706 4.54724 355.986 8.62743 355.6 12.9245Z" fill="#EFB6AB"/>
    <path d="M356.172 20.0818C356.172 20.0818 352.51 25.1741 354.725 26.6833C356.353 27.7948 357.782 26.2314 357.782 26.2314" fill="#EFB6AB"/>
    <path d="M358.921 28.3371C358.921 28.3371 361.28 29.4034 361.48 26.5613Z" fill="#EFB6AB"/>
    <path d="M358.921 28.3371C358.921 28.3371 361.28 29.4034 361.48 26.5613" stroke="#3A130D" stroke-width="1.85" stroke-linecap="round" stroke-linejoin="round"/>
    <path d="M357.134 17.4972C357.134 17.4972 358.427 16.1417 359.72 17.8135" stroke="#1D1E40" stroke-opacity="0.86" stroke-width="1.85" stroke-linecap="round" stroke-linejoin="round"/>
    <path d="M358.697 20.6759C359.089 20.562 359.259 19.9628 359.076 19.3375C358.893 18.7122 358.426 18.2977 358.034 18.4116C357.642 18.5255 357.473 19.1247 357.656 19.7499C357.839 20.3752 358.305 20.7898 358.697 20.6759Z" fill="black" fill-opacity="0.5"/>
    <path d="M370.862 18.3151C370.862 18.3151 371.266 15.1883 373.793 15.8389C376.32 16.4896 376.543 20.7279 373.793 21.9841C371.938 26.0507 377.182 27.9665 378.743 27.334C380.218 26.7285 380.758 25.5266 380.163 23.5881C379.569 21.6497 377.945 16.2095 380.381 11.7181C382.817 7.2267 379.446 2.68111 379.446 2.68111C379.446 2.68111 372.065 3.66614 364.996 0.751717C357.928 -2.16271 350.773 4.06828 350.623 7.98129C350.478 11.831 352.157 14.0225 356.707 14.2304C360.432 14.4066 362.75 12.2016 363.712 11.447C364.37 10.9364 367.564 10.0914 368.204 13.5029C368.843 16.9143 368.775 19.5757 370.862 18.3151Z" fill="#1D1E40" fill-opacity="0.86"/>
    <path d="M374.066 19.3859C373.897 19.2523 373.7 19.1578 373.489 19.1094C373.279 19.061 373.061 19.0599 372.85 19.1062C372.639 19.1525 372.441 19.2451 372.271 19.3771C372.101 19.5091 371.962 19.6773 371.865 19.8694C371.865 19.8694 372.051 17.443 373.308 17.3933" fill="#EFB6AB"/>
    <path d="M374.066 19.3859C373.897 19.2523 373.7 19.1578 373.489 19.1094C373.279 19.061 373.061 19.0599 372.85 19.1062C372.639 19.1525 372.441 19.2451 372.271 19.3771C372.101 19.5091 371.962 19.6773 371.865 19.8694C371.865 19.8694 372.051 17.443 373.308 17.3933" stroke="#3A130D" stroke-width="1.39" stroke-linecap="round" stroke-linejoin="round"/>
    <path opacity="0.64" d="M373.784 24.4918C373.784 24.4918 374.07 32.9911 371.225 35.3362C370.527 35.9147 369.648 36.2341 368.739 36.2399C368.453 35.788 367.551 34.3105 367.551 34.3105C367.551 34.3105 372.196 32.3947 373.784 24.4918Z" fill="#EFB6AB"/>
    <path d="M396.156 171.248C396.156 171.248 389.985 216.252 385.975 232.442C381.964 248.631 380.562 251.419 380.562 251.419C380.562 251.419 392.445 253.9 401.124 251.419C406.269 249.946 425.074 166.404 425.074 166.404L396.156 171.248Z" fill="#6B5697"/>
    <path d="M397.204 157.299C397.204 157.299 397.59 184.378 380.544 251.397" stroke="white" stroke-width="1.39" stroke-linecap="round" stroke-linejoin="round"/>
    <path d="M383.788 35.7745L379.614 38.2145L376.384 48.7606C376.384 48.7606 384.909 77.7105 387.88 88.2567C390.852 98.8028 391.623 134.192 391.623 134.192V172.92C391.623 172.92 409.449 180.249 421.463 179.218C433.477 178.188 438.903 173.168 438.903 173.168C438.903 173.168 429.829 117.911 428.178 110.388C426.526 102.865 415.129 64.0692 409.454 55.1949C403.778 46.3206 397.041 39.9767 389.169 36.9267C387.433 36.3124 385.624 35.925 383.788 35.7745V35.7745Z" fill="white"/>
    <path d="M396.156 115.345L398.842 136.989C398.842 136.989 404.336 142.863 414.952 136.085C413.029 125.263 411.368 118.77 411.368 118.77C411.368 118.77 404.722 122.349 396.156 115.345Z" stroke="#1D1E40" stroke-opacity="0.86" stroke-width="1.39" stroke-linecap="round" stroke-linejoin="round"/>
    <path d="M350.01 183.85L425.074 404.379" stroke="black" stroke-opacity="0.5" stroke-width="5.55" stroke-linecap="round" stroke-linejoin="round"/>
    <path d="M342.792 53.8484L345.755 57.7434L345.179 62.4923L339.934 63.9969L336.903 60.6939L337.466 55.3802C337.466 55.3802 332.475 59.0673 335.007 64.6386C337.18 69.4372 342.878 68.9944 344.766 68.1494C346.653 67.3045 350.02 65.4067 349.657 60.7481C349.33 56.442 346.168 54.5036 342.792 53.8484Z" fill="#75778C"/>
    <path d="M344.993 80.268L340.882 66.9565C340.882 66.9565 344.144 67.7066 346.621 65.5513C347.91 69.7896 350.21 75.7902 350.21 75.7902C350.21 75.7902 354.021 82.4414 344.993 80.268Z" fill="#75778E"/>
    <path d="M355.223 90.1228L357.796 98.2516L362.188 100.136L364.207 103.976L360.818 109.805L360.541 104.858L357.855 102.056L354.021 103.529L353.391 107.081L356.444 110.998L350.169 109.227L349.371 104.288L351.553 99.5755L347.561 87.8907" fill="#75778E"/>
    <path d="M360.454 75.5733C360.454 75.5733 382.014 78.9125 383.86 78.3702C385.707 77.828 385.997 78.9079 385.997 78.9079C385.997 78.9079 381.633 57.1017 383.212 49.3616C384.79 41.6214 394.1 43.4378 400.425 52.7053C403.601 57.3683 406.164 76.2014 406.164 76.2014C406.164 76.2014 407.389 94.203 402.335 97.5467C397.281 100.89 369.342 103.263 364.424 100.782C359.506 98.3013 358.73 87.8591 358.73 87.8591C358.73 87.8591 357.823 76.6487 360.454 75.5733Z" fill="white"/>
    <path d="M395.434 82.4369C395.434 82.4369 389.123 76.6623 385.907 78.5239" stroke="#1D1E40" stroke-opacity="0.86" stroke-width="1.39" stroke-linecap="round" stroke-linejoin="round"/>
    <path d="M362.829 99.7836C364.237 99.6132 364.725 94.1272 363.92 87.5302C363.115 80.9333 361.321 75.7235 359.913 75.894C358.506 76.0644 358.017 81.5504 358.822 88.1474C359.627 94.7443 361.421 99.954 362.829 99.7836Z" fill="#6B5697"/>
    <path d="M350.21 75.7902C350.21 75.7902 353.123 80.1279 348.073 80.3087C343.023 80.4894 342.851 79.4682 343.196 81.6642C343.541 83.8602 344.729 82.9429 345.419 83.8783C346.109 84.8136 346.444 86.9554 347.56 87.8907C348.621 88.8199 349.789 89.6193 351.04 90.2719C351.998 90.6967 356.453 89.9285 357.31 89.8472C358.168 89.7658 358.762 88.7402 358.762 88.7402L364.134 89.6664C364.134 89.6664 363.385 83.8421 363.04 82.4369C362.696 81.0316 361.226 82.3691 358.576 78.9079C355.927 75.4468 350.21 75.7902 350.21 75.7902Z" fill="#EFB6AB"/>
    <path d="M403.782 59.239C403.782 59.239 408.732 78.5962 405.393 91.3518C403.27 99.4399 389.795 100.651 389.795 100.651C389.795 100.651 377.763 102.833 362.823 99.8059" stroke="#1D1E40" stroke-opacity="0.86" stroke-width="1.39" stroke-linecap="round" stroke-linejoin="round"/>
    <path d="M359.906 75.9122C359.906 75.9122 383.779 77.5343 385.975 78.9079C388.525 80.5292 390.64 82.7455 392.136 85.3648" stroke="#1D1E40" stroke-opacity="0.86" stroke-width="1.39" stroke-linecap="round" stroke-linejoin="round"/>
    <path d="M384.759 61.2633C384.759 61.2633 385.017 74.0732 385.975 78.9079" stroke="#1D1E40" stroke-opacity="0.86" stroke-width="1.39" stroke-linecap="round" stroke-linejoin="round"/>
    <path d="M198.113 67.6072V64.5889L194.856 63.0842L194.461 60.6216L197.183 57.9105L196.176 55.448L192.546 56.0037L190.623 54.0924L191.907 50.2065L189.507 48.4985L186.562 50.8391L184.162 49.7276L183.527 46.6279L180.26 46.1534L178.899 49.7276H176.254L174.254 47.1114L171.227 48.2229L171.536 51.8784L169.721 53.3921L166.459 52.2805L164.458 54.6708L166.609 57.9196L165.738 60.1427L161.995 60.5358L161.682 63.6355L165.375 65.226V67.7744L162.653 70.0743L163.936 73.0158L167.602 72.5369L169.281 74.6018L168.083 77.7648L170.71 79.6806L173.532 77.3762L175.851 78.804L176.245 82.0573H179.911L181.195 78.804H183.586L185.904 81.2711L188.772 79.8433L188.209 76.6803L190.047 75.1757L193.79 75.9754L195.468 73.3638L193.395 70.7385L194.429 68.1946L198.113 67.6072ZM179.884 70.8921C178.538 70.8921 177.222 70.4946 176.103 69.7499C174.984 69.0051 174.112 67.9466 173.596 66.7081C173.081 65.4697 172.947 64.1069 173.209 62.7922C173.472 61.4774 174.12 60.2697 175.072 59.3218C176.023 58.374 177.236 57.7284 178.556 57.4669C179.876 57.2054 181.245 57.3396 182.488 57.8526C183.732 58.3656 184.795 59.2343 185.542 60.3489C186.29 61.4635 186.689 62.7739 186.689 64.1144C186.689 65.912 185.972 67.6359 184.696 68.907C183.42 70.1781 181.689 70.8921 179.884 70.8921Z" fill="#6B5697"/>
    <path d="M174.34 66.4279C174.34 66.4279 171.695 71.0819 174.548 73.0158C177.402 74.9497 180.056 72.7312 181.222 71.5338C182.388 70.3364 182.043 68.8679 180.732 67.7925C179.421 66.7171 175.088 64.6566 174.34 66.4279Z" fill="#EFB6AB"/>
    <path d="M242.789 104.916C238.513 104.916 234.333 106.179 230.778 108.545C227.223 110.911 224.452 114.274 222.816 118.209C221.179 122.143 220.752 126.472 221.586 130.649C222.421 134.826 224.48 138.662 227.504 141.673C230.528 144.684 234.38 146.734 238.574 147.564C242.768 148.395 247.115 147.968 251.065 146.337C255.015 144.707 258.391 141.947 260.766 138.405C263.141 134.864 264.408 130.701 264.408 126.442C264.408 123.615 263.849 120.815 262.763 118.203C261.677 115.591 260.084 113.217 258.077 111.218C256.069 109.219 253.686 107.634 251.062 106.552C248.439 105.471 245.628 104.915 242.789 104.916V104.916ZM243.066 137.517C240.866 137.517 238.716 136.868 236.888 135.651C235.059 134.434 233.634 132.704 232.792 130.681C231.95 128.657 231.73 126.43 232.159 124.282C232.588 122.134 233.648 120.16 235.203 118.611C236.758 117.062 238.739 116.008 240.896 115.58C243.053 115.153 245.289 115.372 247.321 116.211C249.353 117.049 251.09 118.468 252.312 120.29C253.534 122.111 254.186 124.252 254.186 126.442C254.186 127.897 253.899 129.337 253.341 130.681C252.782 132.025 251.963 133.246 250.93 134.275C249.897 135.303 248.671 136.119 247.322 136.675C245.972 137.232 244.526 137.518 243.066 137.517Z" fill="#A3A3A3"/>
    <path d="M278.83 125.362V120.618L273.245 118.811L272.252 115.575L275.614 110.705L273.345 106.927L268.159 107.632L264.929 104.279L266.34 99.9505L262.457 96.3132L256.985 99.2502L253.21 96.8328V92.1291L248.415 91.022L245.189 95.7664H241.237L237.608 90.5024L233.166 91.6727L232.159 97.7229L229.074 99.1101L223.883 95.6173L219.95 98.1341L221.488 104.144L218.407 107.492L213.498 106.516L210.545 110.56L214.319 115.422L212.781 119.488L207.31 120.315L206.747 125.204L211.933 127.812V132.33L208.14 135.131L209.134 139.876L215.309 140.296L217.405 143.513L214.746 148.407L217.69 152.876L223.439 150.214L226.955 153.852L225.966 158.456L231.015 160.552L235.221 156.635L239.427 157.62L240.833 162.364H245.602L247.843 156.775L251.926 156.215L256.105 160.842L260.229 158.885L259.471 152.735L262.865 150.214L268.191 152.731L271.471 148.954L268.749 144.065L271.471 139.46L277.601 140.273L278.83 135.525L273.654 132.307L274.361 127.789L278.83 125.362ZM243.066 150.53C238.28 150.532 233.601 149.12 229.621 146.474C225.641 143.827 222.538 140.064 220.705 135.661C218.873 131.258 218.392 126.413 219.325 121.738C220.257 117.063 222.561 112.768 225.944 109.397C229.328 106.026 233.639 103.731 238.333 102.8C243.027 101.869 247.892 102.346 252.314 104.17C256.735 105.993 260.515 109.082 263.174 113.045C265.833 117.008 267.252 121.667 267.252 126.433C267.253 129.598 266.629 132.732 265.414 135.656C264.199 138.58 262.418 141.237 260.172 143.475C257.926 145.714 255.259 147.49 252.324 148.702C249.389 149.914 246.243 150.538 243.066 150.539V150.53Z" fill="#6B5697"/>
    <path d="M242.789 104.916C238.513 104.916 234.333 106.179 230.778 108.545C227.223 110.911 224.452 114.274 222.816 118.209C221.179 122.143 220.752 126.472 221.586 130.649C222.421 134.826 224.48 138.662 227.504 141.673C230.528 144.684 234.38 146.734 238.574 147.564C242.768 148.395 247.115 147.968 251.065 146.337C255.015 144.707 258.391 141.947 260.766 138.405C263.141 134.864 264.408 130.701 264.408 126.442C264.408 123.615 263.849 120.815 262.763 118.203C261.677 115.591 260.084 113.217 258.077 111.218C256.069 109.219 253.686 107.634 251.062 106.552C248.439 105.471 245.628 104.915 242.789 104.916V104.916ZM243.066 137.517C240.866 137.517 238.716 136.868 236.888 135.651C235.059 134.434 233.634 132.704 232.792 130.681C231.95 128.657 231.73 126.43 232.159 124.282C232.588 122.134 233.648 120.16 235.203 118.611C236.758 117.062 238.739 116.008 240.896 115.58C243.053 115.153 245.289 115.372 247.321 116.211C249.353 117.049 251.09 118.468 252.312 120.29C253.534 122.111 254.186 124.252 254.186 126.442C254.186 127.897 253.899 129.337 253.341 130.681C252.782 132.025 251.963 133.246 250.93 134.275C249.897 135.303 248.671 136.119 247.322 136.675C245.972 137.232 244.526 137.518 243.066 137.517Z" fill="#A3A3A3"/>
    <path d="M242.789 104.916C238.513 104.916 234.333 106.179 230.778 108.545C227.223 110.911 224.452 114.274 222.816 118.209C221.179 122.143 220.752 126.472 221.586 130.649C222.421 134.826 224.48 138.662 227.504 141.673C230.528 144.684 234.38 146.734 238.574 147.564C242.768 148.395 247.115 147.968 251.065 146.337C255.015 144.707 258.391 141.947 260.766 138.405C263.141 134.864 264.408 130.701 264.408 126.442C264.408 123.615 263.849 120.815 262.763 118.203C261.677 115.591 260.084 113.217 258.077 111.218C256.069 109.219 253.686 107.634 251.062 106.552C248.439 105.471 245.628 104.915 242.789 104.916V104.916ZM243.066 137.517C240.866 137.517 238.716 136.868 236.888 135.651C235.059 134.434 233.634 132.704 232.792 130.681C231.95 128.657 231.73 126.43 232.159 124.282C232.588 122.134 233.648 120.16 235.203 118.611C236.758 117.062 238.739 116.008 240.896 115.58C243.053 115.153 245.289 115.372 247.321 116.211C249.353 117.049 251.09 118.468 252.312 120.29C253.534 122.111 254.186 124.252 254.186 126.442C254.186 127.897 253.899 129.337 253.341 130.681C252.782 132.025 251.963 133.246 250.93 134.275C249.897 135.303 248.671 136.119 247.322 136.675C245.972 137.232 244.526 137.518 243.066 137.517Z" fill="#6B5697"/>
    <path d="M220.426 136.591L219.932 132.877L223.843 129.714L222.073 125.647L217.128 126.718L214.32 124.228L214.819 119.19L210.849 118.034L208.095 122.416H204.565L201.389 118.761L197.478 120.46L198.644 125.39L196.194 128.006L190.941 127.513L189.58 131.892L194.348 134.273L194.289 137.793L190.206 140.707L192.406 145.031L197.229 143.762L199.915 146.125L199.184 150.987L203.581 152.519L206.149 148.199L209.624 148.258L212.99 151.967L216.833 149.961L215.79 145.153L218.244 142.655L223.126 143.025L224.41 139.004L220.426 136.591ZM206.974 140.784C205.88 140.784 204.811 140.461 203.902 139.856C202.992 139.251 202.283 138.39 201.865 137.384C201.446 136.377 201.337 135.27 201.55 134.201C201.763 133.133 202.29 132.152 203.064 131.381C203.837 130.611 204.822 130.086 205.895 129.874C206.968 129.661 208.08 129.77 209.091 130.187C210.101 130.604 210.965 131.31 211.573 132.216C212.18 133.122 212.505 134.187 212.505 135.276C212.505 135.999 212.362 136.716 212.084 137.384C211.806 138.052 211.399 138.659 210.885 139.171C210.371 139.682 209.762 140.088 209.091 140.365C208.42 140.642 207.701 140.784 206.974 140.784V140.784Z" fill="#75778C"/>
    <path d="M303.788 135.443V132.009L300.054 130.288L299.601 127.477L302.699 124.396L301.547 121.59L297.427 122.222L295.236 120.04L296.697 115.612L293.975 113.664L290.586 116.326L287.864 115.056L287.138 111.527L283.408 110.985L281.866 115.051H278.871L276.603 112.069L273.155 113.339L273.518 117.5L271.426 119.231L267.701 117.957L265.433 120.668L267.883 124.377L266.885 126.908L262.611 127.36L262.252 130.898L266.454 132.705V135.606L263.332 138.227L264.793 141.579L268.972 141.037L270.886 143.396L269.525 147.011L272.52 149.193L275.791 146.563L278.436 148.199L278.889 151.909H283.068L284.529 148.199H287.251L289.892 151.009L293.167 149.369L292.528 145.754L294.619 144.033L298.888 144.937L300.803 141.954L298.435 138.959L299.61 136.067L303.788 135.443ZM283.018 139.198C281.483 139.198 279.982 138.745 278.705 137.895C277.429 137.046 276.434 135.838 275.846 134.426C275.259 133.013 275.105 131.458 275.405 129.959C275.704 128.459 276.443 127.081 277.529 126C278.615 124.919 279.998 124.183 281.504 123.884C283.009 123.586 284.57 123.739 285.989 124.324C287.407 124.909 288.62 125.9 289.473 127.172C290.326 128.443 290.781 129.938 290.781 131.467C290.781 132.482 290.581 133.488 290.191 134.426C289.801 135.364 289.229 136.217 288.508 136.935C287.788 137.653 286.932 138.222 285.989 138.611C285.047 138.999 284.038 139.199 283.018 139.198V139.198Z" fill="#EDE4DD"/>
</svg>
