<svg width="386" height="413" viewBox="0 0 386 413" fill="none" xmlns="http://www.w3.org/2000/svg">
    <g clip-path="url(#clip0_20_261)">
        <rect width="386" height="413" rx="20" fill="url(#paint0_linear_20_261)"/>
        <path opacity="0.3" d="M147.486 47.2672C139.772 53.7744 129.62 52.4036 120.344 51.4511C111.065 50.503 100.478 50.8546 94.1888 59.427C89.1858 66.2458 87.5751 77.4887 80.6657 80.8046C73.2218 84.3742 65.0473 75.922 57.2364 77.9116C52.857 79.0287 49.4183 83.266 46.8277 87.8148C44.2371 92.3636 42.206 97.4331 39.1735 101.532C33.75 108.867 25.4545 112.366 17.4689 111.836C9.48692 111.307 1.84701 107.034 -4.46375 100.905C-19.7899 86.0255 -27.1768 58.5858 -20.2781 35.9264C-16.6292 23.9357 -9.46677 13.939 -1.05004 6.58618C7.36669 -0.766679 17.0163 -5.64039 26.8299 -9.43255C47.0308 -17.2394 68.3114 -20.671 89.4387 -19.5316C101.34 -18.8907 113.328 -16.7631 124.367 -11.1639C128.9 -8.86728 133.24 -5.96531 137.242 -2.44466C141.254 1.08489 144.543 5.30432 147.918 9.70624C150.077 12.5236 152.871 15.025 154.428 18.47C156.178 22.3334 156.024 27.5409 155.39 31.7604C154.456 37.9248 151.681 43.7288 147.486 47.2672Z" fill="white"/>
        <path opacity="0.3" d="M-26.7827 172.305C-17.4772 177.108 -7.74369 182.069 2.02309 180.974C6.79011 180.446 11.4948 178.293 15.6716 174.019C19.6116 169.987 22.8741 164.218 26.2489 158.834C29.5654 153.533 33.0939 148.496 37.3123 145.816C41.4227 143.203 45.8281 142.795 50.1463 142.961C59.0445 143.309 68.9484 146.556 76.8824 137.215C83.8895 128.961 87.4305 114.259 92.4427 102.676C97.7334 90.4502 104.998 82.9518 113.215 79.0479C122.063 74.8418 131.227 74.6304 140.312 74.1773C150.378 73.6714 160.798 72.8106 170.132 65.214C185.181 52.966 194.429 21.8852 192.484 -7.73823C192.259 -11.1816 191.856 -14.5872 191.324 -17.9173C191.291 -18.1136 191.465 -18.174 191.494 -17.9852C196.025 9.73528 190.048 41.5636 177.372 58.9314C161.384 80.8375 140.067 72.9842 121.535 77.4244C112.629 79.5614 103.46 84.4092 96.765 95.8267C90.6306 106.285 87.418 120.95 81.641 131.952C78.7858 137.396 75.3113 141.428 71.309 143.445C66.9535 145.634 62.3568 145.589 57.8766 145.227C53.1304 144.842 48.3509 144.034 43.6088 144.947C38.8418 145.861 34.5776 148.927 30.7291 154.092C27.0801 158.985 23.909 164.928 20.3431 170.002C16.773 175.077 12.7832 178.807 8.3694 180.755C-0.915274 184.855 -10.8275 181.631 -19.8919 177.183C-22.2651 176.021 -24.6091 174.661 -26.9573 173.325C-27.3313 173.136 -27.1484 172.117 -26.7827 172.305Z" fill="#5353C9"/>
        <path opacity="0.3" d="M433.227 221.105C426.294 220.692 419.527 218.38 413.25 215.018C406.772 211.55 400.852 206.998 395.334 201.83C391.226 200.025 387.224 197.788 383.308 195.385C384.599 197.977 386.394 200.26 388.005 202.554C390.493 206.104 392.989 209.655 395.476 213.214C399.695 219.233 404.223 225.252 406.818 232.496C407.577 234.606 409.531 239.713 406.207 240.27C404.994 240.475 403.814 239.874 402.788 239.202C401.332 238.259 400.009 237.078 398.777 235.78C394.078 230.794 390.315 224.423 387.369 217.916C384.055 210.605 381.604 202.489 380.792 194.257C380.779 194.092 380.812 193.97 380.87 193.86C379.15 192.767 377.448 191.657 375.762 190.538C369.172 186.184 362.774 181.454 356.602 176.36C355.996 175.861 355.408 175.345 354.804 174.837C359.498 182.631 364.209 190.418 368.876 198.239C371.325 202.343 373.8 206.44 376.187 210.596C378.403 214.457 380.733 218.368 382.382 222.609C382.995 224.186 383.989 226.385 383.714 228.177C383.466 229.809 382.061 230.035 380.903 229.59C377.299 228.198 374.317 224.823 371.711 221.772C366.544 215.733 362.262 208.707 358.976 201.111C357.123 196.812 355.594 192.283 354.48 187.649C353.417 183.221 352.82 178.577 353.224 173.997C353.171 173.916 353.119 173.824 353.075 173.743C353.001 173.621 352.979 173.455 353.006 173.304C347.75 168.776 342.662 163.994 337.775 158.952C340.155 167.724 342.723 176.418 345.488 185.035C346.99 189.714 348.579 194.345 350.142 198.982C351.539 203.143 352.83 207.399 353.409 211.83C353.55 212.901 353.641 213.977 353.682 215.058C353.712 215.936 353.801 216.926 353.437 217.729C352.867 218.965 351.608 219.021 350.595 218.514C349.125 217.771 347.974 216.039 346.981 214.648C345.755 212.918 344.697 211.04 343.743 209.105C340.005 201.562 337.36 193.121 335.717 184.647C333.927 175.41 333.339 165.514 335.139 156.206C330.665 151.452 326.354 146.492 322.233 141.329C319.885 138.388 317.601 135.377 315.37 132.313C316.405 142.231 317.726 152.108 319.36 161.908C320.223 167.048 321.161 172.166 322.177 177.262C323.162 182.193 324.486 187.164 324.428 192.266C324.416 193.737 324.206 195.43 323.264 196.526C322.151 197.817 320.768 197.246 319.616 196.351C316.572 193.981 314.539 190.233 313.119 186.397C309.984 177.949 308.866 168.504 308.949 159.364C308.995 154.202 309.446 149.078 310.209 144.003C310.6 141.384 311.034 138.759 311.613 136.187C312.095 134.058 312.808 132.075 314.006 130.407C307.236 120.899 301.053 110.85 295.536 100.314C295.22 99.7172 294.922 99.1123 294.614 98.5162C294.53 98.4122 294.453 98.3185 294.369 98.2144C295.077 108.419 295.726 118.619 296.358 128.836C296.691 134.283 297.025 139.729 297.367 145.177C297.679 150.218 297.991 155.268 297.91 160.33C297.873 162.52 297.757 164.886 296.741 166.811C295.944 168.325 294.602 168.604 293.447 167.41C292.159 166.078 291.275 163.86 290.526 162.079C289.677 160.076 289 157.983 288.459 155.846C286.189 146.929 285.804 137.235 286.409 128.008C287.104 117.376 289.286 106.65 293.257 96.9953C293.251 96.8409 293.236 96.6952 293.23 96.5407C293.225 96.3767 293.279 96.2085 293.371 96.0728C288.649 86.6689 284.433 76.9176 280.768 66.9C280.919 76.2548 281.145 85.6165 281.529 94.964C281.744 100.092 282.043 105.208 282.266 110.337C282.475 115.186 282.546 120.108 281.793 124.915C281.451 127.067 280.629 133.58 277.581 132.682C275.983 132.216 275.132 129.52 274.559 127.957C273.819 125.936 273.303 123.81 272.897 121.656C271.171 112.453 270.879 102.729 271.652 93.3641C272.1 87.9225 272.936 82.5169 274.154 77.2334C275.301 72.2702 276.715 67.1684 279.37 62.9898C278.524 60.5737 277.704 58.1504 276.927 55.7118C274.855 49.1993 273.006 42.5825 271.379 35.8805C271.325 35.8274 271.27 35.7837 271.215 35.7306C271.059 35.5814 270.989 35.4017 270.968 35.2171C268.335 44.7847 265.686 54.3412 263.044 63.8985C261.642 68.9629 260.246 74.0377 258.787 79.0776C257.418 83.7796 256.082 88.706 253.941 93.038C253.253 94.4267 252.142 96.8632 250.657 97.2833C249.138 97.7099 248.438 95.7114 248.064 94.3973C246.945 90.4358 246.918 86.1911 247.338 82.0936C248.267 73.1085 250.92 64.2064 254.477 56.1771C258.45 47.2052 263.855 38.9145 270.542 32.3974C268.697 24.3091 267.208 16.1097 266.141 7.8339C265.883 5.82823 265.649 3.81531 265.425 1.79359C265.35 1.08439 266.282 0.959294 266.374 1.66048C267.806 12.2115 269.743 22.6747 272.198 32.984C280.002 33.4295 287.722 35.4351 295.015 38.6708C302.509 42.0023 309.929 46.51 316.143 52.4354C317.593 53.8205 318.971 55.2856 320.275 56.8496C321.518 58.3406 322.965 60.0045 323.783 61.8696C324.37 63.2228 324.211 64.7856 322.85 65.3327C321.266 65.9745 319.075 65.5498 317.467 65.237C313.544 64.4784 309.837 62.653 306.225 60.7881C302.348 58.7833 298.549 56.603 294.831 54.2281C287.29 49.4301 280.109 43.896 273.363 37.7193C274.367 41.67 275.457 45.5901 276.623 49.4789C277.972 53.9714 279.44 58.4269 280.994 62.8327C284.146 62.7308 287.287 63.8401 290.256 64.9237C293.564 66.1351 296.859 67.4317 300.082 68.9237C306.398 71.8476 312.547 75.4967 317.855 80.4625C320.455 82.8875 322.834 85.6287 324.856 88.7023C325.6 89.8295 326.532 91.3686 326.111 92.8687C325.656 94.4907 324.006 94.424 322.803 94.3797C315.346 94.0723 308.607 88.5119 302.654 83.8517C295.92 78.5803 289.356 73.0169 282.716 67.5907C286.126 76.7285 289.976 85.657 294.262 94.2797C294.591 94.9355 294.936 95.5927 295.272 96.2493C303.826 98.467 312.406 100.658 320.79 103.639C328.402 106.347 336.094 109.706 342.318 115.613C343.768 116.989 345.117 118.509 346.332 120.17C347.342 121.544 348.702 123.257 348.633 125.194C348.475 129.47 343.174 129.151 340.662 128.908C332.119 128.086 324.3 123.339 317.142 118.182C310.982 113.743 304.642 109.134 299.118 103.561C304.229 112.886 309.859 121.816 315.96 130.299C324.362 131.955 332.815 133.586 341.132 135.743C348.59 137.676 356.111 140.269 362.517 145.241C364.119 146.477 365.619 147.867 366.998 149.428C368.247 150.833 369.569 152.389 370.418 154.161C371.093 155.57 371.379 157.415 370.183 158.583C368.933 159.804 366.834 159.725 365.302 159.631C361.301 159.385 357.501 157.464 353.858 155.692C349.731 153.684 345.657 151.526 341.642 149.229C333.71 144.674 325.998 139.591 318.618 133.923C318.929 134.346 319.24 134.769 319.561 135.184C329.558 148.367 340.73 160.342 352.806 170.938C353.276 171.357 353.764 171.748 354.243 172.158C356.657 170.468 359.356 169.459 362.071 168.585C365.364 167.525 368.685 166.544 372.038 165.816C378.668 164.383 385.57 164.061 392.085 166.407C395.281 167.56 398.34 169.374 400.892 171.89C401.81 172.793 402.946 173.918 402.803 175.473C402.665 176.98 401.439 177.973 400.328 178.514C397.296 180.003 393.744 180.125 390.497 180.045C386.752 179.957 383.041 179.382 379.331 178.787C371.92 177.599 364.523 176.201 357.163 174.642C364.77 180.985 372.725 186.755 380.954 191.953C381.107 191.66 381.406 191.437 381.763 191.557C381.853 191.585 381.942 191.612 382.032 191.64C387.977 188.7 393.924 185.269 400.347 184.057C406.282 182.934 412.515 183.483 418.203 185.753C419.7 186.353 421.165 187.057 422.579 187.881C423.658 188.51 424.869 189.152 425.702 190.2C427.719 192.754 425.02 194.832 423.124 195.896C420.578 197.324 417.678 197.757 414.874 197.892C411.519 198.051 408.143 197.911 404.801 197.659C397.751 197.12 390.773 195.808 383.927 193.797C386.511 195.374 389.108 196.895 391.743 198.351C392.263 198.64 392.775 198.928 393.287 199.226C393.374 199.176 393.482 199.167 393.593 199.254C393.773 199.406 393.962 199.558 394.151 199.71C395.038 200.225 395.917 200.74 396.803 201.284C396.986 201.397 397.065 201.577 397.069 201.76C408.411 207.383 421.64 205.677 432.846 211.94C434.847 213.059 438.221 214.767 438.53 217.72C438.932 221.24 435.207 221.221 433.227 221.105ZM249.291 77.0129C248.513 80.9906 247.968 85.0957 248.255 89.1819C248.396 91.2055 248.702 93.3694 249.42 95.2349C250.172 97.1998 251.345 95.6541 252.012 94.6772C252.67 93.7185 253.227 92.6639 253.711 91.5737C255.555 87.4449 256.774 82.8733 258.014 78.4672C259.31 73.8642 260.55 69.2272 261.829 64.6226C264.599 54.654 267.36 44.6942 270.137 34.7359C260.013 46.3883 252.451 60.7604 249.291 77.0129ZM291.276 50.1176C297.918 54.6878 304.91 58.8961 312.152 62.0309C313.419 62.5814 323.112 66.0977 323.054 63.139C323.036 62.2043 322.069 61.1622 321.583 60.5014C320.991 59.6961 320.381 58.9083 319.752 58.1477C318.441 56.5543 317.048 55.0686 315.582 53.6723C309.804 48.1627 303.136 43.8497 296.241 40.5162C288.678 36.8705 280.67 34.5785 272.486 34.0977C272.57 34.4327 272.647 34.7668 272.732 35.1018C278.592 40.6096 284.786 45.6384 291.276 50.1176ZM279.586 64.5298C276.273 72.0526 274.534 80.6066 273.503 88.8993C272.41 97.7345 272.328 106.741 273.296 115.594C273.746 119.743 274.34 123.964 275.792 127.821C276.157 128.779 276.542 129.815 277.082 130.654C277.914 131.953 278.838 131.481 279.42 130.284C280.325 128.415 280.619 125.999 280.89 123.908C281.486 119.327 281.354 114.678 281.111 110.076C280.864 105.417 280.591 100.755 280.386 96.0892C279.933 85.5714 279.631 75.0482 279.586 64.5298ZM298.719 79.225C301.718 81.6581 304.754 84.0274 307.868 86.25C310.83 88.3624 313.881 90.406 317.182 91.732C318.824 92.3943 320.522 92.8501 322.25 93.0105C322.688 93.0511 323.135 93.0735 323.577 93.0663C324.2 93.0665 324.46 93.1579 324.868 92.5609C325.257 91.991 325.167 91.7325 324.922 91.0749C324.718 90.5461 324.425 90.1052 324.124 89.654C322.202 86.8014 319.998 84.1918 317.598 81.8816C312.745 77.1888 307.137 73.6477 301.332 70.7905C298.131 69.214 294.86 67.8329 291.563 66.5649C288.257 65.3058 284.962 64.0283 281.477 64.1377C281.629 64.5751 281.782 65.0029 281.943 65.4411C287.498 70.0836 293.1 74.6631 298.719 79.225ZM288.398 149.953C289.031 154.1 290.032 158.204 291.655 161.991C292.063 162.943 292.506 163.859 293 164.761C293.545 165.764 294.43 167.732 295.659 166.701C296.41 166.069 296.618 164.174 296.736 163.194C296.882 161.947 296.879 160.687 296.867 159.435C296.809 149.695 295.88 139.921 295.263 130.206C294.613 120.016 293.988 109.828 293.414 99.6264C288.102 115.593 285.805 132.955 288.398 149.953ZM313.935 114.095C320.64 119.181 327.697 124.241 335.568 126.473C337.493 127.017 339.447 127.381 341.424 127.536C343.07 127.66 345.191 127.905 346.636 126.75C348.548 125.224 346.632 122.767 345.6 121.363C344.377 119.7 343.019 118.18 341.569 116.794C335.879 111.341 328.881 108.056 321.929 105.419C313.43 102.187 304.732 99.7728 295.982 97.6331C296.158 97.9764 296.333 98.3198 296.509 98.6632C301.711 104.668 307.813 109.457 313.935 114.095ZM311.653 143.223C311.001 147.424 310.544 151.681 310.312 155.941C309.847 164.594 310.433 173.45 312.713 181.742C313.787 185.642 315.186 189.542 317.52 192.674C318.372 193.811 320.82 196.982 322.287 195.993C323.684 195.045 323.499 192.219 323.416 190.672C323.177 186.013 321.965 181.475 321.05 176.956C320.104 172.299 319.233 167.629 318.422 162.946C316.68 152.79 315.275 142.568 314.182 132.289C312.616 135.53 312.198 139.714 311.653 143.223ZM338.023 145.555C341.629 147.756 345.293 149.828 349.009 151.769C352.627 153.664 356.284 155.61 360.068 157.048C361.883 157.736 363.76 158.247 365.675 158.338C367.375 158.419 370.807 158.343 369.704 155.326C369.013 153.434 367.459 151.751 366.2 150.364C364.934 148.967 363.559 147.695 362.126 146.542C356.142 141.734 349.022 139.111 341.996 137.18C334.292 135.06 326.469 133.699 318.663 132.205C324.93 137.019 331.37 141.503 338.023 145.555ZM335.829 156.934C335.06 164.577 335.074 172.216 336.162 179.83C337.312 187.883 339.524 195.717 342.483 203.11C344.012 206.927 345.738 210.675 348.046 213.939C348.863 215.092 350.307 217.515 351.797 217.509C353.411 217.505 352.51 212.554 352.344 211.365C351.747 207.183 350.447 203.176 349.1 199.251C347.628 194.968 346.131 190.693 344.711 186.386C341.537 176.732 338.637 166.949 335.976 157.091C335.929 157.039 335.883 156.987 335.829 156.934ZM358.737 196.933C361.462 204.102 365.068 210.805 369.457 216.773C371.727 219.869 374.176 222.915 376.954 225.414C377.767 226.144 378.618 226.819 379.526 227.394C380.124 227.777 381.585 228.884 382.296 228.469C382.886 228.12 382.697 227.025 382.569 226.474C382.454 225.973 382.306 225.478 382.149 224.983C381.835 224.001 381.479 223.035 381.079 222.094C379.403 218.11 377.194 214.393 375.056 210.712C372.882 206.961 370.638 203.251 368.411 199.533C363.615 191.537 358.862 183.506 354.101 175.483C354.163 182.906 356.173 190.192 358.737 196.933ZM374.317 176.504C380.916 177.655 387.756 179.156 394.446 178.526C396.347 178.347 404.009 177.143 400.75 173.551C398.488 171.052 395.654 169.24 392.721 168.006C386.669 165.462 380.114 165.469 373.814 166.597C370.251 167.228 366.747 168.201 363.262 169.263C360.517 170.095 357.773 171.034 355.306 172.652C361.618 174.094 367.948 175.393 374.317 176.504ZM387.022 213.728C389.455 219.966 392.638 225.822 396.454 231.063C398.548 233.941 400.954 236.887 403.914 238.566C405.306 239.359 407.484 239.609 407.106 236.938C406.853 235.202 406.113 233.421 405.475 231.842C402.785 225.234 398.502 219.651 394.527 214.059C391.93 210.403 389.333 206.747 386.745 203.082C385.209 200.91 383.522 198.743 382.288 196.3C383.365 202.287 384.836 208.119 387.022 213.728ZM400.901 195.854C404.027 196.24 407.163 196.464 410.31 196.544C413.183 196.619 416.11 196.64 418.947 196.038C420.137 195.783 421.32 195.402 422.44 194.852C423.077 194.545 423.677 194.178 424.264 193.751C425.088 193.145 426.031 192.395 425.264 191.228C424.497 190.069 423.019 189.442 421.921 188.839C420.696 188.168 419.44 187.57 418.153 187.066C412.771 184.931 407 184.193 401.351 185.045C395.138 185.978 389.476 189.156 383.869 192.243C389.448 193.944 395.152 195.157 400.901 195.854ZM435.127 215.115C433.806 214.146 432.4 213.323 430.96 212.621C425.379 209.891 419.297 208.961 413.354 207.832C408.379 206.889 403.458 205.778 398.866 203.534C407.926 210.628 417.691 216.931 428.571 218.941C430.172 219.234 431.788 219.442 433.412 219.535C434.422 219.6 436.757 219.989 437.218 218.512C437.676 217.083 435.99 215.743 435.127 215.115Z" fill="#5353C9"/>
        <path d="M20.36 26.188C20.36 25.788 20.472 25.444 20.696 25.156C20.928 24.86 21.244 24.632 21.644 24.472C22.044 24.312 22.508 24.232 23.036 24.232C23.316 24.232 23.612 24.256 23.924 24.304C24.236 24.344 24.512 24.408 24.752 24.496V24.04C24.752 23.56 24.608 23.184 24.32 22.912C24.032 22.632 23.624 22.492 23.096 22.492C22.752 22.492 22.42 22.556 22.1 22.684C21.788 22.804 21.456 22.98 21.104 23.212L20.72 22.468C21.128 22.188 21.536 21.98 21.944 21.844C22.352 21.7 22.776 21.628 23.216 21.628C24.016 21.628 24.648 21.852 25.112 22.3C25.576 22.74 25.808 23.356 25.808 24.148V26.8C25.808 26.928 25.832 27.024 25.88 27.088C25.936 27.144 26.024 27.176 26.144 27.184V28C26.04 28.016 25.948 28.028 25.868 28.036C25.796 28.044 25.736 28.048 25.688 28.048C25.44 28.048 25.252 27.98 25.124 27.844C25.004 27.708 24.936 27.564 24.92 27.412L24.896 27.016C24.624 27.368 24.268 27.64 23.828 27.832C23.388 28.024 22.952 28.12 22.52 28.12C22.104 28.12 21.732 28.036 21.404 27.868C21.076 27.692 20.82 27.46 20.636 27.172C20.452 26.876 20.36 26.548 20.36 26.188ZM24.44 26.632C24.536 26.52 24.612 26.408 24.668 26.296C24.724 26.176 24.752 26.076 24.752 25.996V25.216C24.504 25.12 24.244 25.048 23.972 25C23.7 24.944 23.432 24.916 23.168 24.916C22.632 24.916 22.196 25.024 21.86 25.24C21.532 25.448 21.368 25.736 21.368 26.104C21.368 26.304 21.42 26.5 21.524 26.692C21.636 26.876 21.796 27.028 22.004 27.148C22.22 27.268 22.484 27.328 22.796 27.328C23.124 27.328 23.436 27.264 23.732 27.136C24.028 27 24.264 26.832 24.44 26.632ZM30.8085 22.66C30.2805 22.668 29.8125 22.804 29.4045 23.068C29.0045 23.324 28.7205 23.68 28.5525 24.136V28H27.4965V21.736H28.4805V23.188C28.6965 22.756 28.9805 22.408 29.3325 22.144C29.6925 21.872 30.0685 21.72 30.4605 21.688C30.5405 21.688 30.6085 21.688 30.6645 21.688C30.7205 21.688 30.7685 21.692 30.8085 21.7V22.66ZM35.0959 27.688C35.0079 27.728 34.8879 27.78 34.7359 27.844C34.5839 27.908 34.4079 27.964 34.2079 28.012C34.0079 28.06 33.7959 28.084 33.5719 28.084C33.3159 28.084 33.0799 28.04 32.8639 27.952C32.6479 27.856 32.4759 27.712 32.3479 27.52C32.2199 27.32 32.1559 27.072 32.1559 26.776V22.564H31.3039V21.736H32.1559V19.648H33.2119V21.736H34.6159V22.564H33.2119V26.452C33.2279 26.676 33.3039 26.844 33.4399 26.956C33.5759 27.06 33.7359 27.112 33.9199 27.112C34.1279 27.112 34.3199 27.076 34.4959 27.004C34.6719 26.932 34.7879 26.88 34.8439 26.848L35.0959 27.688ZM36.0747 28V21.736H37.1307V28H36.0747ZM36.0747 20.56V19.24H37.1307V20.56H36.0747ZM41.6123 28.12C41.1403 28.12 40.7083 28.036 40.3163 27.868C39.9323 27.692 39.5963 27.452 39.3083 27.148C39.0283 26.844 38.8083 26.496 38.6483 26.104C38.4963 25.712 38.4203 25.296 38.4203 24.856C38.4203 24.264 38.5523 23.724 38.8163 23.236C39.0803 22.748 39.4523 22.36 39.9323 22.072C40.4123 21.776 40.9683 21.628 41.6003 21.628C42.2163 21.628 42.7523 21.768 43.2083 22.048C43.6723 22.32 44.0163 22.688 44.2403 23.152L43.2083 23.476C43.0483 23.18 42.8243 22.952 42.5363 22.792C42.2483 22.624 41.9283 22.54 41.5763 22.54C41.1923 22.54 40.8403 22.64 40.5203 22.84C40.2083 23.04 39.9603 23.316 39.7763 23.668C39.5923 24.012 39.5003 24.408 39.5003 24.856C39.5003 25.296 39.5923 25.696 39.7763 26.056C39.9683 26.408 40.2203 26.688 40.5323 26.896C40.8523 27.104 41.2043 27.208 41.5883 27.208C41.8363 27.208 42.0723 27.164 42.2963 27.076C42.5283 26.988 42.7283 26.872 42.8963 26.728C43.0723 26.576 43.1923 26.412 43.2563 26.236L44.2883 26.548C44.1603 26.852 43.9643 27.124 43.7003 27.364C43.4443 27.596 43.1363 27.78 42.7763 27.916C42.4243 28.052 42.0363 28.12 41.6123 28.12ZM45.5088 19.24H46.5648V26.38C46.5648 26.724 46.6128 26.936 46.7088 27.016C46.8048 27.096 46.9208 27.136 47.0568 27.136C47.2248 27.136 47.3848 27.12 47.5368 27.088C47.6888 27.048 47.8168 27.008 47.9208 26.968L48.0888 27.832C47.9128 27.904 47.7048 27.964 47.4648 28.012C47.2248 28.06 47.0128 28.084 46.8288 28.084C46.4208 28.084 46.0968 27.968 45.8568 27.736C45.6248 27.504 45.5088 27.18 45.5088 26.764V19.24ZM51.6904 28.12C51.2184 28.12 50.7864 28.036 50.3944 27.868C50.0104 27.692 49.6744 27.456 49.3864 27.16C49.1064 26.856 48.8864 26.508 48.7264 26.116C48.5744 25.724 48.4984 25.308 48.4984 24.868C48.4984 24.276 48.6344 23.736 48.9064 23.248C49.1784 22.76 49.5544 22.368 50.0344 22.072C50.5224 21.776 51.0784 21.628 51.7024 21.628C52.3344 21.628 52.8824 21.78 53.3464 22.084C53.8184 22.38 54.1824 22.772 54.4384 23.26C54.7024 23.74 54.8344 24.26 54.8344 24.82C54.8344 24.9 54.8304 24.98 54.8224 25.06C54.8224 25.132 54.8184 25.188 54.8104 25.228H49.6144C49.6464 25.636 49.7584 26 49.9504 26.32C50.1504 26.632 50.4064 26.88 50.7184 27.064C51.0304 27.24 51.3664 27.328 51.7264 27.328C52.1104 27.328 52.4704 27.232 52.8064 27.04C53.1504 26.848 53.3864 26.596 53.5144 26.284L54.4264 26.536C54.2904 26.84 54.0864 27.112 53.8144 27.352C53.5504 27.592 53.2344 27.78 52.8664 27.916C52.5064 28.052 52.1144 28.12 51.6904 28.12ZM49.5784 24.496H53.8504C53.8184 24.088 53.7024 23.728 53.5024 23.416C53.3024 23.104 53.0464 22.86 52.7344 22.684C52.4224 22.508 52.0784 22.42 51.7024 22.42C51.3344 22.42 50.9944 22.508 50.6824 22.684C50.3704 22.86 50.1144 23.104 49.9144 23.416C49.7224 23.728 49.6104 24.088 49.5784 24.496Z" fill="#7474DD"/>
        <rect x="10.5" y="10.5" width="55" height="27" rx="13.5" stroke="#7474DD"/>
    </g>
    <rect x="10" y="343" width="231" height="60" rx="20" fill="#5353C9"/>
    <path d="M38.496 354.64V366H37.056V360.832H30.8V366H29.36V354.64H30.8V359.552H37.056V354.64H38.496ZM44.5028 366.16C43.8734 366.16 43.3028 366.048 42.7908 365.824C42.2788 365.589 41.8361 365.275 41.4628 364.88C41.0894 364.475 40.8014 364.011 40.5988 363.488C40.3961 362.965 40.2948 362.416 40.2948 361.84C40.2948 361.253 40.3961 360.699 40.5988 360.176C40.8014 359.653 41.0894 359.195 41.4628 358.8C41.8361 358.395 42.2788 358.08 42.7908 357.856C43.3134 357.621 43.8841 357.504 44.5028 357.504C45.1321 357.504 45.7028 357.621 46.2148 357.856C46.7268 358.08 47.1694 358.395 47.5428 358.8C47.9268 359.195 48.2201 359.653 48.4228 360.176C48.6254 360.699 48.7268 361.253 48.7268 361.84C48.7268 362.416 48.6254 362.965 48.4228 363.488C48.2201 364.011 47.9321 364.475 47.5588 364.88C47.1854 365.275 46.7374 365.589 46.2148 365.824C45.7028 366.048 45.1321 366.16 44.5028 366.16ZM41.7348 361.856C41.7348 362.432 41.8574 362.955 42.1028 363.424C42.3588 363.893 42.6948 364.267 43.1108 364.544C43.5268 364.811 43.9908 364.944 44.5028 364.944C45.0148 364.944 45.4788 364.805 45.8948 364.528C46.3214 364.251 46.6574 363.877 46.9028 363.408C47.1588 362.928 47.2868 362.4 47.2868 361.824C47.2868 361.248 47.1588 360.725 46.9028 360.256C46.6574 359.787 46.3214 359.413 45.8948 359.136C45.4788 358.859 45.0148 358.72 44.5028 358.72C43.9908 358.72 43.5268 358.864 43.1108 359.152C42.6948 359.429 42.3588 359.803 42.1028 360.272C41.8574 360.741 41.7348 361.269 41.7348 361.856ZM60.6156 357.648H61.9756L58.4236 366H57.1916L55.5756 362.064L53.9756 366H52.7436L49.1916 357.648H50.5356L53.4156 364.608L54.7596 361.184L53.3516 357.664H54.5836L55.5756 360.32L56.5676 357.664H57.7996L56.4076 361.184L57.7516 364.608L60.6156 357.648ZM71.206 365.584C71.0887 365.637 70.9287 365.707 70.726 365.792C70.5233 365.877 70.2887 365.952 70.022 366.016C69.7553 366.08 69.4727 366.112 69.174 366.112C68.8327 366.112 68.518 366.053 68.23 365.936C67.942 365.808 67.7127 365.616 67.542 365.36C67.3713 365.093 67.286 364.763 67.286 364.368V358.752H66.15V357.648H67.286V354.864H68.694V357.648H70.566V358.752H68.694V363.936C68.7153 364.235 68.8167 364.459 68.998 364.608C69.1793 364.747 69.3927 364.816 69.638 364.816C69.9153 364.816 70.1713 364.768 70.406 364.672C70.6407 364.576 70.7953 364.507 70.87 364.464L71.206 365.584ZM76.0496 366.16C75.4203 366.16 74.8496 366.048 74.3376 365.824C73.8256 365.589 73.383 365.275 73.0096 364.88C72.6363 364.475 72.3483 364.011 72.1456 363.488C71.943 362.965 71.8416 362.416 71.8416 361.84C71.8416 361.253 71.943 360.699 72.1456 360.176C72.3483 359.653 72.6363 359.195 73.0096 358.8C73.383 358.395 73.8256 358.08 74.3376 357.856C74.8603 357.621 75.431 357.504 76.0496 357.504C76.679 357.504 77.2496 357.621 77.7616 357.856C78.2736 358.08 78.7163 358.395 79.0896 358.8C79.4736 359.195 79.767 359.653 79.9696 360.176C80.1723 360.699 80.2736 361.253 80.2736 361.84C80.2736 362.416 80.1723 362.965 79.9696 363.488C79.767 364.011 79.479 364.475 79.1056 364.88C78.7323 365.275 78.2843 365.589 77.7616 365.824C77.2496 366.048 76.679 366.16 76.0496 366.16ZM73.2816 361.856C73.2816 362.432 73.4043 362.955 73.6496 363.424C73.9056 363.893 74.2416 364.267 74.6576 364.544C75.0736 364.811 75.5376 364.944 76.0496 364.944C76.5616 364.944 77.0256 364.805 77.4416 364.528C77.8683 364.251 78.2043 363.877 78.4496 363.408C78.7056 362.928 78.8336 362.4 78.8336 361.824C78.8336 361.248 78.7056 360.725 78.4496 360.256C78.2043 359.787 77.8683 359.413 77.4416 359.136C77.0256 358.859 76.5616 358.72 76.0496 358.72C75.5376 358.72 75.0736 358.864 74.6576 359.152C74.2416 359.429 73.9056 359.803 73.6496 360.272C73.4043 360.741 73.2816 361.269 73.2816 361.856ZM88.8906 366.16C88.1973 366.16 87.5466 366.048 86.9386 365.824C86.3306 365.589 85.808 365.243 85.3706 364.784L85.9146 363.792C86.3946 364.24 86.8746 364.56 87.3546 364.752C87.8346 364.944 88.3253 365.04 88.8266 365.04C89.4026 365.04 89.872 364.933 90.2346 364.72C90.5973 364.496 90.7786 364.171 90.7786 363.744C90.7786 363.435 90.6826 363.205 90.4906 363.056C90.3093 362.907 90.048 362.784 89.7066 362.688C89.3653 362.581 88.96 362.464 88.4906 362.336C87.9146 362.165 87.4293 361.984 87.0346 361.792C86.64 361.6 86.3413 361.36 86.1386 361.072C85.936 360.784 85.8346 360.421 85.8346 359.984C85.8346 359.451 85.9733 359.003 86.2506 358.64C86.528 358.267 86.9066 357.984 87.3866 357.792C87.8773 357.6 88.432 357.504 89.0506 357.504C89.6693 357.504 90.2293 357.6 90.7306 357.792C91.232 357.984 91.664 358.267 92.0266 358.64L91.3866 359.616C91.056 359.275 90.6933 359.024 90.2986 358.864C89.904 358.693 89.4613 358.608 88.9706 358.608C88.6826 358.608 88.4 358.645 88.1226 358.72C87.8453 358.784 87.616 358.907 87.4346 359.088C87.2533 359.259 87.1626 359.504 87.1626 359.824C87.1626 360.091 87.232 360.304 87.3706 360.464C87.52 360.613 87.7333 360.741 88.0106 360.848C88.2986 360.955 88.6453 361.072 89.0506 361.2C89.68 361.381 90.224 361.563 90.6826 361.744C91.152 361.925 91.5146 362.16 91.7706 362.448C92.0266 362.736 92.1546 363.136 92.1546 363.648C92.1546 364.437 91.856 365.056 91.2586 365.504C90.6613 365.941 89.872 366.16 88.8906 366.16ZM98.1591 365.584C98.0418 365.637 97.8818 365.707 97.6791 365.792C97.4765 365.877 97.2418 365.952 96.9751 366.016C96.7085 366.08 96.4258 366.112 96.1271 366.112C95.7858 366.112 95.4711 366.053 95.1831 365.936C94.8951 365.808 94.6658 365.616 94.4951 365.36C94.3245 365.093 94.2391 364.763 94.2391 364.368V358.752H93.1031V357.648H94.2391V354.864H95.6471V357.648H97.5191V358.752H95.6471V363.936C95.6685 364.235 95.7698 364.459 95.9511 364.608C96.1325 364.747 96.3458 364.816 96.5911 364.816C96.8685 364.816 97.1245 364.768 97.3591 364.672C97.5938 364.576 97.7485 364.507 97.8231 364.464L98.1591 365.584ZM98.8081 363.584C98.8081 363.051 98.9575 362.592 99.2561 362.208C99.5655 361.813 99.9868 361.509 100.52 361.296C101.053 361.083 101.672 360.976 102.376 360.976C102.749 360.976 103.144 361.008 103.56 361.072C103.976 361.125 104.344 361.211 104.664 361.328V360.72C104.664 360.08 104.472 359.579 104.088 359.216C103.704 358.843 103.16 358.656 102.456 358.656C101.997 358.656 101.555 358.741 101.128 358.912C100.712 359.072 100.269 359.307 99.8001 359.616L99.2881 358.624C99.8321 358.251 100.376 357.973 100.92 357.792C101.464 357.6 102.029 357.504 102.616 357.504C103.683 357.504 104.525 357.803 105.144 358.4C105.763 358.987 106.072 359.808 106.072 360.864V364.4C106.072 364.571 106.104 364.699 106.168 364.784C106.243 364.859 106.36 364.901 106.52 364.912V366C106.381 366.021 106.259 366.037 106.152 366.048C106.056 366.059 105.976 366.064 105.912 366.064C105.581 366.064 105.331 365.973 105.16 365.792C105 365.611 104.909 365.419 104.888 365.216L104.856 364.688C104.493 365.157 104.019 365.52 103.432 365.776C102.845 366.032 102.264 366.16 101.688 366.16C101.133 366.16 100.637 366.048 100.2 365.824C99.7628 365.589 99.4215 365.28 99.1761 364.896C98.9308 364.501 98.8081 364.064 98.8081 363.584ZM104.248 364.176C104.376 364.027 104.477 363.877 104.552 363.728C104.627 363.568 104.664 363.435 104.664 363.328V362.288C104.333 362.16 103.987 362.064 103.624 362C103.261 361.925 102.904 361.888 102.552 361.888C101.837 361.888 101.256 362.032 100.808 362.32C100.371 362.597 100.152 362.981 100.152 363.472C100.152 363.739 100.221 364 100.36 364.256C100.509 364.501 100.723 364.704 101 364.864C101.288 365.024 101.64 365.104 102.056 365.104C102.493 365.104 102.909 365.019 103.304 364.848C103.699 364.667 104.013 364.443 104.248 364.176ZM112.74 358.88C112.036 358.891 111.412 359.072 110.868 359.424C110.334 359.765 109.956 360.24 109.732 360.848V366H108.324V357.648H109.636V359.584C109.924 359.008 110.302 358.544 110.772 358.192C111.252 357.829 111.753 357.627 112.276 357.584C112.382 357.584 112.473 357.584 112.548 357.584C112.622 357.584 112.686 357.589 112.74 357.6V358.88ZM118.456 365.584C118.339 365.637 118.179 365.707 117.976 365.792C117.773 365.877 117.539 365.952 117.272 366.016C117.005 366.08 116.723 366.112 116.424 366.112C116.083 366.112 115.768 366.053 115.48 365.936C115.192 365.808 114.963 365.616 114.792 365.36C114.621 365.093 114.536 364.763 114.536 364.368V358.752H113.4V357.648H114.536V354.864H115.944V357.648H117.816V358.752H115.944V363.936C115.965 364.235 116.067 364.459 116.248 364.608C116.429 364.747 116.643 364.816 116.888 364.816C117.165 364.816 117.421 364.768 117.656 364.672C117.891 364.576 118.045 364.507 118.12 364.464L118.456 365.584ZM128.128 365.584C128.011 365.637 127.851 365.707 127.648 365.792C127.445 365.877 127.211 365.952 126.944 366.016C126.677 366.08 126.395 366.112 126.096 366.112C125.755 366.112 125.44 366.053 125.152 365.936C124.864 365.808 124.635 365.616 124.464 365.36C124.293 365.093 124.208 364.763 124.208 364.368V358.752H123.072V357.648H124.208V354.864H125.616V357.648H127.488V358.752H125.616V363.936C125.637 364.235 125.739 364.459 125.92 364.608C126.101 364.747 126.315 364.816 126.56 364.816C126.837 364.816 127.093 364.768 127.328 364.672C127.563 364.576 127.717 364.507 127.792 364.464L128.128 365.584ZM136.681 366H135.273V361.328C135.273 360.475 135.118 359.835 134.809 359.408C134.51 358.981 134.078 358.768 133.513 358.768C133.15 358.768 132.782 358.864 132.409 359.056C132.046 359.248 131.726 359.509 131.449 359.84C131.172 360.16 130.969 360.533 130.841 360.96V366H129.433V354.32H130.841V359.44C131.172 358.843 131.62 358.373 132.185 358.032C132.761 357.68 133.38 357.504 134.041 357.504C134.542 357.504 134.958 357.595 135.289 357.776C135.63 357.947 135.902 358.192 136.105 358.512C136.308 358.832 136.452 359.205 136.537 359.632C136.633 360.048 136.681 360.507 136.681 361.008V366ZM138.87 366V357.648H140.278V366H138.87ZM138.87 356.08V354.32H140.278V356.08H138.87ZM149.806 366H148.398V361.328C148.398 360.443 148.259 359.797 147.982 359.392C147.715 358.976 147.305 358.768 146.75 358.768C146.366 358.768 145.982 358.864 145.598 359.056C145.225 359.248 144.889 359.509 144.59 359.84C144.302 360.16 144.094 360.533 143.966 360.96V366H142.558V357.648H143.838V359.44C144.062 359.045 144.35 358.704 144.702 358.416C145.054 358.128 145.454 357.904 145.902 357.744C146.35 357.584 146.819 357.504 147.31 357.504C147.79 357.504 148.19 357.595 148.51 357.776C148.841 357.947 149.097 358.192 149.278 358.512C149.47 358.821 149.603 359.189 149.678 359.616C149.763 360.043 149.806 360.507 149.806 361.008V366ZM157.883 366L154.987 361.936L153.403 363.424V366H151.995V354.32H153.403V361.952L157.723 357.664H159.243L155.915 361.12L159.403 366H157.883ZM160.62 366V357.648H162.028V366H160.62ZM160.62 356.08V354.32H162.028V356.08H160.62ZM171.556 366H170.148V361.328C170.148 360.443 170.009 359.797 169.732 359.392C169.465 358.976 169.055 358.768 168.5 358.768C168.116 358.768 167.732 358.864 167.348 359.056C166.975 359.248 166.639 359.509 166.34 359.84C166.052 360.16 165.844 360.533 165.716 360.96V366H164.308V357.648H165.588V359.44C165.812 359.045 166.1 358.704 166.452 358.416C166.804 358.128 167.204 357.904 167.652 357.744C168.1 357.584 168.569 357.504 169.06 357.504C169.54 357.504 169.94 357.595 170.26 357.776C170.591 357.947 170.847 358.192 171.028 358.512C171.22 358.821 171.353 359.189 171.428 359.616C171.513 360.043 171.556 360.507 171.556 361.008V366ZM177.073 366.096C176.508 366.096 175.985 365.984 175.505 365.76C175.036 365.525 174.631 365.211 174.289 364.816C173.948 364.411 173.681 363.952 173.489 363.44C173.308 362.928 173.217 362.395 173.217 361.84C173.217 361.253 173.308 360.699 173.489 360.176C173.681 359.653 173.948 359.195 174.289 358.8C174.641 358.395 175.052 358.08 175.521 357.856C175.991 357.621 176.513 357.504 177.089 357.504C177.783 357.504 178.385 357.675 178.897 358.016C179.42 358.357 179.857 358.789 180.209 359.312V357.648H181.457V365.904C181.457 366.693 181.265 367.36 180.881 367.904C180.508 368.448 179.996 368.859 179.345 369.136C178.705 369.424 177.991 369.568 177.201 369.568C176.263 369.568 175.495 369.403 174.897 369.072C174.3 368.741 173.804 368.293 173.409 367.728L174.225 367.008C174.556 367.499 174.983 367.867 175.505 368.112C176.039 368.357 176.604 368.48 177.201 368.48C177.713 368.48 178.183 368.384 178.609 368.192C179.047 368.011 179.393 367.728 179.649 367.344C179.916 366.96 180.049 366.48 180.049 365.904V364.432C179.74 364.944 179.313 365.349 178.769 365.648C178.236 365.947 177.671 366.096 177.073 366.096ZM177.505 364.944C177.804 364.944 178.092 364.891 178.369 364.784C178.647 364.677 178.903 364.539 179.137 364.368C179.372 364.187 179.569 363.984 179.729 363.76C179.889 363.536 179.996 363.307 180.049 363.072V360.672C179.9 360.288 179.687 359.952 179.409 359.664C179.132 359.365 178.817 359.136 178.465 358.976C178.113 358.805 177.751 358.72 177.377 358.72C176.951 358.72 176.567 358.811 176.225 358.992C175.895 359.173 175.612 359.419 175.377 359.728C175.143 360.027 174.961 360.363 174.833 360.736C174.705 361.109 174.641 361.488 174.641 361.872C174.641 362.288 174.716 362.683 174.865 363.056C175.015 363.419 175.217 363.744 175.473 364.032C175.729 364.32 176.033 364.544 176.385 364.704C176.737 364.864 177.111 364.944 177.505 364.944ZM33.632 392.16C32.9493 392.16 32.3413 391.989 31.808 391.648C31.2747 391.307 30.8533 390.875 30.544 390.352V395.408H29.136V383.648H30.384V385.216C30.7147 384.704 31.1467 384.293 31.68 383.984C32.2133 383.664 32.7947 383.504 33.424 383.504C34 383.504 34.528 383.621 35.008 383.856C35.488 384.091 35.904 384.411 36.256 384.816C36.608 385.221 36.88 385.685 37.072 386.208C37.2747 386.72 37.376 387.259 37.376 387.824C37.376 388.613 37.216 389.339 36.896 390C36.5867 390.661 36.1493 391.189 35.584 391.584C35.0187 391.968 34.368 392.16 33.632 392.16ZM33.2 390.944C33.616 390.944 33.9893 390.859 34.32 390.688C34.6613 390.507 34.9493 390.272 35.184 389.984C35.4293 389.685 35.616 389.349 35.744 388.976C35.872 388.603 35.936 388.219 35.936 387.824C35.936 387.408 35.8613 387.013 35.712 386.64C35.5733 386.267 35.3707 385.936 35.104 385.648C34.848 385.36 34.544 385.136 34.192 384.976C33.8507 384.805 33.4773 384.72 33.072 384.72C32.816 384.72 32.5493 384.768 32.272 384.864C32.0053 384.96 31.7493 385.099 31.504 385.28C31.2587 385.451 31.0507 385.648 30.88 385.872C30.7093 386.096 30.5973 386.336 30.544 386.592V388.976C30.704 389.339 30.9173 389.669 31.184 389.968C31.4507 390.267 31.76 390.507 32.112 390.688C32.464 390.859 32.8267 390.944 33.2 390.944ZM42.7528 392.16C42.1234 392.16 41.5528 392.048 41.0408 391.824C40.5288 391.589 40.0861 391.275 39.7128 390.88C39.3394 390.475 39.0514 390.011 38.8488 389.488C38.6461 388.965 38.5448 388.416 38.5448 387.84C38.5448 387.253 38.6461 386.699 38.8488 386.176C39.0514 385.653 39.3394 385.195 39.7128 384.8C40.0861 384.395 40.5288 384.08 41.0408 383.856C41.5634 383.621 42.1341 383.504 42.7528 383.504C43.3821 383.504 43.9528 383.621 44.4648 383.856C44.9768 384.08 45.4194 384.395 45.7928 384.8C46.1768 385.195 46.4701 385.653 46.6728 386.176C46.8754 386.699 46.9768 387.253 46.9768 387.84C46.9768 388.416 46.8754 388.965 46.6728 389.488C46.4701 390.011 46.1821 390.475 45.8088 390.88C45.4354 391.275 44.9874 391.589 44.4648 391.824C43.9528 392.048 43.3821 392.16 42.7528 392.16ZM39.9848 387.856C39.9848 388.432 40.1074 388.955 40.3528 389.424C40.6088 389.893 40.9448 390.267 41.3608 390.544C41.7768 390.811 42.2408 390.944 42.7528 390.944C43.2648 390.944 43.7288 390.805 44.1448 390.528C44.5714 390.251 44.9074 389.877 45.1528 389.408C45.4088 388.928 45.5368 388.4 45.5368 387.824C45.5368 387.248 45.4088 386.725 45.1528 386.256C44.9074 385.787 44.5714 385.413 44.1448 385.136C43.7288 384.859 43.2648 384.72 42.7528 384.72C42.2408 384.72 41.7768 384.864 41.3608 385.152C40.9448 385.429 40.6088 385.803 40.3528 386.272C40.1074 386.741 39.9848 387.269 39.9848 387.856ZM51.5469 392.16C50.8535 392.16 50.2029 392.048 49.5949 391.824C48.9869 391.589 48.4642 391.243 48.0269 390.784L48.5709 389.792C49.0509 390.24 49.5309 390.56 50.0109 390.752C50.4909 390.944 50.9815 391.04 51.4829 391.04C52.0589 391.04 52.5282 390.933 52.8909 390.72C53.2535 390.496 53.4349 390.171 53.4349 389.744C53.4349 389.435 53.3389 389.205 53.1469 389.056C52.9655 388.907 52.7042 388.784 52.3629 388.688C52.0215 388.581 51.6162 388.464 51.1469 388.336C50.5709 388.165 50.0855 387.984 49.6909 387.792C49.2962 387.6 48.9975 387.36 48.7949 387.072C48.5922 386.784 48.4909 386.421 48.4909 385.984C48.4909 385.451 48.6295 385.003 48.9069 384.64C49.1842 384.267 49.5629 383.984 50.0429 383.792C50.5335 383.6 51.0882 383.504 51.7069 383.504C52.3255 383.504 52.8855 383.6 53.3869 383.792C53.8882 383.984 54.3202 384.267 54.6829 384.64L54.0429 385.616C53.7122 385.275 53.3495 385.024 52.9549 384.864C52.5602 384.693 52.1175 384.608 51.6269 384.608C51.3389 384.608 51.0562 384.645 50.7789 384.72C50.5015 384.784 50.2722 384.907 50.0909 385.088C49.9095 385.259 49.8189 385.504 49.8189 385.824C49.8189 386.091 49.8882 386.304 50.0269 386.464C50.1762 386.613 50.3895 386.741 50.6669 386.848C50.9549 386.955 51.3015 387.072 51.7069 387.2C52.3362 387.381 52.8802 387.563 53.3389 387.744C53.8082 387.925 54.1709 388.16 54.4269 388.448C54.6829 388.736 54.8109 389.136 54.8109 389.648C54.8109 390.437 54.5122 391.056 53.9149 391.504C53.3175 391.941 52.5282 392.16 51.5469 392.16ZM56.4954 392V383.648H57.9034V392H56.4954ZM56.4954 382.08V380.32H57.9034V382.08H56.4954ZM64.5029 391.584C64.3855 391.637 64.2255 391.707 64.0229 391.792C63.8202 391.877 63.5855 391.952 63.3189 392.016C63.0522 392.08 62.7695 392.112 62.4709 392.112C62.1295 392.112 61.8149 392.053 61.5269 391.936C61.2389 391.808 61.0095 391.616 60.8389 391.36C60.6682 391.093 60.5829 390.763 60.5829 390.368V384.752H59.4469V383.648H60.5829V380.864H61.9909V383.648H63.8629V384.752H61.9909V389.936C62.0122 390.235 62.1135 390.459 62.2949 390.608C62.4762 390.747 62.6895 390.816 62.9349 390.816C63.2122 390.816 63.4682 390.768 63.7029 390.672C63.9375 390.576 64.0922 390.507 64.1669 390.464L64.5029 391.584ZM65.8079 392V383.648H67.2159V392H65.8079ZM65.8079 382.08V380.32H67.2159V382.08H65.8079ZM71.8954 392L68.6154 383.648H70.0874L72.7114 390.656L75.3354 383.648H76.7114L73.4314 392H71.8954ZM81.5351 392.16C80.9058 392.16 80.3298 392.048 79.8071 391.824C79.2951 391.589 78.8471 391.275 78.4631 390.88C78.0898 390.475 77.7965 390.011 77.5831 389.488C77.3805 388.965 77.2791 388.411 77.2791 387.824C77.2791 387.035 77.4605 386.315 77.8231 385.664C78.1858 385.013 78.6871 384.491 79.3271 384.096C79.9778 383.701 80.7191 383.504 81.5511 383.504C82.3938 383.504 83.1245 383.707 83.7431 384.112C84.3725 384.507 84.8578 385.029 85.1991 385.68C85.5511 386.32 85.7271 387.013 85.7271 387.76C85.7271 387.867 85.7218 387.973 85.7111 388.08C85.7111 388.176 85.7058 388.251 85.6951 388.304H78.7671C78.8098 388.848 78.9591 389.333 79.2151 389.76C79.4818 390.176 79.8231 390.507 80.2391 390.752C80.6551 390.987 81.1031 391.104 81.5831 391.104C82.0951 391.104 82.5751 390.976 83.0231 390.72C83.4818 390.464 83.7965 390.128 83.9671 389.712L85.1831 390.048C85.0018 390.453 84.7298 390.816 84.3671 391.136C84.0151 391.456 83.5938 391.707 83.1031 391.888C82.6231 392.069 82.1005 392.16 81.5351 392.16ZM78.7191 387.328H84.4151C84.3725 386.784 84.2178 386.304 83.9511 385.888C83.6845 385.472 83.3431 385.147 82.9271 384.912C82.5111 384.677 82.0525 384.56 81.5511 384.56C81.0605 384.56 80.6071 384.677 80.1911 384.912C79.7751 385.147 79.4338 385.472 79.1671 385.888C78.9111 386.304 78.7618 386.784 78.7191 387.328ZM87.3243 380.32H88.7323V389.84C88.7323 390.299 88.7963 390.581 88.9243 390.688C89.0523 390.795 89.2069 390.848 89.3883 390.848C89.6123 390.848 89.8256 390.827 90.0283 390.784C90.2309 390.731 90.4016 390.677 90.5403 390.624L90.7643 391.776C90.5296 391.872 90.2523 391.952 89.9323 392.016C89.6123 392.08 89.3296 392.112 89.0843 392.112C88.5403 392.112 88.1083 391.957 87.7883 391.648C87.4789 391.339 87.3243 390.907 87.3243 390.352V380.32ZM91.9575 394.272C92.0962 394.283 92.2348 394.293 92.3735 394.304C92.5122 394.325 92.6188 394.336 92.6935 394.336C92.8642 394.336 93.0135 394.277 93.1415 394.16C93.2695 394.043 93.4082 393.813 93.5575 393.472C93.7175 393.141 93.9202 392.651 94.1655 392L90.6295 383.648H92.1175L94.9335 390.576L97.4775 383.648H98.8695L94.8055 394.192C94.7095 394.437 94.5655 394.667 94.3735 394.88C94.1922 395.104 93.9575 395.28 93.6695 395.408C93.3815 395.536 93.0348 395.6 92.6295 395.6C92.5335 395.6 92.4322 395.595 92.3255 395.584C92.2295 395.573 92.1068 395.552 91.9575 395.52V394.272ZM101.46 388.624C101.46 388.24 101.503 387.888 101.588 387.568C101.684 387.248 101.828 386.96 102.02 386.704C102.223 386.437 102.484 386.203 102.804 386C102.996 385.872 103.215 385.739 103.46 385.6C103.716 385.461 103.956 385.301 104.18 385.12C104.415 384.928 104.607 384.704 104.756 384.448C104.906 384.181 104.98 383.867 104.98 383.504C104.98 383.099 104.884 382.763 104.692 382.496C104.511 382.219 104.271 382.011 103.972 381.872C103.674 381.733 103.354 381.664 103.012 381.664C102.66 381.664 102.33 381.733 102.02 381.872C101.711 382.011 101.439 382.197 101.204 382.432C100.98 382.656 100.794 382.907 100.644 383.184L99.7003 382.56C99.8923 382.123 100.159 381.749 100.5 381.44C100.852 381.131 101.247 380.896 101.684 380.736C102.122 380.576 102.575 380.496 103.044 380.496C103.439 380.496 103.823 380.56 104.196 380.688C104.58 380.805 104.922 380.992 105.22 381.248C105.53 381.504 105.775 381.824 105.956 382.208C106.138 382.592 106.228 383.045 106.228 383.568C106.228 383.973 106.175 384.32 106.068 384.608C105.962 384.896 105.812 385.147 105.62 385.36C105.439 385.573 105.226 385.76 104.98 385.92C104.735 386.08 104.479 386.235 104.212 386.384C103.956 386.523 103.706 386.677 103.46 386.848C103.226 387.019 103.028 387.243 102.868 387.52C102.719 387.787 102.644 388.155 102.644 388.624H101.46ZM101.492 392V390.144H102.676V392H101.492Z" fill="white"/>
    <defs>
        <linearGradient id="paint0_linear_20_261" x1="386" y1="0" x2="-54.3265" y2="281.403" gradientUnits="userSpaceOnUse">
            <stop stop-color="#FFEACC"/>
            <stop offset="1" stop-color="#FFCDEC"/>
        </linearGradient>
        <clipPath id="clip0_20_261">
            <rect width="386" height="413" rx="20" fill="white"/>
        </clipPath>
    </defs>
</svg>
