<svg width="386" height="413" viewBox="0 0 386 413" fill="none" xmlns="http://www.w3.org/2000/svg">
    <g clip-path="url(#clip0_20_262)">
        <rect width="386" height="413" rx="20" fill="url(#paint0_linear_20_262)"/>
        <path opacity="0.3" d="M150.346 45.9573C142.631 52.4645 132.479 51.0936 123.203 50.1411C113.924 49.1931 103.338 49.5447 97.0481 58.1171C92.0451 64.9359 90.4345 76.1788 83.5251 79.4947C76.0811 83.0643 67.9067 74.6121 60.0957 76.6016C55.7163 77.7188 52.2777 81.956 49.6871 86.5048C47.0965 91.0536 45.0654 96.1232 42.0329 100.222C36.6094 107.557 28.3139 111.056 20.3283 110.526C12.3463 109.997 4.70639 105.724 -1.60438 99.5949C-16.9305 84.7156 -24.3174 57.2759 -17.4187 34.6165C-13.7698 22.6258 -6.6074 12.6291 1.80934 5.27624C10.2261 -2.07661 19.8757 -6.95033 29.6893 -10.7425C49.8902 -18.5493 71.1708 -21.981 92.2981 -20.8415C104.2 -20.2006 116.187 -18.0731 127.226 -12.4739C131.759 -10.1772 136.099 -7.27524 140.101 -3.7546C144.113 -0.225048 147.402 3.99439 150.777 8.39631C152.936 11.2137 155.73 13.7151 157.287 17.1601C159.037 21.0235 158.884 26.231 158.249 30.4504C157.316 36.6149 154.54 42.4189 150.346 45.9573Z" fill="#5353C9" fill-opacity="0.7"/>
        <path opacity="0.3" d="M-9.0304 268.124C-3.07684 249.093 4.72669 230.807 14.2271 213.78C22.9404 198.178 33.2505 183.316 46.1928 172.079C58.2985 161.56 72.5267 154.724 87.8047 154.395C90.5618 154.326 93.3459 154.49 96.0888 154.864C95.4839 152.048 95.0683 149.196 94.8293 146.355C91.8973 109.83 119.966 82.3464 148.057 73.4889C183.587 62.2855 220.248 73.5997 256.06 76.1552C287.571 78.4018 319.342 71.94 347.862 56.1393C361.964 48.3288 375.123 38.2883 386.692 26.1485C399.675 12.5317 410.171 -3.74482 419.173 -21.0354C437.742 -56.6559 450.578 -96.2811 472.795 -129.328C491.819 -157.622 518.881 -180.693 551.001 -182.105C558.131 -182.408 565.068 -181.436 571.941 -179.282C574.207 -178.578 572.938 -174.638 570.691 -175.352C541.464 -184.536 510.933 -169.606 489.61 -146.679C464.539 -119.712 450.21 -82.9432 434.764 -48.4156C420.158 -15.7931 403.512 15.5169 377.856 38.1419C355.638 57.7197 329.127 70.4984 301.628 76.156C287.322 79.1054 272.76 80.0003 258.255 79.1241C240.35 78.0363 222.642 74.6589 204.807 72.7522C173.035 69.3619 137.36 71.4194 113.49 99.0898C102.879 111.398 95.9257 128.247 97.3474 145.839C97.6017 149.013 98.1136 152.175 98.8462 155.295C109.384 157.29 119.427 162.572 126.922 171.544C130.239 175.516 134.867 183.295 130.866 188.605C126.653 194.201 118.37 188.719 114.246 185.632C105.705 179.215 99.7602 168.986 96.7817 157.798C85.158 156.001 73.0832 158.333 62.4502 163.985C48.2715 171.527 36.5562 184.045 26.8844 197.98C16.5965 212.815 8.09627 229.406 1.13089 246.578C-13.0498 281.574 -20.7079 320.028 -21.2367 358.628C-21.3741 368.603 -21.0133 378.618 -20.3056 388.567C-20.2456 389.346 -21.277 389.564 -21.3643 388.775C-25.6869 348.294 -21.023 306.447 -9.0304 268.124ZM118.037 184.778C120.655 186.398 125.951 189.8 128.669 186.979C132.275 183.251 127.293 176.12 125.044 173.407C119.94 167.232 113.36 162.874 106.338 160.271C104.148 159.456 101.92 158.835 99.6725 158.345C102.869 169.335 109.07 179.225 118.037 184.778Z" fill="white"/>
        <path opacity="0.3" d="M284.268 293.261C286.07 299.085 288.286 304.762 290.845 310.208C296.077 321.364 302.653 331.599 310.03 340.994C317.936 351.064 326.7 360.18 335.835 368.752C344.098 376.502 352.848 383.545 360.954 391.492C366.558 396.988 371.776 403.059 375.665 410.151C368.531 391.904 356.994 376.65 344.256 362.994C329.102 346.753 312.175 332.389 299.136 313.697C295.434 308.382 292.088 302.755 289.158 296.831C286.241 290.941 283.382 284.77 281.109 278.485C281.538 283.52 282.781 288.473 284.268 293.261ZM353.691 354.092C347.329 344.499 339.924 335.828 331.646 328.407C321.996 319.768 311.36 312.693 301.71 304.055C295.848 298.806 290.258 292.932 285.727 286.152C286.87 288.703 288.014 291.237 289.243 293.721C292.103 299.464 295.248 305.025 298.779 310.241C305.198 319.735 312.618 328.275 320.324 336.404C335.435 352.331 351.79 366.975 364.342 385.815C368.917 392.693 372.948 400.098 375.922 408.029C371.676 388.563 364.356 370.151 353.691 354.092ZM301.581 188.777C305.57 209.081 311.588 228.843 319.437 247.6C335.277 285.445 360.539 317.531 373.12 357.267C374.607 361.973 375.893 366.778 376.966 371.648C376.294 366.186 375.536 360.739 374.635 355.293C371.476 336.107 367.287 317.218 362.026 298.641C351.332 260.813 336.993 224.515 321.467 189.023C317.064 178.953 312.561 168.949 308.014 158.978C303.997 150.159 299.58 141.454 295.891 132.421C296.234 151.426 297.921 170.15 301.581 188.777ZM381.169 389.88C382.126 378.691 382.741 367.469 382.756 356.198C382.784 334.232 380.511 312.446 375.55 291.237C370.604 270.11 363.999 249.312 356.893 229.024C350.189 209.871 342.454 191.08 332.447 173.886C322.725 157.185 310.759 142.096 296.406 130.562C300.652 138.591 304.283 147.115 308.072 155.424C312.103 164.227 316.106 173.063 320.023 181.932C327.972 199.883 335.649 218.016 342.74 236.461C356.579 272.43 368.402 309.863 375.45 348.432C377.952 362.023 380.011 375.927 381.169 389.88Z" fill="white"/>
        <path d="M23 28.12C22.48 28.12 21.992 28.036 21.536 27.868C21.08 27.692 20.688 27.432 20.36 27.088L20.768 26.344C21.128 26.68 21.488 26.92 21.848 27.064C22.208 27.208 22.576 27.28 22.952 27.28C23.384 27.28 23.736 27.2 24.008 27.04C24.28 26.872 24.416 26.628 24.416 26.308C24.416 26.076 24.344 25.904 24.2 25.792C24.064 25.68 23.868 25.588 23.612 25.516C23.356 25.436 23.052 25.348 22.7 25.252C22.268 25.124 21.904 24.988 21.608 24.844C21.312 24.7 21.088 24.52 20.936 24.304C20.784 24.088 20.708 23.816 20.708 23.488C20.708 23.088 20.812 22.752 21.02 22.48C21.228 22.2 21.512 21.988 21.872 21.844C22.24 21.7 22.656 21.628 23.12 21.628C23.584 21.628 24.004 21.7 24.38 21.844C24.756 21.988 25.08 22.2 25.352 22.48L24.872 23.212C24.624 22.956 24.352 22.768 24.056 22.648C23.76 22.52 23.428 22.456 23.06 22.456C22.844 22.456 22.632 22.484 22.424 22.54C22.216 22.588 22.044 22.68 21.908 22.816C21.772 22.944 21.704 23.128 21.704 23.368C21.704 23.568 21.756 23.728 21.86 23.848C21.972 23.96 22.132 24.056 22.34 24.136C22.556 24.216 22.816 24.304 23.12 24.4C23.592 24.536 24 24.672 24.344 24.808C24.696 24.944 24.968 25.12 25.16 25.336C25.352 25.552 25.448 25.852 25.448 26.236C25.448 26.828 25.224 27.292 24.776 27.628C24.328 27.956 23.736 28.12 23 28.12ZM29.9514 27.688C29.8634 27.728 29.7434 27.78 29.5914 27.844C29.4394 27.908 29.2634 27.964 29.0634 28.012C28.8634 28.06 28.6514 28.084 28.4274 28.084C28.1714 28.084 27.9354 28.04 27.7194 27.952C27.5034 27.856 27.3314 27.712 27.2034 27.52C27.0754 27.32 27.0114 27.072 27.0114 26.776V22.564H26.1594V21.736H27.0114V19.648H28.0674V21.736H29.4714V22.564H28.0674V26.452C28.0834 26.676 28.1594 26.844 28.2954 26.956C28.4314 27.06 28.5914 27.112 28.7754 27.112C28.9834 27.112 29.1754 27.076 29.3514 27.004C29.5274 26.932 29.6434 26.88 29.6994 26.848L29.9514 27.688ZM33.5841 28.12C33.1121 28.12 32.6841 28.036 32.3001 27.868C31.9161 27.692 31.5841 27.456 31.3041 27.16C31.0241 26.856 30.8081 26.508 30.6561 26.116C30.5041 25.724 30.4281 25.312 30.4281 24.88C30.4281 24.44 30.5041 24.024 30.6561 23.632C30.8081 23.24 31.0241 22.896 31.3041 22.6C31.5841 22.296 31.9161 22.06 32.3001 21.892C32.6921 21.716 33.1201 21.628 33.5841 21.628C34.0561 21.628 34.4841 21.716 34.8681 21.892C35.2521 22.06 35.5841 22.296 35.8641 22.6C36.1521 22.896 36.3721 23.24 36.5241 23.632C36.6761 24.024 36.7521 24.44 36.7521 24.88C36.7521 25.312 36.6761 25.724 36.5241 26.116C36.3721 26.508 36.1561 26.856 35.8761 27.16C35.5961 27.456 35.2601 27.692 34.8681 27.868C34.4841 28.036 34.0561 28.12 33.5841 28.12ZM31.5081 24.892C31.5081 25.324 31.6001 25.716 31.7841 26.068C31.9761 26.42 32.2281 26.7 32.5401 26.908C32.8521 27.108 33.2001 27.208 33.5841 27.208C33.9681 27.208 34.3161 27.104 34.6281 26.896C34.9481 26.688 35.2001 26.408 35.3841 26.056C35.5761 25.696 35.6721 25.3 35.6721 24.868C35.6721 24.436 35.5761 24.044 35.3841 23.692C35.2001 23.34 34.9481 23.06 34.6281 22.852C34.3161 22.644 33.9681 22.54 33.5841 22.54C33.2001 22.54 32.8521 22.648 32.5401 22.864C32.2281 23.072 31.9761 23.352 31.7841 23.704C31.6001 24.056 31.5081 24.452 31.5081 24.892ZM41.3437 22.66C40.8157 22.668 40.3477 22.804 39.9397 23.068C39.5397 23.324 39.2557 23.68 39.0877 24.136V28H38.0317V21.736H39.0157V23.188C39.2317 22.756 39.5157 22.408 39.8677 22.144C40.2277 21.872 40.6037 21.72 40.9957 21.688C41.0757 21.688 41.1437 21.688 41.1997 21.688C41.2557 21.688 41.3037 21.692 41.3437 21.7V22.66ZM42.6791 29.704C42.7831 29.712 42.8871 29.72 42.9911 29.728C43.0951 29.744 43.1751 29.752 43.2311 29.752C43.3591 29.752 43.4711 29.708 43.5671 29.62C43.6631 29.532 43.7671 29.36 43.8791 29.104C43.9991 28.856 44.1511 28.488 44.3351 28L41.6831 21.736H42.7991L44.9111 26.932L46.8191 21.736H47.8631L44.8151 29.644C44.7431 29.828 44.6351 30 44.4911 30.16C44.3551 30.328 44.1791 30.46 43.9631 30.556C43.7471 30.652 43.4871 30.7 43.1831 30.7C43.1111 30.7 43.0351 30.696 42.9551 30.688C42.8831 30.68 42.7911 30.664 42.6791 30.64V29.704Z" fill="#FFEACC"/>
        <rect x="10.5" y="10.5" width="48" height="27" rx="13.5" stroke="#FFEACC"/>
    </g>
    <rect x="10" y="343" width="231" height="60" rx="20" fill="#5353C9"/>
    <path d="M23.792 367.64L27.232 373.56L30.704 367.64H32.272L27.952 374.856V379H26.512V374.824L22.208 367.64H23.792ZM35.8153 379.16C35.1859 379.16 34.6153 379.048 34.1033 378.824C33.5913 378.589 33.1486 378.275 32.7753 377.88C32.4019 377.475 32.1139 377.011 31.9113 376.488C31.7086 375.965 31.6073 375.416 31.6073 374.84C31.6073 374.253 31.7086 373.699 31.9113 373.176C32.1139 372.653 32.4019 372.195 32.7753 371.8C33.1486 371.395 33.5913 371.08 34.1033 370.856C34.6259 370.621 35.1966 370.504 35.8153 370.504C36.4446 370.504 37.0153 370.621 37.5273 370.856C38.0393 371.08 38.4819 371.395 38.8553 371.8C39.2393 372.195 39.5326 372.653 39.7353 373.176C39.9379 373.699 40.0393 374.253 40.0393 374.84C40.0393 375.416 39.9379 375.965 39.7353 376.488C39.5326 377.011 39.2446 377.475 38.8713 377.88C38.4979 378.275 38.0499 378.589 37.5273 378.824C37.0153 379.048 36.4446 379.16 35.8153 379.16ZM33.0473 374.856C33.0473 375.432 33.1699 375.955 33.4153 376.424C33.6713 376.893 34.0073 377.267 34.4233 377.544C34.8393 377.811 35.3033 377.944 35.8153 377.944C36.3273 377.944 36.7913 377.805 37.2073 377.528C37.6339 377.251 37.9699 376.877 38.2153 376.408C38.4713 375.928 38.5993 375.4 38.5993 374.824C38.5993 374.248 38.4713 373.725 38.2153 373.256C37.9699 372.787 37.6339 372.413 37.2073 372.136C36.7913 371.859 36.3273 371.72 35.8153 371.72C35.3033 371.72 34.8393 371.864 34.4233 372.152C34.0073 372.429 33.6713 372.803 33.4153 373.272C33.1699 373.741 33.0473 374.269 33.0473 374.856ZM45.0734 379.096C44.508 379.096 43.9854 378.984 43.5054 378.76C43.036 378.525 42.6307 378.211 42.2894 377.816C41.948 377.411 41.6814 376.952 41.4894 376.44C41.308 375.928 41.2174 375.395 41.2174 374.84C41.2174 374.253 41.308 373.699 41.4894 373.176C41.6814 372.653 41.948 372.195 42.2894 371.8C42.6414 371.395 43.052 371.08 43.5214 370.856C43.9907 370.621 44.5134 370.504 45.0894 370.504C45.7827 370.504 46.3854 370.675 46.8974 371.016C47.42 371.357 47.8574 371.789 48.2094 372.312V370.648H49.4574V378.904C49.4574 379.693 49.2654 380.36 48.8814 380.904C48.508 381.448 47.996 381.859 47.3454 382.136C46.7054 382.424 45.9907 382.568 45.2014 382.568C44.2627 382.568 43.4947 382.403 42.8974 382.072C42.3 381.741 41.804 381.293 41.4094 380.728L42.2254 380.008C42.556 380.499 42.9827 380.867 43.5054 381.112C44.0387 381.357 44.604 381.48 45.2014 381.48C45.7134 381.48 46.1827 381.384 46.6094 381.192C47.0467 381.011 47.3934 380.728 47.6494 380.344C47.916 379.96 48.0494 379.48 48.0494 378.904V377.432C47.74 377.944 47.3134 378.349 46.7694 378.648C46.236 378.947 45.6707 379.096 45.0734 379.096ZM45.5054 377.944C45.804 377.944 46.092 377.891 46.3694 377.784C46.6467 377.677 46.9027 377.539 47.1374 377.368C47.372 377.187 47.5694 376.984 47.7294 376.76C47.8894 376.536 47.996 376.307 48.0494 376.072V373.672C47.9 373.288 47.6867 372.952 47.4094 372.664C47.132 372.365 46.8174 372.136 46.4654 371.976C46.1134 371.805 45.7507 371.72 45.3774 371.72C44.9507 371.72 44.5667 371.811 44.2254 371.992C43.8947 372.173 43.612 372.419 43.3774 372.728C43.1427 373.027 42.9614 373.363 42.8334 373.736C42.7054 374.109 42.6414 374.488 42.6414 374.872C42.6414 375.288 42.716 375.683 42.8654 376.056C43.0147 376.419 43.2174 376.744 43.4734 377.032C43.7294 377.32 44.0334 377.544 44.3854 377.704C44.7374 377.864 45.1107 377.944 45.5054 377.944ZM51.0738 376.584C51.0738 376.051 51.2231 375.592 51.5218 375.208C51.8311 374.813 52.2524 374.509 52.7858 374.296C53.3191 374.083 53.9378 373.976 54.6418 373.976C55.0151 373.976 55.4098 374.008 55.8258 374.072C56.2418 374.125 56.6098 374.211 56.9298 374.328V373.72C56.9298 373.08 56.7378 372.579 56.3538 372.216C55.9698 371.843 55.4258 371.656 54.7218 371.656C54.2631 371.656 53.8204 371.741 53.3938 371.912C52.9778 372.072 52.5351 372.307 52.0658 372.616L51.5538 371.624C52.0978 371.251 52.6418 370.973 53.1858 370.792C53.7298 370.6 54.2951 370.504 54.8818 370.504C55.9484 370.504 56.7911 370.803 57.4098 371.4C58.0284 371.987 58.3378 372.808 58.3378 373.864V377.4C58.3378 377.571 58.3698 377.699 58.4338 377.784C58.5084 377.859 58.6258 377.901 58.7858 377.912V379C58.6471 379.021 58.5244 379.037 58.4178 379.048C58.3218 379.059 58.2418 379.064 58.1778 379.064C57.8471 379.064 57.5964 378.973 57.4258 378.792C57.2658 378.611 57.1751 378.419 57.1538 378.216L57.1218 377.688C56.7591 378.157 56.2844 378.52 55.6978 378.776C55.1111 379.032 54.5298 379.16 53.9538 379.16C53.3991 379.16 52.9031 379.048 52.4658 378.824C52.0284 378.589 51.6871 378.28 51.4418 377.896C51.1964 377.501 51.0738 377.064 51.0738 376.584ZM56.5138 377.176C56.6418 377.027 56.7431 376.877 56.8178 376.728C56.8924 376.568 56.9298 376.435 56.9298 376.328V375.288C56.5991 375.16 56.2524 375.064 55.8898 375C55.5271 374.925 55.1698 374.888 54.8177 374.888C54.1031 374.888 53.5218 375.032 53.0738 375.32C52.6364 375.597 52.4178 375.981 52.4178 376.472C52.4178 376.739 52.4871 377 52.6258 377.256C52.7751 377.501 52.9884 377.704 53.2658 377.864C53.5538 378.024 53.9058 378.104 54.3218 378.104C54.7591 378.104 55.1751 378.019 55.5698 377.848C55.9644 377.667 56.2791 377.443 56.5138 377.176ZM68.956 378.584C68.8387 378.637 68.6787 378.707 68.476 378.792C68.2733 378.877 68.0387 378.952 67.772 379.016C67.5053 379.08 67.2227 379.112 66.924 379.112C66.5827 379.112 66.268 379.053 65.98 378.936C65.692 378.808 65.4627 378.616 65.292 378.36C65.1213 378.093 65.036 377.763 65.036 377.368V371.752H63.9V370.648H65.036V367.864H66.444V370.648H68.316V371.752H66.444V376.936C66.4653 377.235 66.5667 377.459 66.748 377.608C66.9293 377.747 67.1427 377.816 67.388 377.816C67.6653 377.816 67.9213 377.768 68.156 377.672C68.3907 377.576 68.5453 377.507 68.62 377.464L68.956 378.584ZM73.7996 379.16C73.1703 379.16 72.5996 379.048 72.0876 378.824C71.5756 378.589 71.133 378.275 70.7596 377.88C70.3863 377.475 70.0983 377.011 69.8956 376.488C69.693 375.965 69.5916 375.416 69.5916 374.84C69.5916 374.253 69.693 373.699 69.8956 373.176C70.0983 372.653 70.3863 372.195 70.7596 371.8C71.133 371.395 71.5756 371.08 72.0876 370.856C72.6103 370.621 73.181 370.504 73.7996 370.504C74.429 370.504 74.9996 370.621 75.5116 370.856C76.0236 371.08 76.4663 371.395 76.8396 371.8C77.2236 372.195 77.517 372.653 77.7196 373.176C77.9223 373.699 78.0236 374.253 78.0236 374.84C78.0236 375.416 77.9223 375.965 77.7196 376.488C77.517 377.011 77.229 377.475 76.8556 377.88C76.4823 378.275 76.0343 378.589 75.5116 378.824C74.9996 379.048 74.429 379.16 73.7996 379.16ZM71.0316 374.856C71.0316 375.432 71.1543 375.955 71.3996 376.424C71.6556 376.893 71.9916 377.267 72.4076 377.544C72.8236 377.811 73.2876 377.944 73.7996 377.944C74.3116 377.944 74.7756 377.805 75.1916 377.528C75.6183 377.251 75.9543 376.877 76.1996 376.408C76.4556 375.928 76.5836 375.4 76.5836 374.824C76.5836 374.248 76.4556 373.725 76.1996 373.256C75.9543 372.787 75.6183 372.413 75.1916 372.136C74.7756 371.859 74.3116 371.72 73.7996 371.72C73.2876 371.72 72.8236 371.864 72.4076 372.152C71.9916 372.429 71.6556 372.803 71.3996 373.272C71.1543 373.741 71.0316 374.269 71.0316 374.856ZM88.1926 371.88C87.4886 371.891 86.8646 372.072 86.3206 372.424C85.7873 372.765 85.4086 373.24 85.1846 373.848V379H83.7766V370.648H85.0886V372.584C85.3766 372.008 85.7553 371.544 86.2246 371.192C86.7046 370.829 87.206 370.627 87.7286 370.584C87.8353 370.584 87.926 370.584 88.0006 370.584C88.0753 370.584 88.1393 370.589 88.1926 370.6V371.88ZM93.082 379.16C92.4527 379.16 91.8767 379.048 91.354 378.824C90.842 378.589 90.394 378.275 90.01 377.88C89.6367 377.475 89.3433 377.011 89.13 376.488C88.9273 375.965 88.826 375.411 88.826 374.824C88.826 374.035 89.0073 373.315 89.37 372.664C89.7327 372.013 90.234 371.491 90.874 371.096C91.5247 370.701 92.266 370.504 93.098 370.504C93.9407 370.504 94.6713 370.707 95.29 371.112C95.9193 371.507 96.4047 372.029 96.746 372.68C97.098 373.32 97.274 374.013 97.274 374.76C97.274 374.867 97.2687 374.973 97.258 375.08C97.258 375.176 97.2527 375.251 97.242 375.304H90.314C90.3567 375.848 90.506 376.333 90.762 376.76C91.0287 377.176 91.37 377.507 91.786 377.752C92.202 377.987 92.65 378.104 93.13 378.104C93.642 378.104 94.122 377.976 94.57 377.72C95.0287 377.464 95.3433 377.128 95.514 376.712L96.73 377.048C96.5487 377.453 96.2767 377.816 95.914 378.136C95.562 378.456 95.1407 378.707 94.65 378.888C94.17 379.069 93.6473 379.16 93.082 379.16ZM90.266 374.328H95.962C95.9193 373.784 95.7647 373.304 95.498 372.888C95.2313 372.472 94.89 372.147 94.474 371.912C94.058 371.677 93.5993 371.56 93.098 371.56C92.6073 371.56 92.154 371.677 91.738 371.912C91.322 372.147 90.9807 372.472 90.714 372.888C90.458 373.304 90.3087 373.784 90.266 374.328ZM98.2951 374.84C98.2951 374.051 98.4551 373.331 98.7751 372.68C99.1058 372.019 99.5538 371.491 100.119 371.096C100.695 370.701 101.351 370.504 102.087 370.504C102.759 370.504 103.362 370.68 103.895 371.032C104.428 371.384 104.844 371.811 105.143 372.312V367.32H106.551V377.4C106.551 377.571 106.583 377.699 106.647 377.784C106.722 377.859 106.839 377.901 106.999 377.912V379C106.732 379.043 106.524 379.064 106.375 379.064C106.098 379.064 105.852 378.968 105.639 378.776C105.436 378.584 105.335 378.371 105.335 378.136V377.432C105.004 377.965 104.562 378.387 104.007 378.696C103.452 379.005 102.876 379.16 102.279 379.16C101.703 379.16 101.17 379.048 100.679 378.824C100.199 378.589 99.7778 378.269 99.4151 377.864C99.0631 377.459 98.7858 377 98.5831 376.488C98.3911 375.965 98.2951 375.416 98.2951 374.84ZM105.143 376.072V373.672C105.015 373.309 104.807 372.984 104.519 372.696C104.231 372.397 103.906 372.163 103.543 371.992C103.191 371.811 102.839 371.72 102.487 371.72C102.071 371.72 101.692 371.811 101.351 371.992C101.02 372.163 100.732 372.397 100.487 372.696C100.252 372.984 100.071 373.315 99.9431 373.688C99.8151 374.061 99.7511 374.451 99.7511 374.856C99.7511 375.272 99.8205 375.667 99.9591 376.04C100.108 376.413 100.311 376.744 100.567 377.032C100.834 377.32 101.138 377.544 101.479 377.704C101.831 377.864 102.21 377.944 102.615 377.944C102.871 377.944 103.132 377.896 103.399 377.8C103.676 377.704 103.938 377.571 104.183 377.4C104.428 377.229 104.636 377.032 104.807 376.808C104.978 376.573 105.09 376.328 105.143 376.072ZM108.822 375.656V370.648H110.23V375.384C110.23 376.237 110.379 376.877 110.678 377.304C110.976 377.731 111.419 377.944 112.006 377.944C112.39 377.944 112.758 377.864 113.11 377.704C113.472 377.533 113.798 377.293 114.086 376.984C114.374 376.675 114.598 376.307 114.758 375.88V370.648H116.166V377.4C116.166 377.571 116.198 377.699 116.262 377.784C116.336 377.859 116.454 377.901 116.614 377.912V379C116.454 379.021 116.326 379.032 116.23 379.032C116.144 379.043 116.059 379.048 115.974 379.048C115.707 379.048 115.478 378.968 115.286 378.808C115.094 378.637 114.992 378.429 114.982 378.184L114.95 377.208C114.587 377.827 114.096 378.307 113.478 378.648C112.87 378.989 112.203 379.16 111.478 379.16C110.603 379.16 109.942 378.867 109.494 378.28C109.046 377.683 108.822 376.808 108.822 375.656ZM122.207 379.16C121.578 379.16 121.002 379.048 120.479 378.824C119.967 378.589 119.519 378.269 119.135 377.864C118.762 377.459 118.468 376.995 118.255 376.472C118.052 375.949 117.951 375.395 117.951 374.808C117.951 374.019 118.127 373.299 118.479 372.648C118.831 371.997 119.327 371.48 119.967 371.096C120.607 370.701 121.348 370.504 122.191 370.504C123.012 370.504 123.727 370.691 124.335 371.064C124.954 371.427 125.412 371.917 125.711 372.536L124.335 372.968C124.122 372.573 123.823 372.269 123.439 372.056C123.055 371.832 122.628 371.72 122.159 371.72C121.647 371.72 121.178 371.853 120.751 372.12C120.335 372.387 120.004 372.755 119.759 373.224C119.514 373.683 119.391 374.211 119.391 374.808C119.391 375.395 119.514 375.928 119.759 376.408C120.015 376.877 120.351 377.251 120.767 377.528C121.194 377.805 121.663 377.944 122.175 377.944C122.506 377.944 122.82 377.885 123.119 377.768C123.428 377.651 123.695 377.496 123.919 377.304C124.154 377.101 124.314 376.883 124.399 376.648L125.775 377.064C125.604 377.469 125.343 377.832 124.991 378.152C124.65 378.461 124.239 378.707 123.759 378.888C123.29 379.069 122.772 379.16 122.207 379.16ZM130.988 379.16C130.359 379.16 129.783 379.048 129.26 378.824C128.748 378.589 128.3 378.275 127.916 377.88C127.543 377.475 127.25 377.011 127.036 376.488C126.834 375.965 126.732 375.411 126.732 374.824C126.732 374.035 126.914 373.315 127.276 372.664C127.639 372.013 128.14 371.491 128.78 371.096C129.431 370.701 130.172 370.504 131.004 370.504C131.847 370.504 132.578 370.707 133.196 371.112C133.826 371.507 134.311 372.029 134.652 372.68C135.004 373.32 135.18 374.013 135.18 374.76C135.18 374.867 135.175 374.973 135.164 375.08C135.164 375.176 135.159 375.251 135.148 375.304H128.22C128.263 375.848 128.412 376.333 128.668 376.76C128.935 377.176 129.276 377.507 129.692 377.752C130.108 377.987 130.556 378.104 131.036 378.104C131.548 378.104 132.028 377.976 132.476 377.72C132.935 377.464 133.25 377.128 133.42 376.712L134.636 377.048C134.455 377.453 134.183 377.816 133.82 378.136C133.468 378.456 133.047 378.707 132.556 378.888C132.076 379.069 131.554 379.16 130.988 379.16ZM128.172 374.328H133.868C133.826 373.784 133.671 373.304 133.404 372.888C133.138 372.472 132.796 372.147 132.38 371.912C131.964 371.677 131.506 371.56 131.004 371.56C130.514 371.56 130.06 371.677 129.644 371.912C129.228 372.147 128.887 372.472 128.62 372.888C128.364 373.304 128.215 373.784 128.172 374.328ZM141.24 379V371.752H140.104V370.648H141.24V370.472C141.24 369.789 141.342 369.203 141.544 368.712C141.758 368.211 142.056 367.827 142.44 367.56C142.824 367.293 143.278 367.16 143.8 367.16C144.131 367.16 144.456 367.208 144.776 367.304C145.096 367.389 145.384 367.512 145.64 367.672L145.288 368.712C145.139 368.605 144.952 368.52 144.728 368.456C144.515 368.392 144.302 368.36 144.088 368.36C143.63 368.36 143.272 368.541 143.016 368.904C142.771 369.256 142.648 369.763 142.648 370.424V370.648H144.872V371.752H142.648V379H141.24ZM145.621 376.584C145.621 376.051 145.77 375.592 146.069 375.208C146.378 374.813 146.799 374.509 147.333 374.296C147.866 374.083 148.485 373.976 149.189 373.976C149.562 373.976 149.957 374.008 150.373 374.072C150.789 374.125 151.157 374.211 151.477 374.328V373.72C151.477 373.08 151.285 372.579 150.901 372.216C150.517 371.843 149.973 371.656 149.269 371.656C148.81 371.656 148.367 371.741 147.941 371.912C147.525 372.072 147.082 372.307 146.613 372.616L146.101 371.624C146.645 371.251 147.189 370.973 147.733 370.792C148.277 370.6 148.842 370.504 149.429 370.504C150.495 370.504 151.338 370.803 151.957 371.4C152.575 371.987 152.885 372.808 152.885 373.864V377.4C152.885 377.571 152.917 377.699 152.981 377.784C153.055 377.859 153.173 377.901 153.333 377.912V379C153.194 379.021 153.071 379.037 152.965 379.048C152.869 379.059 152.789 379.064 152.725 379.064C152.394 379.064 152.143 378.973 151.973 378.792C151.813 378.611 151.722 378.419 151.701 378.216L151.669 377.688C151.306 378.157 150.831 378.52 150.245 378.776C149.658 379.032 149.077 379.16 148.501 379.16C147.946 379.16 147.45 379.048 147.013 378.824C146.575 378.589 146.234 378.28 145.989 377.896C145.743 377.501 145.621 377.064 145.621 376.584ZM151.061 377.176C151.189 377.027 151.29 376.877 151.365 376.728C151.439 376.568 151.477 376.435 151.477 376.328V375.288C151.146 375.16 150.799 375.064 150.437 375C150.074 374.925 149.717 374.888 149.365 374.888C148.65 374.888 148.069 375.032 147.621 375.32C147.183 375.597 146.965 375.981 146.965 376.472C146.965 376.739 147.034 377 147.173 377.256C147.322 377.501 147.535 377.704 147.813 377.864C148.101 378.024 148.453 378.104 148.869 378.104C149.306 378.104 149.722 378.019 150.117 377.848C150.511 377.667 150.826 377.443 151.061 377.176ZM159.394 378.584C159.276 378.637 159.116 378.707 158.914 378.792C158.711 378.877 158.476 378.952 158.21 379.016C157.943 379.08 157.66 379.112 157.362 379.112C157.02 379.112 156.706 379.053 156.418 378.936C156.13 378.808 155.9 378.616 155.73 378.36C155.559 378.093 155.474 377.763 155.474 377.368V371.752H154.338V370.648H155.474V367.864H156.882V370.648H158.754V371.752H156.882V376.936C156.903 377.235 157.004 377.459 157.186 377.608C157.367 377.747 157.58 377.816 157.826 377.816C158.103 377.816 158.359 377.768 158.594 377.672C158.828 377.576 158.983 377.507 159.058 377.464L159.394 378.584ZM160.699 379V370.648H162.107V379H160.699ZM160.699 369.08V367.32H162.107V369.08H160.699ZM167.714 379.096C167.149 379.096 166.626 378.984 166.146 378.76C165.677 378.525 165.271 378.211 164.93 377.816C164.589 377.411 164.322 376.952 164.13 376.44C163.949 375.928 163.858 375.395 163.858 374.84C163.858 374.253 163.949 373.699 164.13 373.176C164.322 372.653 164.589 372.195 164.93 371.8C165.282 371.395 165.693 371.08 166.162 370.856C166.631 370.621 167.154 370.504 167.73 370.504C168.423 370.504 169.026 370.675 169.538 371.016C170.061 371.357 170.498 371.789 170.85 372.312V370.648H172.098V378.904C172.098 379.693 171.906 380.36 171.522 380.904C171.149 381.448 170.637 381.859 169.986 382.136C169.346 382.424 168.631 382.568 167.842 382.568C166.903 382.568 166.135 382.403 165.538 382.072C164.941 381.741 164.445 381.293 164.05 380.728L164.866 380.008C165.197 380.499 165.623 380.867 166.146 381.112C166.679 381.357 167.245 381.48 167.842 381.48C168.354 381.48 168.823 381.384 169.25 381.192C169.687 381.011 170.034 380.728 170.29 380.344C170.557 379.96 170.69 379.48 170.69 378.904V377.432C170.381 377.944 169.954 378.349 169.41 378.648C168.877 378.947 168.311 379.096 167.714 379.096ZM168.146 377.944C168.445 377.944 168.733 377.891 169.01 377.784C169.287 377.677 169.543 377.539 169.778 377.368C170.013 377.187 170.21 376.984 170.37 376.76C170.53 376.536 170.637 376.307 170.69 376.072V373.672C170.541 373.288 170.327 372.952 170.05 372.664C169.773 372.365 169.458 372.136 169.106 371.976C168.754 371.805 168.391 371.72 168.018 371.72C167.591 371.72 167.207 371.811 166.866 371.992C166.535 372.173 166.253 372.419 166.018 372.728C165.783 373.027 165.602 373.363 165.474 373.736C165.346 374.109 165.282 374.488 165.282 374.872C165.282 375.288 165.357 375.683 165.506 376.056C165.655 376.419 165.858 376.744 166.114 377.032C166.37 377.32 166.674 377.544 167.026 377.704C167.378 377.864 167.751 377.944 168.146 377.944ZM174.29 375.656V370.648H175.698V375.384C175.698 376.237 175.848 376.877 176.146 377.304C176.445 377.731 176.888 377.944 177.474 377.944C177.858 377.944 178.226 377.864 178.578 377.704C178.941 377.533 179.266 377.293 179.554 376.984C179.842 376.675 180.066 376.307 180.226 375.88V370.648H181.634V377.4C181.634 377.571 181.666 377.699 181.73 377.784C181.805 377.859 181.922 377.901 182.082 377.912V379C181.922 379.021 181.794 379.032 181.698 379.032C181.613 379.043 181.528 379.048 181.442 379.048C181.176 379.048 180.946 378.968 180.754 378.808C180.562 378.637 180.461 378.429 180.45 378.184L180.418 377.208C180.056 377.827 179.565 378.307 178.946 378.648C178.338 378.989 177.672 379.16 176.946 379.16C176.072 379.16 175.41 378.867 174.962 378.28C174.514 377.683 174.29 376.808 174.29 375.656ZM187.676 379.16C187.046 379.16 186.47 379.048 185.948 378.824C185.436 378.589 184.988 378.275 184.604 377.88C184.23 377.475 183.937 377.011 183.724 376.488C183.521 375.965 183.42 375.411 183.42 374.824C183.42 374.035 183.601 373.315 183.964 372.664C184.326 372.013 184.828 371.491 185.468 371.096C186.118 370.701 186.86 370.504 187.692 370.504C188.534 370.504 189.265 370.707 189.884 371.112C190.513 371.507 190.998 372.029 191.34 372.68C191.692 373.32 191.868 374.013 191.868 374.76C191.868 374.867 191.862 374.973 191.852 375.08C191.852 375.176 191.846 375.251 191.836 375.304H184.908C184.95 375.848 185.1 376.333 185.356 376.76C185.622 377.176 185.964 377.507 186.38 377.752C186.796 377.987 187.244 378.104 187.724 378.104C188.236 378.104 188.716 377.976 189.164 377.72C189.622 377.464 189.937 377.128 190.108 376.712L191.324 377.048C191.142 377.453 190.87 377.816 190.508 378.136C190.156 378.456 189.734 378.707 189.244 378.888C188.764 379.069 188.241 379.16 187.676 379.16ZM184.86 374.328H190.556C190.513 373.784 190.358 373.304 190.092 372.888C189.825 372.472 189.484 372.147 189.068 371.912C188.652 371.677 188.193 371.56 187.692 371.56C187.201 371.56 186.748 371.677 186.332 371.912C185.916 372.147 185.574 372.472 185.308 372.888C185.052 373.304 184.902 373.784 184.86 374.328Z" fill="white"/>
    <defs>
        <linearGradient id="paint0_linear_20_262" x1="386" y1="0" x2="-54.3265" y2="281.403" gradientUnits="userSpaceOnUse">
            <stop stop-color="#7474DD"/>
            <stop offset="1" stop-color="#FFCDEC"/>
        </linearGradient>
        <clipPath id="clip0_20_262">
            <rect width="386" height="413" rx="20" fill="white"/>
        </clipPath>
    </defs>
</svg>
