<svg width="386" height="413" viewBox="0 0 386 413" fill="none" xmlns="http://www.w3.org/2000/svg">
    <g clip-path="url(#clip0_20_263)">
        <rect width="386" height="413" rx="20" fill="url(#paint0_linear_20_263)"/>
        <path opacity="0.3" d="M-37.5262 -20.2064C-64.1508 2.19385 -82.3643 36.3874 -55.1668 70.6984C-44.1158 84.6412 -28.5729 93.0046 -12.6412 97.5856C18.0763 106.419 51.5565 101.92 79.675 85.1933C98.9015 73.7524 116.297 55.4986 122.201 31.5714C131.287 -5.26508 110.914 -38.2135 80.074 -48.4797C53.6439 -57.2777 21.2278 -50.9934 -4.37346 -40.504C-15.2197 -36.0521 -27.0278 -29.0513 -37.5262 -20.2064Z" fill="#F7F5FF"/>
        <path opacity="0.3" d="M65.8567 159.228C90.6414 147.152 102.54 122.316 115.157 100.584C122.321 88.2394 130.058 76.0994 139.486 65.1024C148.976 54.0288 160.247 44.7689 172.857 36.8309C196.765 21.7787 223.855 10.6668 244.215 -8.82372C253.608 -17.8218 261.249 -28.5314 264.879 -40.6779C268.703 -53.4629 268.04 -67.3401 263.112 -79.7931C261.911 -82.8201 260.365 -85.7514 258.654 -88.5549C258.226 -89.2574 257.115 -88.5868 257.515 -87.8843C264.341 -75.9614 267.012 -61.9757 264.921 -48.6159C262.94 -35.9521 256.542 -24.4187 247.735 -14.6607C229.369 5.67924 203.163 17.2956 179.386 31.1855C166.886 38.4913 155.029 46.6528 145.028 56.7876C135.096 66.8458 126.931 78.2834 119.629 90.0723C112.7 101.254 106.723 112.916 99.6897 124.047C92.9673 134.68 85.1061 145.032 74.4634 152.618C51.3835 169.056 20.7254 167.773 -6.6751 164.841C-10.0501 164.477 -13.4251 164.12 -16.7932 163.737C-17.1797 163.692 -17.3109 164.235 -16.9175 164.292C10.2 168.13 40.5752 171.54 65.8567 159.228Z" fill="white"/>
        <path opacity="0.3" d="M344.665 25.6554C346.536 29.0066 348.319 32.491 349.992 35.9897C361.158 59.2719 367.782 85.3613 368.887 111.942C369.209 119.528 369.237 127.144 370.078 134.682C370.923 142.252 373.151 149.181 375.475 156.278C377.545 162.61 379.32 169.18 378.955 176.018C378.671 181.452 377.203 186.646 375.263 191.58C371.184 201.935 364.927 211.073 361.516 221.799C359.625 227.767 359.196 233.599 359.649 239.895C360.147 246.77 360.246 253.33 358.462 259.985C356.839 266.06 354.05 271.745 350.316 276.434C345.961 281.91 340.281 285.48 334.85 289.308C328.934 293.48 323.854 298.169 320.652 305.404C317.88 311.672 316.107 318.505 312.294 324.104C304.18 336.038 290.428 341.237 278.46 346.06C265.268 351.387 251.714 355.52 237.939 358.339C236.969 358.534 235.993 358.717 235.017 358.901C234.49 359.226 233.963 359.55 233.429 359.863C232.04 360.916 230.595 361.84 229.071 362.653C228.842 362.773 228.625 362.781 228.422 362.762C221.844 366.39 215.075 369.548 208.117 372.133C205.358 373.169 202.581 374.014 199.751 374.712C198.142 375.112 197.499 372.445 199.079 371.863C208.666 368.406 218.095 364.694 227.213 359.904C227.205 359.758 227.254 359.636 227.413 359.602C227.637 359.554 227.861 359.506 228.086 359.458C229.429 358.746 230.753 357.997 232.08 357.229C232.44 357.028 232.798 356.796 233.161 356.576C239.612 350.882 243.82 342.149 246.11 333.212C249.25 320.954 248.812 308.012 248.461 295.38C248.099 282.704 248.056 270.148 250.39 257.691C252.603 245.835 256.537 234.38 261.985 223.99C267.642 213.207 274.966 203.784 281.209 193.465C284.304 188.351 287.134 182.975 289.252 177.229C291.416 171.38 292.773 165.146 293.634 158.874C293.969 156.395 294.198 153.86 294.369 151.3C294.356 151.276 294.342 151.252 294.335 151.24C294.153 150.916 294.24 150.597 294.431 150.386C295.645 129.817 292.8 107.527 304.608 90.4913C311.746 80.1861 321.943 73.6894 330.533 65.2278C338.367 57.4995 345.122 47.2241 344.641 34.7567C344.533 31.9628 343.958 29.2609 342.931 26.7265C342.419 25.4751 343.98 24.4134 344.665 25.6554ZM356.518 74.3834C357.991 72.9282 359.589 71.6689 361.184 70.378C358.23 59.5329 354.308 49.0178 349.516 39.0837C350.826 52.2092 351.635 65.4183 351.984 78.6482C353.595 77.4129 355.087 75.8075 356.518 74.3834ZM369.273 138.191C368.596 133.389 368.271 128.528 368.069 123.677C367.761 116.167 367.608 108.643 366.862 101.17C366.104 93.5188 364.871 85.9156 363.206 78.4644C362.673 76.072 362.071 73.7143 361.451 71.3524C360.028 72.6855 358.601 74.0384 357.073 75.2116C355.389 76.5012 353.519 77.7761 352.003 79.3653C352.277 90.4395 352.244 101.521 351.84 112.573C351.324 127.026 350.182 141.469 348.352 155.795C349.698 154.876 350.969 153.64 352.234 152.578C357.931 147.803 363.482 142.849 369.263 138.199C369.256 138.187 369.273 138.191 369.273 138.191ZM369.889 198.478C372.236 193.768 374.464 188.926 375.83 183.707C377.425 177.635 377.514 171.513 376.212 165.339C374.77 158.521 372.202 152.117 370.608 145.344C370.165 143.48 369.815 141.598 369.503 139.704C362.489 145.63 355.235 151.157 348.187 157.024C346.592 169.219 344.51 181.335 341.813 193.279C339.694 202.701 337.2 212.011 334.329 221.176C344.541 214.125 355.306 208.295 366.783 204.519C367.832 202.495 368.878 200.49 369.889 198.478ZM353.493 266.972C356.258 261.271 357.824 254.779 357.91 248.234C358.006 241.494 356.771 234.913 357.807 228.187C359.09 219.984 362.61 212.631 366.28 205.489C355.065 210.6 343.992 216.355 333.611 223.447C328.579 239.123 322.41 254.302 314.984 268.667C311.805 274.814 308.417 280.827 304.817 286.674C308.223 285.921 311.603 284.78 314.946 283.784C319.104 282.556 323.256 281.263 327.385 279.904C335.311 277.278 343.17 274.43 350.984 271.394C351.909 269.99 352.745 268.534 353.493 266.972ZM315.885 312.173C318.242 305.72 320.508 299.37 324.995 294.443C329.751 289.231 335.774 285.931 341.198 281.802C344.553 279.251 347.53 276.266 350.029 272.77C342.606 275.633 335.133 278.329 327.615 280.838C323.579 282.179 319.547 283.501 315.492 284.755C311.606 285.968 307.603 286.894 303.776 288.318C294.728 302.769 284.405 316.163 272.915 328.114C284.709 327.606 296.512 326.853 308.308 326.19C311.628 322.184 313.962 317.451 315.885 312.173ZM269.247 331.869C259.47 341.556 248.862 350.162 237.599 357.367C247.708 354.917 257.731 351.919 267.571 348.36C274.142 345.979 280.66 343.348 287.068 340.442C293.296 337.637 299.563 334.479 304.894 329.739C305.85 328.89 306.718 327.988 307.548 327.046C295.558 327.836 283.531 328.535 271.543 329.511C270.776 330.304 270.027 331.1 269.247 331.869ZM251.091 289.098C251.405 302.03 252.357 315.151 250.129 327.954C248.679 336.332 245.826 344.821 241.204 351.635C248.38 346.863 255.268 341.525 261.803 335.666C264.161 333.551 266.462 331.36 268.725 329.128C266.02 318.726 262.737 308.688 259.147 298.657C257.377 293.7 255.59 288.738 253.948 283.719C253.031 280.933 252.052 278.09 251.225 275.202C251 279.793 250.973 284.423 251.091 289.098ZM268.828 217.443C262.51 227.733 257.605 238.959 254.597 251.085C252.969 257.623 252.011 264.223 251.499 270.881C252.736 274.892 253.776 278.999 255.079 282.995C256.754 288.126 258.557 293.195 260.359 298.264C263.826 307.996 267.51 317.854 269.756 328.07C281.832 316.006 292.634 302.306 302.042 287.416C294.587 261.112 282.132 237.141 272.289 212.006C271.118 213.814 269.947 215.622 268.828 217.443ZM288.118 186.274C283.87 194.884 278.469 202.601 273.28 210.484C282.645 235.925 294.728 259.918 302.964 285.929C305.163 282.402 307.294 278.806 309.34 275.137C318.293 259.124 325.596 241.993 331.407 224.206C331.349 224.13 331.295 224.034 331.269 223.935C329.242 217.365 325.914 211.426 322.866 205.431C319.808 199.392 316.649 193.412 313.501 187.424C307.885 176.709 302.353 165.88 296.553 155.285C295.401 166.164 292.869 176.641 288.118 186.274ZM303.508 97.4178C300.933 102.484 299.477 108.146 298.649 113.9C296.952 125.781 297.826 137.921 297.025 149.898C296.951 150.974 296.852 152.034 296.761 153.106C302.591 164.648 308.802 175.974 314.764 187.435C317.935 193.542 321.075 199.673 324.249 205.761C327.04 211.114 330 216.426 332.042 222.235C334.264 215.306 336.263 208.27 338.042 201.16C341.717 186.513 344.441 171.571 346.406 156.514C342.934 151.737 339.573 146.842 336.091 142.073L324.952 126.851C317.763 117.02 310.616 107.157 303.667 97.0955C303.638 97.202 303.565 97.3078 303.508 97.4178ZM304.525 95.5716C311.398 107.339 319.685 118.019 327.505 128.945L339.291 145.42C341.248 148.163 343.257 150.866 345.246 153.585C345.683 154.178 346.117 154.791 346.574 155.368C348.017 144.086 349.041 132.742 349.641 121.356C350.392 107.188 350.536 92.9957 350.213 78.8116C345.782 73.3031 341.819 67.259 337.291 61.8401C330.758 69.8573 322.378 75.6961 315.038 82.6991C311.087 86.4776 307.353 90.6395 304.525 95.5716ZM341.504 55.8753C340.412 57.6927 339.209 59.3895 337.947 61.0103C341.777 66.7118 346.191 71.8755 350.17 77.4486C349.854 65.0113 349.193 52.5926 348.229 40.2129C348.109 38.7378 348.005 37.2668 347.895 35.7839C347.525 35.0733 347.148 34.3508 346.767 33.648C347.603 41.36 345.379 49.4143 341.504 55.8753Z" fill="white"/>
        <rect x="10" y="343" width="231" height="60" rx="20" fill="#5353C9"/>
        <path d="M28.792 354.64L32.232 360.56L35.704 354.64H37.272L32.952 361.856V366H31.512V361.824L27.208 354.64H28.792ZM40.8153 366.16C40.1859 366.16 39.6153 366.048 39.1033 365.824C38.5913 365.589 38.1486 365.275 37.7753 364.88C37.4019 364.475 37.1139 364.011 36.9113 363.488C36.7086 362.965 36.6073 362.416 36.6073 361.84C36.6073 361.253 36.7086 360.699 36.9113 360.176C37.1139 359.653 37.4019 359.195 37.7753 358.8C38.1486 358.395 38.5913 358.08 39.1033 357.856C39.6259 357.621 40.1966 357.504 40.8153 357.504C41.4446 357.504 42.0153 357.621 42.5273 357.856C43.0393 358.08 43.4819 358.395 43.8553 358.8C44.2393 359.195 44.5326 359.653 44.7353 360.176C44.9379 360.699 45.0393 361.253 45.0393 361.84C45.0393 362.416 44.9379 362.965 44.7353 363.488C44.5326 364.011 44.2446 364.475 43.8713 364.88C43.4979 365.275 43.0499 365.589 42.5273 365.824C42.0153 366.048 41.4446 366.16 40.8153 366.16ZM38.0473 361.856C38.0473 362.432 38.1699 362.955 38.4153 363.424C38.6713 363.893 39.0073 364.267 39.4233 364.544C39.8393 364.811 40.3033 364.944 40.8153 364.944C41.3273 364.944 41.7913 364.805 42.2073 364.528C42.6339 364.251 42.9699 363.877 43.2153 363.408C43.4713 362.928 43.5993 362.4 43.5993 361.824C43.5993 361.248 43.4713 360.725 43.2153 360.256C42.9699 359.787 42.6339 359.413 42.2073 359.136C41.7913 358.859 41.3273 358.72 40.8153 358.72C40.3033 358.72 39.8393 358.864 39.4233 359.152C39.0073 359.429 38.6713 359.803 38.4153 360.272C38.1699 360.741 38.0473 361.269 38.0473 361.856ZM46.6654 362.656V357.648H48.0734V362.384C48.0734 363.237 48.2227 363.877 48.5214 364.304C48.82 364.731 49.2627 364.944 49.8494 364.944C50.2334 364.944 50.6014 364.864 50.9534 364.704C51.316 364.533 51.6414 364.293 51.9294 363.984C52.2174 363.675 52.4414 363.307 52.6014 362.88V357.648H54.0094V364.4C54.0094 364.571 54.0414 364.699 54.1054 364.784C54.18 364.859 54.2974 364.901 54.4574 364.912V366C54.2974 366.021 54.1694 366.032 54.0734 366.032C53.988 366.043 53.9027 366.048 53.8174 366.048C53.5507 366.048 53.3214 365.968 53.1294 365.808C52.9374 365.637 52.836 365.429 52.8254 365.184L52.7934 364.208C52.4307 364.827 51.94 365.307 51.3214 365.648C50.7134 365.989 50.0467 366.16 49.3214 366.16C48.4467 366.16 47.7854 365.867 47.3374 365.28C46.8894 364.683 46.6654 363.808 46.6654 362.656ZM59.7456 363.584C59.7456 363.051 59.895 362.592 60.1936 362.208C60.503 361.813 60.9243 361.509 61.4576 361.296C61.991 361.083 62.6096 360.976 63.3136 360.976C63.687 360.976 64.0816 361.008 64.4976 361.072C64.9136 361.125 65.2816 361.211 65.6016 361.328V360.72C65.6016 360.08 65.4096 359.579 65.0256 359.216C64.6416 358.843 64.0976 358.656 63.3936 358.656C62.935 358.656 62.4923 358.741 62.0656 358.912C61.6496 359.072 61.207 359.307 60.7376 359.616L60.2256 358.624C60.7696 358.251 61.3136 357.973 61.8576 357.792C62.4016 357.6 62.967 357.504 63.5536 357.504C64.6203 357.504 65.463 357.803 66.0816 358.4C66.7003 358.987 67.0096 359.808 67.0096 360.864V364.4C67.0096 364.571 67.0416 364.699 67.1056 364.784C67.1803 364.859 67.2976 364.901 67.4576 364.912V366C67.319 366.021 67.1963 366.037 67.0896 366.048C66.9936 366.059 66.9136 366.064 66.8496 366.064C66.519 366.064 66.2683 365.973 66.0976 365.792C65.9376 365.611 65.847 365.419 65.8256 365.216L65.7936 364.688C65.431 365.157 64.9563 365.52 64.3696 365.776C63.783 366.032 63.2016 366.16 62.6256 366.16C62.071 366.16 61.575 366.048 61.1376 365.824C60.7003 365.589 60.359 365.28 60.1136 364.896C59.8683 364.501 59.7456 364.064 59.7456 363.584ZM65.1856 364.176C65.3136 364.027 65.415 363.877 65.4896 363.728C65.5643 363.568 65.6016 363.435 65.6016 363.328V362.288C65.271 362.16 64.9243 362.064 64.5616 362C64.199 361.925 63.8416 361.888 63.4896 361.888C62.775 361.888 62.1936 362.032 61.7456 362.32C61.3083 362.597 61.0896 362.981 61.0896 363.472C61.0896 363.739 61.159 364 61.2976 364.256C61.447 364.501 61.6603 364.704 61.9376 364.864C62.2256 365.024 62.5776 365.104 62.9936 365.104C63.431 365.104 63.847 365.019 64.2416 364.848C64.6363 364.667 64.951 364.443 65.1856 364.176ZM73.677 358.88C72.973 358.891 72.349 359.072 71.805 359.424C71.2717 359.765 70.893 360.24 70.669 360.848V366H69.261V357.648H70.573V359.584C70.861 359.008 71.2397 358.544 71.709 358.192C72.189 357.829 72.6903 357.627 73.213 357.584C73.3197 357.584 73.4103 357.584 73.485 357.584C73.5597 357.584 73.6237 357.589 73.677 357.6V358.88ZM78.5664 366.16C77.937 366.16 77.361 366.048 76.8384 365.824C76.3264 365.589 75.8784 365.275 75.4944 364.88C75.121 364.475 74.8277 364.011 74.6144 363.488C74.4117 362.965 74.3104 362.411 74.3104 361.824C74.3104 361.035 74.4917 360.315 74.8544 359.664C75.217 359.013 75.7184 358.491 76.3584 358.096C77.009 357.701 77.7504 357.504 78.5824 357.504C79.425 357.504 80.1557 357.707 80.7744 358.112C81.4037 358.507 81.889 359.029 82.2304 359.68C82.5824 360.32 82.7584 361.013 82.7584 361.76C82.7584 361.867 82.753 361.973 82.7424 362.08C82.7424 362.176 82.737 362.251 82.7264 362.304H75.7984C75.841 362.848 75.9904 363.333 76.2464 363.76C76.513 364.176 76.8544 364.507 77.2704 364.752C77.6864 364.987 78.1344 365.104 78.6144 365.104C79.1264 365.104 79.6064 364.976 80.0544 364.72C80.513 364.464 80.8277 364.128 80.9984 363.712L82.2144 364.048C82.033 364.453 81.761 364.816 81.3984 365.136C81.0464 365.456 80.625 365.707 80.1344 365.888C79.6544 366.069 79.1317 366.16 78.5664 366.16ZM75.7504 361.328H81.4464C81.4037 360.784 81.249 360.304 80.9824 359.888C80.7157 359.472 80.3744 359.147 79.9584 358.912C79.5424 358.677 79.0837 358.56 78.5824 358.56C78.0917 358.56 77.6384 358.677 77.2224 358.912C76.8064 359.147 76.465 359.472 76.1984 359.888C75.9424 360.304 75.793 360.784 75.7504 361.328ZM95.6184 366H94.2104V361.328C94.2104 360.443 94.0717 359.797 93.7944 359.392C93.5277 358.976 93.117 358.768 92.5624 358.768C92.1784 358.768 91.7944 358.864 91.4104 359.056C91.037 359.248 90.701 359.509 90.4024 359.84C90.1144 360.16 89.9064 360.533 89.7784 360.96V366H88.3704V357.648H89.6504V359.44C89.8744 359.045 90.1624 358.704 90.5144 358.416C90.8664 358.128 91.2664 357.904 91.7144 357.744C92.1624 357.584 92.6317 357.504 93.1224 357.504C93.6024 357.504 94.0024 357.595 94.3224 357.776C94.653 357.947 94.909 358.192 95.0904 358.512C95.2824 358.821 95.4157 359.189 95.4904 359.616C95.5757 360.043 95.6184 360.507 95.6184 361.008V366ZM101.456 366.16C100.827 366.16 100.256 366.048 99.7439 365.824C99.2319 365.589 98.7892 365.275 98.4159 364.88C98.0425 364.475 97.7545 364.011 97.5519 363.488C97.3492 362.965 97.2479 362.416 97.2479 361.84C97.2479 361.253 97.3492 360.699 97.5519 360.176C97.7545 359.653 98.0425 359.195 98.4159 358.8C98.7892 358.395 99.2319 358.08 99.7439 357.856C100.267 357.621 100.837 357.504 101.456 357.504C102.085 357.504 102.656 357.621 103.168 357.856C103.68 358.08 104.123 358.395 104.496 358.8C104.88 359.195 105.173 359.653 105.376 360.176C105.579 360.699 105.68 361.253 105.68 361.84C105.68 362.416 105.579 362.965 105.376 363.488C105.173 364.011 104.885 364.475 104.512 364.88C104.139 365.275 103.691 365.589 103.168 365.824C102.656 366.048 102.085 366.16 101.456 366.16ZM98.6879 361.856C98.6879 362.432 98.8105 362.955 99.0559 363.424C99.3119 363.893 99.6479 364.267 100.064 364.544C100.48 364.811 100.944 364.944 101.456 364.944C101.968 364.944 102.432 364.805 102.848 364.528C103.275 364.251 103.611 363.877 103.856 363.408C104.112 362.928 104.24 362.4 104.24 361.824C104.24 361.248 104.112 360.725 103.856 360.256C103.611 359.787 103.275 359.413 102.848 359.136C102.432 358.859 101.968 358.72 101.456 358.72C100.944 358.72 100.48 358.864 100.064 359.152C99.6479 359.429 99.3119 359.803 99.0559 360.272C98.8105 360.741 98.6879 361.269 98.6879 361.856ZM111.581 365.584C111.464 365.637 111.304 365.707 111.101 365.792C110.898 365.877 110.664 365.952 110.397 366.016C110.13 366.08 109.848 366.112 109.549 366.112C109.208 366.112 108.893 366.053 108.605 365.936C108.317 365.808 108.088 365.616 107.917 365.36C107.746 365.093 107.661 364.763 107.661 364.368V358.752H106.525V357.648H107.661V354.864H109.069V357.648H110.941V358.752H109.069V363.936C109.09 364.235 109.192 364.459 109.373 364.608C109.554 364.747 109.768 364.816 110.013 364.816C110.29 364.816 110.546 364.768 110.781 364.672C111.016 364.576 111.17 364.507 111.245 364.464L111.581 365.584ZM116.965 354.32H118.373V363.84C118.373 364.299 118.437 364.581 118.565 364.688C118.693 364.795 118.848 364.848 119.029 364.848C119.253 364.848 119.466 364.827 119.669 364.784C119.872 364.731 120.042 364.677 120.181 364.624L120.405 365.776C120.17 365.872 119.893 365.952 119.573 366.016C119.253 366.08 118.97 366.112 118.725 366.112C118.181 366.112 117.749 365.957 117.429 365.648C117.12 365.339 116.965 364.907 116.965 364.352V354.32ZM120.855 363.584C120.855 363.051 121.004 362.592 121.303 362.208C121.612 361.813 122.034 361.509 122.567 361.296C123.1 361.083 123.719 360.976 124.423 360.976C124.796 360.976 125.191 361.008 125.607 361.072C126.023 361.125 126.391 361.211 126.711 361.328V360.72C126.711 360.08 126.519 359.579 126.135 359.216C125.751 358.843 125.207 358.656 124.503 358.656C124.044 358.656 123.602 358.741 123.175 358.912C122.759 359.072 122.316 359.307 121.847 359.616L121.335 358.624C121.879 358.251 122.423 357.973 122.967 357.792C123.511 357.6 124.076 357.504 124.663 357.504C125.73 357.504 126.572 357.803 127.191 358.4C127.81 358.987 128.119 359.808 128.119 360.864V364.4C128.119 364.571 128.151 364.699 128.215 364.784C128.29 364.859 128.407 364.901 128.567 364.912V366C128.428 366.021 128.306 366.037 128.199 366.048C128.103 366.059 128.023 366.064 127.959 366.064C127.628 366.064 127.378 365.973 127.207 365.792C127.047 365.611 126.956 365.419 126.935 365.216L126.903 364.688C126.54 365.157 126.066 365.52 125.479 365.776C124.892 366.032 124.311 366.16 123.735 366.16C123.18 366.16 122.684 366.048 122.247 365.824C121.81 365.589 121.468 365.28 121.223 364.896C120.978 364.501 120.855 364.064 120.855 363.584ZM126.295 364.176C126.423 364.027 126.524 363.877 126.599 363.728C126.674 363.568 126.711 363.435 126.711 363.328V362.288C126.38 362.16 126.034 362.064 125.671 362C125.308 361.925 124.951 361.888 124.599 361.888C123.884 361.888 123.303 362.032 122.855 362.32C122.418 362.597 122.199 362.981 122.199 363.472C122.199 363.739 122.268 364 122.407 364.256C122.556 364.501 122.77 364.704 123.047 364.864C123.335 365.024 123.687 365.104 124.103 365.104C124.54 365.104 124.956 365.019 125.351 364.848C125.746 364.667 126.06 364.443 126.295 364.176ZM129.714 365.088L134.978 358.672H129.858V357.648H136.562V358.56L131.33 364.976H136.578V366H129.714V365.088ZM138.645 368.272C138.784 368.283 138.922 368.293 139.061 368.304C139.2 368.325 139.306 368.336 139.381 368.336C139.552 368.336 139.701 368.277 139.829 368.16C139.957 368.043 140.096 367.813 140.245 367.472C140.405 367.141 140.608 366.651 140.853 366L137.317 357.648H138.805L141.621 364.576L144.165 357.648H145.557L141.493 368.192C141.397 368.437 141.253 368.667 141.061 368.88C140.88 369.104 140.645 369.28 140.357 369.408C140.069 369.536 139.722 369.6 139.317 369.6C139.221 369.6 139.12 369.595 139.013 369.584C138.917 369.573 138.794 369.552 138.645 369.52V368.272ZM145.887 367.296L146.207 365.872H145.727V364.208H147.055V365.872L146.575 367.296H145.887ZM157.549 366.16C156.898 366.16 156.306 366 155.773 365.68C155.24 365.36 154.818 364.944 154.509 364.432V366H153.261V354.32H154.669V359.312C155.021 358.768 155.453 358.331 155.965 358C156.477 357.669 157.074 357.504 157.757 357.504C158.333 357.504 158.85 357.627 159.309 357.872C159.768 358.107 160.157 358.432 160.477 358.848C160.808 359.253 161.058 359.717 161.229 360.24C161.41 360.752 161.501 361.291 161.501 361.856C161.501 362.443 161.4 362.997 161.197 363.52C161.005 364.032 160.728 364.491 160.365 364.896C160.002 365.291 159.581 365.6 159.101 365.824C158.632 366.048 158.114 366.16 157.549 366.16ZM157.197 364.944C157.613 364.944 157.997 364.859 158.349 364.688C158.701 364.517 159.005 364.288 159.261 364C159.517 363.712 159.714 363.381 159.853 363.008C159.992 362.635 160.061 362.251 160.061 361.856C160.061 361.312 159.944 360.8 159.709 360.32C159.485 359.84 159.165 359.456 158.749 359.168C158.344 358.869 157.869 358.72 157.325 358.72C156.93 358.72 156.562 358.811 156.221 358.992C155.88 359.173 155.576 359.413 155.309 359.712C155.053 360 154.84 360.32 154.669 360.672V363.088C154.722 363.355 154.834 363.6 155.005 363.824C155.176 364.048 155.384 364.245 155.629 364.416C155.874 364.576 156.13 364.704 156.397 364.8C156.674 364.896 156.941 364.944 157.197 364.944ZM166.878 366.16C166.248 366.16 165.678 366.048 165.166 365.824C164.654 365.589 164.211 365.275 163.838 364.88C163.464 364.475 163.176 364.011 162.974 363.488C162.771 362.965 162.67 362.416 162.67 361.84C162.67 361.253 162.771 360.699 162.974 360.176C163.176 359.653 163.464 359.195 163.838 358.8C164.211 358.395 164.654 358.08 165.166 357.856C165.688 357.621 166.259 357.504 166.878 357.504C167.507 357.504 168.078 357.621 168.59 357.856C169.102 358.08 169.544 358.395 169.918 358.8C170.302 359.195 170.595 359.653 170.798 360.176C171 360.699 171.102 361.253 171.102 361.84C171.102 362.416 171 362.965 170.798 363.488C170.595 364.011 170.307 364.475 169.934 364.88C169.56 365.275 169.112 365.589 168.59 365.824C168.078 366.048 167.507 366.16 166.878 366.16ZM164.11 361.856C164.11 362.432 164.232 362.955 164.478 363.424C164.734 363.893 165.07 364.267 165.486 364.544C165.902 364.811 166.366 364.944 166.878 364.944C167.39 364.944 167.854 364.805 168.27 364.528C168.696 364.251 169.032 363.877 169.278 363.408C169.534 362.928 169.662 362.4 169.662 361.824C169.662 361.248 169.534 360.725 169.278 360.256C169.032 359.787 168.696 359.413 168.27 359.136C167.854 358.859 167.39 358.72 166.878 358.72C166.366 358.72 165.902 358.864 165.486 359.152C165.07 359.429 164.734 359.803 164.478 360.272C164.232 360.741 164.11 361.269 164.11 361.856ZM177.224 358.88C176.52 358.891 175.896 359.072 175.352 359.424C174.819 359.765 174.44 360.24 174.216 360.848V366H172.808V357.648H174.12V359.584C174.408 359.008 174.787 358.544 175.256 358.192C175.736 357.829 176.237 357.627 176.76 357.584C176.867 357.584 176.957 357.584 177.032 357.584C177.107 357.584 177.171 357.589 177.224 357.6V358.88ZM182.113 366.16C181.484 366.16 180.908 366.048 180.385 365.824C179.873 365.589 179.425 365.275 179.041 364.88C178.668 364.475 178.375 364.011 178.161 363.488C177.959 362.965 177.857 362.411 177.857 361.824C177.857 361.035 178.039 360.315 178.401 359.664C178.764 359.013 179.265 358.491 179.905 358.096C180.556 357.701 181.297 357.504 182.129 357.504C182.972 357.504 183.703 357.707 184.321 358.112C184.951 358.507 185.436 359.029 185.777 359.68C186.129 360.32 186.305 361.013 186.305 361.76C186.305 361.867 186.3 361.973 186.289 362.08C186.289 362.176 186.284 362.251 186.273 362.304H179.345C179.388 362.848 179.537 363.333 179.793 363.76C180.06 364.176 180.401 364.507 180.817 364.752C181.233 364.987 181.681 365.104 182.161 365.104C182.673 365.104 183.153 364.976 183.601 364.72C184.06 364.464 184.375 364.128 184.545 363.712L185.761 364.048C185.58 364.453 185.308 364.816 184.945 365.136C184.593 365.456 184.172 365.707 183.681 365.888C183.201 366.069 182.679 366.16 182.113 366.16ZM179.297 361.328H184.993C184.951 360.784 184.796 360.304 184.529 359.888C184.263 359.472 183.921 359.147 183.505 358.912C183.089 358.677 182.631 358.56 182.129 358.56C181.639 358.56 181.185 358.677 180.769 358.912C180.353 359.147 180.012 359.472 179.745 359.888C179.489 360.304 179.34 360.784 179.297 361.328ZM187.326 361.84C187.326 361.051 187.486 360.331 187.806 359.68C188.137 359.019 188.585 358.491 189.15 358.096C189.726 357.701 190.382 357.504 191.118 357.504C191.79 357.504 192.393 357.68 192.926 358.032C193.46 358.384 193.876 358.811 194.174 359.312V354.32H195.582V364.4C195.582 364.571 195.614 364.699 195.678 364.784C195.753 364.859 195.87 364.901 196.03 364.912V366C195.764 366.043 195.556 366.064 195.406 366.064C195.129 366.064 194.884 365.968 194.67 365.776C194.468 365.584 194.366 365.371 194.366 365.136V364.432C194.036 364.965 193.593 365.387 193.038 365.696C192.484 366.005 191.908 366.16 191.31 366.16C190.734 366.16 190.201 366.048 189.71 365.824C189.23 365.589 188.809 365.269 188.446 364.864C188.094 364.459 187.817 364 187.614 363.488C187.422 362.965 187.326 362.416 187.326 361.84ZM194.174 363.072V360.672C194.046 360.309 193.838 359.984 193.55 359.696C193.262 359.397 192.937 359.163 192.574 358.992C192.222 358.811 191.87 358.72 191.518 358.72C191.102 358.72 190.724 358.811 190.382 358.992C190.052 359.163 189.764 359.397 189.518 359.696C189.284 359.984 189.102 360.315 188.974 360.688C188.846 361.061 188.782 361.451 188.782 361.856C188.782 362.272 188.852 362.667 188.99 363.04C189.14 363.413 189.342 363.744 189.598 364.032C189.865 364.32 190.169 364.544 190.51 364.704C190.862 364.864 191.241 364.944 191.646 364.944C191.902 364.944 192.164 364.896 192.43 364.8C192.708 364.704 192.969 364.571 193.214 364.4C193.46 364.229 193.668 364.032 193.838 363.808C194.009 363.573 194.121 363.328 194.174 363.072ZM197.981 367.296L198.301 365.872H197.821V364.208H199.149V365.872L198.669 367.296H197.981ZM31.784 392.16C31.1547 392.16 30.584 392.048 30.072 391.824C29.56 391.589 29.1173 391.275 28.744 390.88C28.3707 390.475 28.0827 390.011 27.88 389.488C27.6773 388.965 27.576 388.416 27.576 387.84C27.576 387.253 27.6773 386.699 27.88 386.176C28.0827 385.653 28.3707 385.195 28.744 384.8C29.1173 384.395 29.56 384.08 30.072 383.856C30.5947 383.621 31.1653 383.504 31.784 383.504C32.4133 383.504 32.984 383.621 33.496 383.856C34.008 384.08 34.4507 384.395 34.824 384.8C35.208 385.195 35.5013 385.653 35.704 386.176C35.9067 386.699 36.008 387.253 36.008 387.84C36.008 388.416 35.9067 388.965 35.704 389.488C35.5013 390.011 35.2133 390.475 34.84 390.88C34.4667 391.275 34.0187 391.589 33.496 391.824C32.984 392.048 32.4133 392.16 31.784 392.16ZM29.016 387.856C29.016 388.432 29.1387 388.955 29.384 389.424C29.64 389.893 29.976 390.267 30.392 390.544C30.808 390.811 31.272 390.944 31.784 390.944C32.296 390.944 32.76 390.805 33.176 390.528C33.6027 390.251 33.9387 389.877 34.184 389.408C34.44 388.928 34.568 388.4 34.568 387.824C34.568 387.248 34.44 386.725 34.184 386.256C33.9387 385.787 33.6027 385.413 33.176 385.136C32.76 384.859 32.296 384.72 31.784 384.72C31.272 384.72 30.808 384.864 30.392 385.152C29.976 385.429 29.64 385.803 29.384 386.272C29.1387 386.741 29.016 387.269 29.016 387.856ZM42.1301 384.88C41.4261 384.891 40.8021 385.072 40.2581 385.424C39.7248 385.765 39.3461 386.24 39.1221 386.848V392H37.7141V383.648H39.0261V385.584C39.3141 385.008 39.6928 384.544 40.1621 384.192C40.6421 383.829 41.1435 383.627 41.6661 383.584C41.7728 383.584 41.8635 383.584 41.9381 383.584C42.0128 383.584 42.0768 383.589 42.1301 383.6V384.88ZM47.1185 388.656V383.648H48.5265V388.384C48.5265 389.237 48.6758 389.877 48.9745 390.304C49.2732 390.731 49.7158 390.944 50.3025 390.944C50.6865 390.944 51.0545 390.864 51.4065 390.704C51.7692 390.533 52.0945 390.293 52.3825 389.984C52.6705 389.675 52.8945 389.307 53.0545 388.88V383.648H54.4625V390.4C54.4625 390.571 54.4945 390.699 54.5585 390.784C54.6332 390.859 54.7505 390.901 54.9105 390.912V392C54.7505 392.021 54.6225 392.032 54.5265 392.032C54.4412 392.043 54.3558 392.048 54.2705 392.048C54.0038 392.048 53.7745 391.968 53.5825 391.808C53.3905 391.637 53.2892 391.429 53.2785 391.184L53.2465 390.208C52.8838 390.827 52.3932 391.307 51.7745 391.648C51.1665 391.989 50.4998 392.16 49.7745 392.16C48.8998 392.16 48.2385 391.867 47.7905 391.28C47.3425 390.683 47.1185 389.808 47.1185 388.656ZM64.0559 392H62.6479V387.328C62.6479 386.443 62.5092 385.797 62.2319 385.392C61.9652 384.976 61.5545 384.768 60.9999 384.768C60.6159 384.768 60.2319 384.864 59.8479 385.056C59.4745 385.248 59.1385 385.509 58.8399 385.84C58.5519 386.16 58.3439 386.533 58.2159 386.96V392H56.8079V383.648H58.0879V385.44C58.3119 385.045 58.5999 384.704 58.9519 384.416C59.3039 384.128 59.7039 383.904 60.1519 383.744C60.5999 383.584 61.0692 383.504 61.5599 383.504C62.0399 383.504 62.4399 383.595 62.7599 383.776C63.0905 383.947 63.3465 384.192 63.5279 384.512C63.7199 384.821 63.8532 385.189 63.9279 385.616C64.0132 386.043 64.0559 386.507 64.0559 387.008V392ZM78.8374 392H77.4294V387.328C77.4294 386.453 77.2854 385.808 76.9974 385.392C76.72 384.976 76.304 384.768 75.7494 384.768C75.184 384.768 74.672 384.976 74.2134 385.392C73.7547 385.797 73.4294 386.325 73.2374 386.976V392H71.8294V387.328C71.8294 386.443 71.6907 385.797 71.4134 385.392C71.136 384.976 70.72 384.768 70.1654 384.768C69.6107 384.768 69.0987 384.971 68.6294 385.376C68.1707 385.771 67.8454 386.299 67.6534 386.96V392H66.2454V383.648H67.5254V385.44C67.8667 384.821 68.3094 384.347 68.8534 384.016C69.3974 383.675 70.0107 383.504 70.6934 383.504C71.3867 383.504 71.9414 383.696 72.3574 384.08C72.7734 384.453 73.0294 384.939 73.1254 385.536C73.4987 384.875 73.952 384.373 74.4854 384.032C75.0187 383.68 75.6267 383.504 76.3094 383.504C76.7894 383.504 77.1894 383.595 77.5094 383.776C77.84 383.947 78.1014 384.192 78.2934 384.512C78.4854 384.821 78.624 385.189 78.7094 385.616C78.7947 386.043 78.8374 386.507 78.8374 387.008V392ZM84.6746 392.16C84.0453 392.16 83.4746 392.048 82.9626 391.824C82.4506 391.589 82.008 391.275 81.6346 390.88C81.2613 390.475 80.9733 390.011 80.7706 389.488C80.568 388.965 80.4666 388.416 80.4666 387.84C80.4666 387.253 80.568 386.699 80.7706 386.176C80.9733 385.653 81.2613 385.195 81.6346 384.8C82.008 384.395 82.4506 384.08 82.9626 383.856C83.4853 383.621 84.056 383.504 84.6746 383.504C85.304 383.504 85.8746 383.621 86.3866 383.856C86.8986 384.08 87.3413 384.395 87.7146 384.8C88.0986 385.195 88.392 385.653 88.5946 386.176C88.7973 386.699 88.8986 387.253 88.8986 387.84C88.8986 388.416 88.7973 388.965 88.5946 389.488C88.392 390.011 88.104 390.475 87.7306 390.88C87.3573 391.275 86.9093 391.589 86.3866 391.824C85.8746 392.048 85.304 392.16 84.6746 392.16ZM81.9066 387.856C81.9066 388.432 82.0293 388.955 82.2746 389.424C82.5306 389.893 82.8666 390.267 83.2826 390.544C83.6986 390.811 84.1626 390.944 84.6746 390.944C85.1866 390.944 85.6506 390.805 86.0666 390.528C86.4933 390.251 86.8293 389.877 87.0746 389.408C87.3306 388.928 87.4586 388.4 87.4586 387.824C87.4586 387.248 87.3306 386.725 87.0746 386.256C86.8293 385.787 86.4933 385.413 86.0666 385.136C85.6506 384.859 85.1866 384.72 84.6746 384.72C84.1626 384.72 83.6986 384.864 83.2826 385.152C82.8666 385.429 82.5306 385.803 82.2746 386.272C82.0293 386.741 81.9066 387.269 81.9066 387.856ZM94.7998 391.584C94.6824 391.637 94.5224 391.707 94.3198 391.792C94.1171 391.877 93.8824 391.952 93.6158 392.016C93.3491 392.08 93.0664 392.112 92.7678 392.112C92.4264 392.112 92.1118 392.053 91.8238 391.936C91.5358 391.808 91.3064 391.616 91.1358 391.36C90.9651 391.093 90.8798 390.763 90.8798 390.368V384.752H89.7438V383.648H90.8798V380.864H92.2878V383.648H94.1598V384.752H92.2878V389.936C92.3091 390.235 92.4104 390.459 92.5918 390.608C92.7731 390.747 92.9864 390.816 93.2318 390.816C93.5091 390.816 93.7651 390.768 93.9998 390.672C94.2344 390.576 94.3891 390.507 94.4638 390.464L94.7998 391.584ZM96.1048 392V383.648H97.5128V392H96.1048ZM96.1048 382.08V380.32H97.5128V382.08H96.1048ZM102.192 392L98.9123 383.648H100.384L103.008 390.656L105.632 383.648H107.008L103.728 392H102.192ZM107.558 389.584C107.558 389.051 107.707 388.592 108.006 388.208C108.315 387.813 108.737 387.509 109.27 387.296C109.803 387.083 110.422 386.976 111.126 386.976C111.499 386.976 111.894 387.008 112.31 387.072C112.726 387.125 113.094 387.211 113.414 387.328V386.72C113.414 386.08 113.222 385.579 112.838 385.216C112.454 384.843 111.91 384.656 111.206 384.656C110.747 384.656 110.305 384.741 109.878 384.912C109.462 385.072 109.019 385.307 108.55 385.616L108.038 384.624C108.582 384.251 109.126 383.973 109.67 383.792C110.214 383.6 110.779 383.504 111.366 383.504C112.433 383.504 113.275 383.803 113.894 384.4C114.513 384.987 114.822 385.808 114.822 386.864V390.4C114.822 390.571 114.854 390.699 114.918 390.784C114.993 390.859 115.11 390.901 115.27 390.912V392C115.131 392.021 115.009 392.037 114.902 392.048C114.806 392.059 114.726 392.064 114.662 392.064C114.331 392.064 114.081 391.973 113.91 391.792C113.75 391.611 113.659 391.419 113.638 391.216L113.606 390.688C113.243 391.157 112.769 391.52 112.182 391.776C111.595 392.032 111.014 392.16 110.438 392.16C109.883 392.16 109.387 392.048 108.95 391.824C108.513 391.589 108.171 391.28 107.926 390.896C107.681 390.501 107.558 390.064 107.558 389.584ZM112.998 390.176C113.126 390.027 113.227 389.877 113.302 389.728C113.377 389.568 113.414 389.435 113.414 389.328V388.288C113.083 388.16 112.737 388.064 112.374 388C112.011 387.925 111.654 387.888 111.302 387.888C110.587 387.888 110.006 388.032 109.558 388.32C109.121 388.597 108.902 388.981 108.902 389.472C108.902 389.739 108.971 390 109.11 390.256C109.259 390.501 109.473 390.704 109.75 390.864C110.038 391.024 110.39 391.104 110.806 391.104C111.243 391.104 111.659 391.019 112.054 390.848C112.449 390.667 112.763 390.443 112.998 390.176ZM121.331 391.584C121.214 391.637 121.054 391.707 120.851 391.792C120.648 391.877 120.414 391.952 120.147 392.016C119.88 392.08 119.598 392.112 119.299 392.112C118.958 392.112 118.643 392.053 118.355 391.936C118.067 391.808 117.838 391.616 117.667 391.36C117.496 391.093 117.411 390.763 117.411 390.368V384.752H116.275V383.648H117.411V380.864H118.819V383.648H120.691V384.752H118.819V389.936C118.84 390.235 118.942 390.459 119.123 390.608C119.304 390.747 119.518 390.816 119.763 390.816C120.04 390.816 120.296 390.768 120.531 390.672C120.766 390.576 120.92 390.507 120.995 390.464L121.331 391.584ZM126.223 392.16C125.593 392.16 125.017 392.048 124.495 391.824C123.983 391.589 123.535 391.275 123.151 390.88C122.777 390.475 122.484 390.011 122.271 389.488C122.068 388.965 121.967 388.411 121.967 387.824C121.967 387.035 122.148 386.315 122.511 385.664C122.873 385.013 123.375 384.491 124.015 384.096C124.665 383.701 125.407 383.504 126.239 383.504C127.081 383.504 127.812 383.707 128.431 384.112C129.06 384.507 129.545 385.029 129.887 385.68C130.239 386.32 130.415 387.013 130.415 387.76C130.415 387.867 130.409 387.973 130.399 388.08C130.399 388.176 130.393 388.251 130.383 388.304H123.455C123.497 388.848 123.647 389.333 123.903 389.76C124.169 390.176 124.511 390.507 124.927 390.752C125.343 390.987 125.791 391.104 126.271 391.104C126.783 391.104 127.263 390.976 127.711 390.72C128.169 390.464 128.484 390.128 128.655 389.712L129.871 390.048C129.689 390.453 129.417 390.816 129.055 391.136C128.703 391.456 128.281 391.707 127.791 391.888C127.311 392.069 126.788 392.16 126.223 392.16ZM123.407 387.328H129.103C129.06 386.784 128.905 386.304 128.639 385.888C128.372 385.472 128.031 385.147 127.615 384.912C127.199 384.677 126.74 384.56 126.239 384.56C125.748 384.56 125.295 384.677 124.879 384.912C124.463 385.147 124.121 385.472 123.855 385.888C123.599 386.304 123.449 386.784 123.407 387.328ZM131.436 387.84C131.436 387.051 131.596 386.331 131.916 385.68C132.246 385.019 132.694 384.491 133.26 384.096C133.836 383.701 134.492 383.504 135.228 383.504C135.9 383.504 136.502 383.68 137.036 384.032C137.569 384.384 137.985 384.811 138.284 385.312V380.32H139.692V390.4C139.692 390.571 139.724 390.699 139.788 390.784C139.862 390.859 139.98 390.901 140.14 390.912V392C139.873 392.043 139.665 392.064 139.516 392.064C139.238 392.064 138.993 391.968 138.78 391.776C138.577 391.584 138.476 391.371 138.476 391.136V390.432C138.145 390.965 137.702 391.387 137.148 391.696C136.593 392.005 136.017 392.16 135.42 392.16C134.844 392.16 134.31 392.048 133.82 391.824C133.34 391.589 132.918 391.269 132.556 390.864C132.204 390.459 131.926 390 131.724 389.488C131.532 388.965 131.436 388.416 131.436 387.84ZM138.284 389.072V386.672C138.156 386.309 137.948 385.984 137.66 385.696C137.372 385.397 137.046 385.163 136.684 384.992C136.332 384.811 135.98 384.72 135.628 384.72C135.212 384.72 134.833 384.811 134.492 384.992C134.161 385.163 133.873 385.397 133.628 385.696C133.393 385.984 133.212 386.315 133.084 386.688C132.956 387.061 132.892 387.451 132.892 387.856C132.892 388.272 132.961 388.667 133.1 389.04C133.249 389.413 133.452 389.744 133.708 390.032C133.974 390.32 134.278 390.544 134.62 390.704C134.972 390.864 135.35 390.944 135.756 390.944C136.012 390.944 136.273 390.896 136.54 390.8C136.817 390.704 137.078 390.571 137.324 390.4C137.569 390.229 137.777 390.032 137.948 389.808C138.118 389.573 138.23 389.328 138.284 389.072Z" fill="white"/>
        <path d="M22.652 28L20.192 21.736H21.296L23.264 26.992L25.232 21.736H26.264L23.804 28H22.652ZM27.3208 28V21.736H28.3768V28H27.3208ZM27.3208 20.56V19.24H28.3768V20.56H27.3208ZM29.6784 24.88C29.6784 24.288 29.7984 23.748 30.0384 23.26C30.2864 22.764 30.6224 22.368 31.0464 22.072C31.4784 21.776 31.9704 21.628 32.5224 21.628C33.0264 21.628 33.4784 21.76 33.8784 22.024C34.2784 22.288 34.5904 22.608 34.8144 22.984V19.24H35.8704V26.8C35.8704 26.928 35.8944 27.024 35.9424 27.088C35.9984 27.144 36.0864 27.176 36.2064 27.184V28C36.0064 28.032 35.8504 28.048 35.7384 28.048C35.5304 28.048 35.3464 27.976 35.1864 27.832C35.0344 27.688 34.9584 27.528 34.9584 27.352V26.824C34.7104 27.224 34.3784 27.54 33.9624 27.772C33.5464 28.004 33.1144 28.12 32.6664 28.12C32.2344 28.12 31.8344 28.036 31.4664 27.868C31.1064 27.692 30.7904 27.452 30.5184 27.148C30.2544 26.844 30.0464 26.5 29.8944 26.116C29.7504 25.724 29.6784 25.312 29.6784 24.88ZM34.8144 25.804V24.004C34.7184 23.732 34.5624 23.488 34.3464 23.272C34.1304 23.048 33.8864 22.872 33.6144 22.744C33.3504 22.608 33.0864 22.54 32.8224 22.54C32.5104 22.54 32.2264 22.608 31.9704 22.744C31.7224 22.872 31.5064 23.048 31.3224 23.272C31.1464 23.488 31.0104 23.736 30.9144 24.016C30.8184 24.296 30.7704 24.588 30.7704 24.892C30.7704 25.204 30.8224 25.5 30.9264 25.78C31.0384 26.06 31.1904 26.308 31.3824 26.524C31.5824 26.74 31.8104 26.908 32.0664 27.028C32.3304 27.148 32.6144 27.208 32.9184 27.208C33.1104 27.208 33.3064 27.172 33.5064 27.1C33.7144 27.028 33.9104 26.928 34.0944 26.8C34.2784 26.672 34.4344 26.524 34.5624 26.356C34.6904 26.18 34.7744 25.996 34.8144 25.804ZM40.4053 28.12C39.9333 28.12 39.5013 28.036 39.1093 27.868C38.7253 27.692 38.3893 27.456 38.1013 27.16C37.8213 26.856 37.6013 26.508 37.4413 26.116C37.2893 25.724 37.2133 25.308 37.2133 24.868C37.2133 24.276 37.3493 23.736 37.6213 23.248C37.8933 22.76 38.2693 22.368 38.7493 22.072C39.2373 21.776 39.7933 21.628 40.4173 21.628C41.0493 21.628 41.5973 21.78 42.0613 22.084C42.5333 22.38 42.8973 22.772 43.1533 23.26C43.4173 23.74 43.5493 24.26 43.5493 24.82C43.5493 24.9 43.5453 24.98 43.5373 25.06C43.5373 25.132 43.5333 25.188 43.5253 25.228H38.3293C38.3613 25.636 38.4733 26 38.6653 26.32C38.8653 26.632 39.1213 26.88 39.4333 27.064C39.7453 27.24 40.0813 27.328 40.4413 27.328C40.8253 27.328 41.1853 27.232 41.5213 27.04C41.8653 26.848 42.1013 26.596 42.2293 26.284L43.1413 26.536C43.0053 26.84 42.8013 27.112 42.5293 27.352C42.2653 27.592 41.9493 27.78 41.5813 27.916C41.2213 28.052 40.8293 28.12 40.4053 28.12ZM38.2933 24.496H42.5653C42.5333 24.088 42.4173 23.728 42.2173 23.416C42.0173 23.104 41.7613 22.86 41.4493 22.684C41.1373 22.508 40.7933 22.42 40.4173 22.42C40.0493 22.42 39.7093 22.508 39.3973 22.684C39.0853 22.86 38.8293 23.104 38.6293 23.416C38.4373 23.728 38.3253 24.088 38.2933 24.496ZM47.4591 28.12C46.9871 28.12 46.5591 28.036 46.1751 27.868C45.7911 27.692 45.4591 27.456 45.1791 27.16C44.8991 26.856 44.6831 26.508 44.5311 26.116C44.3791 25.724 44.3031 25.312 44.3031 24.88C44.3031 24.44 44.3791 24.024 44.5311 23.632C44.6831 23.24 44.8991 22.896 45.1791 22.6C45.4591 22.296 45.7911 22.06 46.1751 21.892C46.5671 21.716 46.9951 21.628 47.4591 21.628C47.9311 21.628 48.3591 21.716 48.7431 21.892C49.1271 22.06 49.4591 22.296 49.7391 22.6C50.0271 22.896 50.2471 23.24 50.3991 23.632C50.5511 24.024 50.6271 24.44 50.6271 24.88C50.6271 25.312 50.5511 25.724 50.3991 26.116C50.2471 26.508 50.0311 26.856 49.7511 27.16C49.4711 27.456 49.1351 27.692 48.7431 27.868C48.3591 28.036 47.9311 28.12 47.4591 28.12ZM45.3831 24.892C45.3831 25.324 45.4751 25.716 45.6591 26.068C45.8511 26.42 46.1031 26.7 46.4151 26.908C46.7271 27.108 47.0751 27.208 47.4591 27.208C47.8431 27.208 48.1911 27.104 48.5031 26.896C48.8231 26.688 49.0751 26.408 49.2591 26.056C49.4511 25.696 49.5471 25.3 49.5471 24.868C49.5471 24.436 49.4511 24.044 49.2591 23.692C49.0751 23.34 48.8231 23.06 48.5031 22.852C48.1911 22.644 47.8431 22.54 47.4591 22.54C47.0751 22.54 46.7271 22.648 46.4151 22.864C46.1031 23.072 45.8511 23.352 45.6591 23.704C45.4751 24.056 45.3831 24.452 45.3831 24.892Z" fill="#C484B0"/>
        <rect x="10.5" y="10.5" width="51" height="27" rx="13.5" stroke="#C484B0"/>
        <path opacity="0.7" d="M224.5 193.134C225.167 193.519 225.167 194.481 224.5 194.866L167.5 227.775C166.833 228.16 166 227.679 166 226.909L166 161.091C166 160.321 166.833 159.84 167.5 160.225L224.5 193.134Z" fill="white"/>
    </g>
    <defs>
        <linearGradient id="paint0_linear_20_263" x1="17.1556" y1="413" x2="442.007" y2="126.193" gradientUnits="userSpaceOnUse">
            <stop stop-color="#CCD0FF"/>
            <stop offset="1" stop-color="#FFCDEC"/>
        </linearGradient>
        <clipPath id="clip0_20_263">
            <rect width="386" height="413" rx="20" fill="white"/>
        </clipPath>
    </defs>
</svg>
