<svg width="501" height="453" viewBox="0 0 501 453" fill="none" xmlns="http://www.w3.org/2000/svg">
    <path d="M259.906 452.253C393.059 452.253 501 432.885 501 408.995C501 385.104 393.059 365.737 259.906 365.737C126.754 365.737 18.8127 385.104 18.8127 408.995C18.8127 432.885 126.754 452.253 259.906 452.253Z" fill="#EDE3DC"/>
    <path d="M294.952 32.7602C294.952 32.7602 293.478 143.084 289.213 171.166C284.948 199.248 348.953 155.716 354.072 185.17C359.191 214.625 341.272 301.264 350.867 313.106C360.463 324.949 279.397 350.306 275.451 350.997C271.505 351.688 84.7037 323.547 84.7037 323.547C84.7037 323.547 64.0585 239.727 39.1435 305.077C12.7083 275.108 17.4191 239.35 17.4191 239.35L136.701 163.034L162.508 82.8904L228.197 32.7455L269.018 9.52588L294.952 32.7602Z" fill="#EDE3DC"/>
    <path d="M294.952 33.4415C294.952 33.4415 293.478 143.765 289.213 171.857C284.948 199.949 348.953 156.412 354.072 185.862C359.191 215.311 341.272 301.96 350.872 313.797C360.472 325.635 279.402 351.002 275.456 351.693C271.51 352.384 84.7085 324.243 84.7085 324.243C84.7085 324.243 64.0633 240.448 39.1483 305.768C12.713 275.804 17.4239 240.041 17.4239 240.041L136.702 163.735L162.508 83.5914L228.197 33.4415L269.019 10.2219L294.952 33.4415Z" fill="#E68C66"/>
    <g style="mix-blend-mode:multiply" opacity="0.59">
        <path d="M294.952 33.4415C294.952 33.4415 293.478 143.765 289.213 171.857C284.948 199.949 348.953 156.412 354.072 185.862C359.191 215.311 341.272 301.96 350.872 313.797C360.472 325.635 279.402 351.002 275.456 351.693C271.51 352.384 84.7085 324.243 84.7085 324.243C84.7085 324.243 64.0633 240.448 39.1483 305.768C12.713 275.804 17.4239 240.041 17.4239 240.041L136.702 163.735L162.508 83.5914L228.197 33.4415L269.019 10.2219L294.952 33.4415Z" fill="#E66666"/>
    </g>
    <path d="M274.583 87.9735C274.583 87.9735 271.05 112.394 282.255 122.188C287.979 127.197 272.265 142.52 257.462 141.486C242.583 140.447 228.155 122.006 234.128 121.301C245.858 119.918 245.483 90.8214 245.483 90.8214C245.483 90.8214 260.737 67.3714 274.583 87.9735Z" fill="#EEB5AA"/>
    <g style="mix-blend-mode:multiply">
        <path d="M275.456 89.0176C275.456 89.0176 268.92 117.757 243.507 108.821C244.915 104.154 245.633 93.4047 245.633 93.4047L275.456 89.0176Z" fill="#EEB5AA"/>
    </g>
    <path d="M285.286 73.2878C285.286 73.2878 280.594 99.7132 257.72 99.4583C238.205 99.2377 231.045 73.2878 231.045 73.2878C231.045 73.2878 222.909 74.3123 221.506 64.5088C220.056 54.4308 229.061 56.6219 229.061 56.6219C229.061 56.6219 222.36 17.8 240.387 6.21223C256.289 -4.01283 281.33 1.16832 287.623 20.4567C293.915 39.7451 288.265 55.965 288.265 55.965C288.265 55.965 296.678 55.4749 294.633 65.3715C293.103 72.7584 288.974 73.0967 285.286 73.2878Z" fill="#EEB5AA"/>
    <path d="M258.053 52.5781C258.053 52.5781 249.673 67.4304 261.455 65.1413" stroke="#511918" stroke-width="1.93" stroke-linecap="round" stroke-linejoin="round"/>
    <path d="M277.202 45.4608C278.238 46.9901 280.744 45.6863 279.412 43.3824C277.507 40.0786 271.834 38.3581 267.606 40.5198C263.923 42.4021 266.119 44.75 267.752 43.6961C270.689 41.7845 275.231 42.5834 277.202 45.4608Z" fill="#A95E32"/>
    <path d="M240.134 45.4608C239.097 46.9901 236.591 45.6863 237.924 43.3824C239.829 40.0786 245.502 38.3581 249.729 40.5198C253.412 42.4021 251.217 44.75 249.584 43.6961C246.637 41.7845 242.095 42.5834 240.134 45.4608Z" fill="#A95E32"/>
    <path d="M267.348 52.5781C267.348 52.5781 268.634 56.4701 272.678 56.328C276.723 56.1858 277.131 52.5781 277.131 52.5781" stroke="black" stroke-width="3.87" stroke-linecap="round" stroke-linejoin="round"/>
    <path d="M238.928 52.5781C238.928 52.5781 240.209 56.4701 244.253 56.328C248.298 56.1858 248.711 52.5781 248.711 52.5781" stroke="black" stroke-width="3.87" stroke-linecap="round" stroke-linejoin="round"/>
    <path d="M253.07 73.4595C253.544 74.648 254.353 75.6573 255.39 76.3527C256.427 77.0481 257.642 77.3965 258.874 77.3515C260.102 77.3786 261.309 77.0228 262.342 76.3295C263.375 75.6363 264.187 74.637 264.673 73.4595" fill="#CB4746"/>
    <path d="M224.852 62.1755C224.852 62.1755 226.729 59.857 229.544 63.0284C229.544 63.0284 226.958 56.465 224.171 59.7344" stroke="#511918" stroke-width="1.93" stroke-linecap="round" stroke-linejoin="round"/>
    <path d="M273.41 15.0013C273.41 15.0013 272.242 30.6869 227.869 42.8432C189.074 53.4801 174.778 101.517 173.567 135.486C171.413 195.95 106.25 209.993 76.6895 217.483C47.1294 224.973 13.6185 260.741 39.1528 305.092C39.1528 305.092 -48.0966 245.693 37.8953 208.263C123.887 170.833 111.847 147.79 129.705 85.6748C142.965 39.5591 178.667 57.0779 201.222 39.5591C223.777 22.0402 231.364 -5.36552 251.747 1.08519C272.129 7.5359 273.41 15.0013 273.41 15.0013Z" fill="#E69766"/>
    <path d="M273.41 15.0012C273.41 15.0012 286.116 32.6965 286.28 56.3279C286.445 79.9592 265.79 108.242 285.295 123.33C304.8 138.418 337.875 195.753 331.193 246.286C324.512 296.818 342.421 322.214 353.377 325.841C364.333 329.468 425.002 314.704 425.002 314.704C425.002 314.704 371.512 285.921 377.804 230.923C384.096 175.926 375.824 147.726 354.977 128.183C334.13 108.639 295.031 115.59 299.559 77.3515C304.087 39.1129 296.969 21.1725 281.795 8.13871C267.559 -4.09117 251.765 1.08999 251.765 1.08999C251.765 1.08999 272.242 8.1044 273.41 15.0012Z" fill="#E69766"/>
    <path d="M263.299 6.05549C263.299 6.05549 248.711 3.91833 241.65 24.4322C237.018 37.8875 202.799 37.5395 175.195 56.3279C141.159 79.4985 175.852 161.564 138.733 172.137C71.0076 191.464 9.75232 218.223 15.0544 263.589C18.8878 296.46 39.1483 305.092 39.1483 305.092C20.4831 292.803 20.2814 254.844 35.4181 230.247C60.6756 189.21 124.061 184.171 147.897 172.147C171.733 160.123 160.176 119.345 177.058 77.3515C193.725 35.8827 231.594 43.6078 245.366 27.7458C260.793 9.9916 269.019 11.7513 269.019 11.7513" stroke="#A95E32" stroke-width="1.93" stroke-linecap="round" stroke-linejoin="round"/>
    <path d="M253.98 2.62394C253.98 2.62394 235.104 1.08479 229.525 20.1673C223.843 39.593 178.029 48.5975 178.029 48.5975C178.029 48.5975 129.87 56.1756 136.701 99.4581C144.626 149.672 124.295 172.494 100.521 180.96C73.3768 190.655 -7.17236 222.561 5.00831 265.525C10.4981 284.892 39.148 305.092 39.148 305.092" stroke="#A95E32" stroke-width="1.93" stroke-miterlimit="10"/>
    <path d="M371.911 296.087C371.911 296.087 429.225 279.696 442.968 293.74C456.711 307.783 439.215 341.571 439.215 341.571L345.373 350.997L371.911 296.087Z" fill="#EEB5AA"/>
    <path d="M84.7083 293.739C84.7083 293.739 90.3388 282.98 129.56 289.818C168.781 296.656 195.249 305.101 195.249 305.101L201.222 337.639L131.277 330.125L84.7176 293.739" fill="#EEB5AA"/>
    <path d="M199.313 298.411L207.195 271.814C207.195 271.814 290.424 265.883 314.095 274.505L324.845 305.092C324.845 305.092 348.897 292.426 370.142 291.857C377.8 291.651 377.8 302.793 377.8 312.288C377.8 321.782 367.477 365.643 367.477 365.643L270.632 397.073L133.858 344.213C133.858 344.213 141.112 294.215 152.12 289.803C166.313 284.108 199.313 298.411 199.313 298.411Z" fill="#565797"/>
    <path d="M315.78 314.42L324.849 305.092" stroke="white" stroke-width="1.93" stroke-linecap="round" stroke-linejoin="round"/>
    <path d="M210.855 306.881L199.608 298.945" stroke="white" stroke-width="1.93" stroke-linecap="round" stroke-linejoin="round"/>
    <path d="M262.848 288.053C262.848 288.053 262.777 288.911 262.651 290.411" stroke="white" stroke-width="1.93" stroke-linecap="round" stroke-linejoin="round"/>
    <path d="M262.261 294.891C261.726 301.013 260.854 310.4 259.915 319.513C257.349 343.811 256.04 363.628 261.45 382.255" stroke="white" stroke-width="1.93" stroke-linecap="round" stroke-linejoin="round" stroke-dasharray="9.2 9.2"/>
    <path d="M262.097 384.432C262.337 385.177 262.59 385.902 262.848 386.667" stroke="white" stroke-width="1.93" stroke-linecap="round" stroke-linejoin="round"/>
    <path d="M249.706 286.774C249.706 286.774 245.013 320.724 245.952 327.88C246.843 334.743 257.682 333.762 257.682 333.762" stroke="white" stroke-width="1.93" stroke-linecap="round" stroke-linejoin="round" stroke-dasharray="9.66 9.66"/>
    <path d="M198.918 204.533C198.918 204.533 193.25 227.919 202.817 242.712C213.21 258.766 190.355 258.324 207.89 273.593C219.62 283.818 276.3 294.48 306.391 282.544C331.399 272.623 314.165 261.167 319.528 247.251C321.462 242.212 326.243 226.507 323.395 207.65C341.441 273.824 358.74 276.422 377.823 275.471C405.919 274.069 429.516 220.429 441.41 214.351C456.523 206.631 444.601 170.539 434.747 161.809C419.484 148.275 404.277 169.48 395.048 185.166L379.803 211.072C379.803 211.072 351.651 146.692 320.312 133.771C308.169 128.722 282.883 122.35 282.883 122.35C282.883 122.35 277.15 142.369 259.892 141.511C242.634 140.653 234.114 121.301 234.114 121.301C234.114 121.301 201.738 127.555 183.326 143.947C166.984 158.486 137.123 211.341 137.123 211.341C137.123 211.341 118.181 197.204 110.927 185.171C102.796 171.686 81.7098 163.113 71.3028 171.554C58.24 182.117 57.6957 202.464 61.2242 211.527C65.5925 222.801 91.8917 241.335 109.29 256.418C136.452 279.946 159.078 269.824 168.016 260.339C183.721 243.624 198.918 204.533 198.918 204.533Z" fill="#FDE07A"/>
    <path d="M317.3 234.061C317.3 234.061 286.388 285.245 229.52 265.275" stroke="#565797" stroke-width="1.93" stroke-linecap="round" stroke-linejoin="round"/>
    <path d="M209.386 243.286C209.386 243.286 231.96 256.427 258.011 256.771" stroke="#565797" stroke-width="1.93" stroke-linecap="round" stroke-linejoin="round"/>
    <path d="M379.804 211.072C379.804 211.072 370.148 221.027 373.301 234.075" stroke="#565797" stroke-width="1.93" stroke-linecap="round" stroke-linejoin="round"/>
    <path d="M137.137 211.341C137.137 211.341 150.791 218.993 152.119 234.061" stroke="#565797" stroke-width="1.93" stroke-linecap="round" stroke-linejoin="round"/>
    <path d="M225.377 123.443C225.377 123.443 232.462 150.255 260.483 149.662C285.553 149.128 290.513 124.359 290.513 124.359L282.883 122.35C282.883 122.35 276.009 141.54 259.09 141.334C243.343 141.143 234.128 121.301 234.128 121.301L225.377 123.443Z" fill="#565797"/>
    <g style="mix-blend-mode:multiply">
        <path d="M77.9488 189.446C81.683 180.13 81.9722 171.379 78.5947 169.902C75.2172 168.425 69.4521 174.78 65.7179 184.096C61.9837 193.413 61.6945 202.163 65.0719 203.641C68.4494 205.118 74.2146 198.763 77.9488 189.446Z" fill="#6A5DFD"/>
    </g>
    <g style="mix-blend-mode:multiply">
        <path d="M440.51 194.105C443.887 192.625 443.592 183.875 439.851 174.561C436.111 165.247 430.341 158.896 426.965 160.376C423.588 161.856 423.884 170.606 427.624 179.92C431.364 189.234 437.134 195.585 440.51 194.105Z" fill="#6A5DFD"/>
    </g>
    <path d="M201.222 186.764L198.918 204.533C193.757 199.528 193.837 191.136 193.837 191.136" stroke="#565797" stroke-width="1.93" stroke-linecap="round" stroke-linejoin="round"/>
    <path d="M331.767 190.822C331.767 190.822 327.473 204.572 323.293 208.067L323.429 195.195" stroke="#565797" stroke-width="1.93" stroke-linecap="round" stroke-linejoin="round"/>
    <path d="M444.353 179.122C450.394 178.575 456.381 177.507 462.253 175.931C466.784 174.62 471.137 172.714 475.208 170.259C480.871 166.637 478.962 164.015 478.962 164.015C478.962 164.015 477.193 163.26 478.732 161.328C480.463 159.157 477.92 158.255 477.92 158.255C478.213 156.846 478.586 155.456 479.037 154.093C479.736 152.133 477.413 153.196 477.413 153.196C477.413 153.196 474.748 153.089 474.988 150.746C475.227 148.402 475.602 138.491 473.275 137.06C470.948 135.629 459.982 135.55 458.007 135.481C454.774 135.364 452.658 139.094 457.148 140.383C462.436 141.913 467.569 142.966 467.569 142.966L465.294 147.834L455.881 153.657C455.881 153.657 452.259 155.838 449.969 154.035C448.97 153.25 448.224 151.701 448.144 148.888C452.006 144.02 453.883 141.261 452.583 138.942C450.884 135.918 447.778 137.295 442.875 144.045C437.972 150.795 435.02 151.647 433.96 158.044C433.594 160.27 432.36 171.857 444.353 179.122Z" fill="#EEB5AA"/>
    <path d="M441.627 165.215C441.627 165.215 449.191 162.804 448.538 153.196" stroke="#511918" stroke-width="1.93" stroke-linecap="round" stroke-linejoin="round"/>
    <path d="M436.616 160.529L425.866 174.715C425.866 174.715 428.944 186.592 434.819 191.704C438.77 188.327 446.643 177.95 446.643 177.95" fill="#EEB5AA"/>
    <path d="M70.9927 170.113L80.6491 180.254C80.6491 180.254 79.1804 191.038 72.3394 199.445C68.8438 195.95 57.4889 182.48 57.4889 182.48" fill="#EEB5AA"/>
    <path d="M427.606 290.289C408.415 294.465 387.066 305.847 359.974 314.705C332.882 323.562 256.485 390.476 256.485 390.476L300.079 403.882C300.079 403.882 392.879 378.276 426.475 352.732C432.542 348.125 455.134 333.807 455.134 321.19C455.134 309.95 446.796 286.118 427.606 290.289Z" fill="#EEB5AA"/>
    <path d="M100.079 290.289C119.265 294.465 140.619 305.847 167.711 314.705C194.803 323.562 271.2 390.476 271.2 390.476L227.605 403.872C227.605 403.872 134.805 378.276 101.21 352.732C95.143 348.125 72.5505 333.807 72.5505 321.19C72.5505 309.95 80.8884 286.118 100.079 290.289Z" fill="#EEB5AA"/>
    <path d="M377.804 308.308C377.804 308.308 399.805 300.088 416.035 294.857" stroke="#511918" stroke-width="1.93" stroke-linecap="round" stroke-linejoin="round"/>
    <path d="M142.641 305.46C142.641 305.46 133.491 301.495 105.081 293.946" stroke="#511918" stroke-width="1.93" stroke-linecap="round" stroke-linejoin="round"/>
    <path d="M290.883 361.658C290.883 361.658 312.227 394.966 318.346 398.485C310.651 402.515 253.656 412.058 228.581 423.195C222.777 425.42 211.174 432.092 202.672 433.195C196.511 433.994 173.079 430.43 164.408 413.862C150.228 386.78 204.187 406.019 214.247 394.02C229.52 375.766 247.444 387.515 259.906 380.785C272.368 374.055 290.883 361.658 290.883 361.658Z" fill="white"/>
    <path d="M273.87 365.805C273.87 365.805 279.303 400.5 298.24 408.995C317.178 417.49 315.779 406.652 315.779 406.652C315.779 406.652 284.558 365.967 285.173 358.296C285.788 350.625 273.87 365.805 273.87 365.805Z" fill="#FDCA5D"/>
    <path d="M273.41 351.693C273.41 351.693 291.39 397.672 306.55 403.873" stroke="white" stroke-width="9.66" stroke-linecap="round" stroke-linejoin="round"/>
    <path d="M238.749 362.87C238.749 362.87 213.435 394.819 207.199 398.099C214.74 402.422 306.381 441.984 306.381 441.984C306.381 441.984 338.512 449.866 352.265 444.999C358.144 442.92 371.127 432.837 369.48 423.754C364.004 393.417 351.519 392.256 328.983 390.055C305.874 387.8 280.654 391.221 268.455 384.006C256.255 376.791 238.749 362.87 238.749 362.87Z" fill="white"/>
    <path d="M247.899 359.272C247.899 359.272 230.566 392.28 210.69 403.878C189.52 416.23 232.847 412.481 232.847 412.481C232.847 412.481 251.146 389.55 257.138 372.335C258.902 367.208 247.899 359.272 247.899 359.272Z" fill="#FDCA5D"/>
    <path d="M257.137 355.899C257.137 355.899 241.184 399.829 207.199 419.25" stroke="white" stroke-width="9.66" stroke-linecap="round" stroke-linejoin="round"/>
    <path d="M261.862 380.055C261.862 380.055 274.967 387.628 279.692 390.055C297.138 399.039 315.643 399.039 315.643 399.039" stroke="#511918" stroke-width="1.93" stroke-linecap="round" stroke-linejoin="round"/>
    <path d="M207.2 398.098L252.581 413.862" stroke="#511918" stroke-width="1.93" stroke-linecap="round" stroke-linejoin="round"/>
    <path d="M477.85 130.241C480.276 129.31 483.166 136.285 483.166 136.285C483.166 136.285 484.658 144.731 484.302 147.069C483.945 149.407 477.592 159.216 477.592 159.216L468.55 154.549C468.55 154.549 477.212 146.795 477.855 145.564C478.497 144.334 478.028 142.172 477.855 138.702C475.396 133.236 476.072 130.923 477.85 130.241Z" fill="#EEB5AA"/>
    <path d="M490.692 141.584C493.165 142.618 492.719 147.574 491.847 149.917C490.974 152.26 489.275 157.015 487.929 158.422C486.582 159.828 474.387 163.073 474.387 163.073L469.54 155.588C469.54 155.588 483.79 153.275 484.367 152.285C484.944 151.294 488.205 140.55 490.692 141.584Z" fill="#EEB5AA"/>
    <path d="M482.143 151.456C484.621 152.491 484.175 157.446 483.302 159.789C482.43 162.132 480.731 166.887 479.384 168.294C478.038 169.701 465.838 172.946 465.838 172.946L460.996 165.485C460.996 165.485 476.048 163.206 476.625 162.216C477.203 161.226 479.671 150.422 482.143 151.456Z" fill="#EEB5AA"/>
    <path d="M469.864 164.843C469.864 164.843 476.048 162.544 476.616 161.564C477.184 160.583 479.661 149.8 482.134 150.809C484.607 151.819 484.166 157.436 483.293 159.799" stroke="#511918" stroke-width="1.93" stroke-linecap="round" stroke-linejoin="round"/>
    <path d="M468.55 153.196L475.105 148.397" stroke="#511918" stroke-width="1.93" stroke-linecap="round" stroke-linejoin="round"/>
    <path d="M472.496 157.304L478.793 154.74" stroke="#511918" stroke-width="1.93" stroke-linecap="round" stroke-linejoin="round"/>
    <path d="M64.6072 188.224C58.5958 189.04 52.5302 189.335 46.4723 189.106C41.7839 188.833 37.1473 187.942 32.6728 186.455C26.3995 184.18 27.7367 181.17 27.7367 181.17C27.7367 181.17 29.3133 180.038 27.413 178.499C25.2781 176.764 27.5772 175.313 27.5772 175.313C27.0015 174.002 26.3529 172.727 25.6347 171.494C24.5508 169.725 27.0423 170.259 27.0423 170.259C27.0423 170.259 29.6229 169.558 28.9191 167.318C28.2153 165.078 25.8177 155.5 27.7977 153.569C29.7778 151.637 40.4664 149.128 42.3854 148.618C45.5197 147.78 48.3538 150.951 44.2294 153.226C39.3778 155.907 34.5778 158.078 34.5778 158.078L37.7966 162.328L48.1849 165.911C48.1849 165.911 52.1731 167.235 54.0406 164.96C54.8523 163.98 55.2652 162.294 54.7679 159.524C49.996 155.632 47.5983 153.353 48.396 150.804C49.4376 147.466 52.755 148.123 58.9251 153.618C65.0952 159.113 68.1544 159.294 70.477 165.308C70.4629 165.338 77.9984 182.151 64.6072 188.224Z" fill="#EEB5AA"/>
    <path d="M64.4288 174.034C64.4288 174.034 56.5461 173.362 55.2183 163.833" stroke="#511918" stroke-width="1.93" stroke-linecap="round" stroke-linejoin="round"/>
    <path d="M21.8859 147.957C19.324 147.589 17.9305 155.049 17.9305 155.049C17.9305 155.049 18.1979 163.632 19.0284 165.833C19.8589 168.034 28.0513 176.196 28.0513 176.196L35.9294 169.617C35.9294 169.617 25.8789 163.975 25.0015 162.917C24.124 161.858 24.1381 159.642 23.5938 156.201C24.8935 150.334 23.7628 148.226 21.8859 147.957Z" fill="#EEB5AA"/>
    <path d="M11.6755 161.902C9.4655 163.465 10.9154 168.205 12.2526 170.323C13.5898 172.44 16.2174 176.695 17.8174 177.754C19.4174 178.813 32.0016 179.273 32.0016 179.273L35.2016 170.877C35.2016 170.877 20.811 171.798 20.0462 170.96C19.2814 170.122 13.8808 160.338 11.6755 161.902Z" fill="#EEB5AA"/>
    <path d="M22.0312 169.642C19.8259 171.205 21.2758 175.945 22.613 178.058C23.9503 180.171 26.5778 184.43 28.1778 185.489C29.7778 186.548 42.362 187.008 42.362 187.008L45.562 178.617C45.562 178.617 30.3925 179.749 29.6089 178.911C28.8253 178.073 24.2365 168.078 22.0312 169.642Z" fill="#EEB5AA"/>
    <path d="M36.769 179.975C36.769 179.975 30.261 179.127 29.4962 178.293C28.7314 177.46 24.1097 167.446 21.8997 169.019C19.6898 170.593 21.2757 175.945 22.6129 178.058" stroke="#511918" stroke-width="1.93" stroke-linecap="round" stroke-linejoin="round"/>
    <path d="M35.6712 168.304L28.2858 165.078" stroke="#511918" stroke-width="1.93" stroke-linecap="round" stroke-linejoin="round"/>
    <path d="M32.6542 173.195L25.9774 172.102" stroke="#511918" stroke-width="1.93" stroke-linecap="round" stroke-linejoin="round"/>
    <path d="M286.003 288.053C286.078 288.303 287.298 293.117 290.297 295.538C295.711 299.911 307.564 295.401 307.564 295.401" stroke="white" stroke-width="1.93" stroke-linecap="round" stroke-linejoin="round"/>
    <path d="M235.568 284.107C235.568 284.107 232.054 294.092 225.537 294.813C220.953 295.303 213.858 292.102 213.858 292.102" stroke="white" stroke-width="1.93" stroke-linecap="round" stroke-linejoin="round"/>
    <path d="M199.608 298.945L202.672 311.234" stroke="white" stroke-width="1.93" stroke-linecap="round" stroke-linejoin="round"/>
    <path d="M324.849 305.092L311.838 309.753" stroke="white" stroke-width="1.93" stroke-linecap="round" stroke-linejoin="round"/>
</svg>
