<svg width="350" height="350" viewBox="0 0 350 350" fill="none" xmlns="http://www.w3.org/2000/svg">
    <circle cx="175" cy="175" r="175" fill="url(#paint0_linear_105_395)"/>
    <circle cx="174.5" cy="175.5" r="147.5" fill="#0C093F"/>
    <g clip-path="url(#clip0_105_395)">
        <path d="M277.762 250.29L257.468 217.67C257.468 217.67 288.201 229.281 284.714 250.29H277.762Z" fill="#E5E5E5"/>
        <path d="M67.3969 250.506L66.6265 250.49C66.9244 241.221 67.8384 231.986 69.3613 222.859C72.6927 203.318 78.2324 190.484 85.8263 184.714L86.2687 185.396C68.5292 198.874 67.4059 249.991 67.3969 250.506Z" fill="#E5E5E5"/>
        <path d="M77.027 250.307L76.2566 250.29C76.2732 249.367 76.7547 227.609 84.6706 221.595L85.113 222.277C77.5164 228.048 77.0308 250.085 77.027 250.307Z" fill="#E5E5E5"/>
        <path d="M90.6516 185.472C92.7791 185.472 94.5037 183.605 94.5037 181.303C94.5037 179.001 92.7791 177.135 90.6516 177.135C88.5242 177.135 86.7996 179.001 86.7996 181.303C86.7996 183.605 88.5242 185.472 90.6516 185.472Z" fill="#6385C3"/>
        <path d="M88.7439 221.32C90.8714 221.32 92.596 219.453 92.596 217.151C92.596 214.849 90.8714 212.983 88.7439 212.983C86.6165 212.983 84.8918 214.849 84.8918 217.151C84.8918 219.453 86.6165 221.32 88.7439 221.32Z" fill="#6385C3"/>
        <path d="M75.2315 187.971C75.9554 192.974 74.0686 197.45 74.0686 197.45C74.0686 197.45 71.008 193.812 70.2841 188.809C69.5601 183.805 71.447 179.33 71.447 179.33C71.447 179.33 74.5076 182.967 75.2315 187.971Z" fill="#E5E5E5"/>
        <path d="M87.8229 200.123C83.3957 201.766 78.9944 200.535 78.9944 200.535C78.9944 200.535 81.7709 196.64 86.1981 194.997C90.6253 193.354 95.0266 194.585 95.0266 194.585C95.0266 194.585 92.2501 198.48 87.8229 200.123Z" fill="#E5E5E5"/>
        <path d="M87.9652 231.869C85.9615 232.55 83.8276 232.65 81.7771 232.158C83.0791 230.365 84.8326 229.017 86.8263 228.277C88.8201 227.537 90.9691 227.436 93.0144 227.987C91.6745 229.737 89.9333 231.076 87.9652 231.869V231.869Z" fill="#E5E5E5"/>
        <path d="M299.615 251.123H50.3852C50.283 251.123 50.1851 251.079 50.1128 251.001C50.0406 250.923 50 250.817 50 250.706C50 250.596 50.0406 250.49 50.1128 250.412C50.1851 250.333 50.283 250.29 50.3852 250.29H299.615C299.717 250.29 299.815 250.333 299.887 250.412C299.959 250.49 300 250.596 300 250.706C300 250.817 299.959 250.923 299.887 251.001C299.815 251.079 299.717 251.123 299.615 251.123Z" fill="#CBCBCB"/>
        <path d="M207.855 270.339L204.704 279.215L171.567 270.285L176.218 257.185L207.855 270.339Z" fill="#FFB7B7"/>
        <path d="M216.61 271.381L206.448 300L206.114 299.861C203.384 298.726 201.182 296.464 199.993 293.572C198.804 290.68 198.726 287.396 199.774 284.442L199.775 284.441L205.981 266.962L216.61 271.381Z" fill="#2F2E41"/>
        <path d="M157.502 159.207L143.061 160.67L142.345 207.165C142.536 209.443 143.545 211.55 145.154 213.034C146.763 214.518 148.846 215.261 150.955 215.104L160.111 214.421L157.502 159.207Z" fill="#E5E5E5"/>
        <path d="M208.412 156.919L198.531 156.781L197.946 212.027C200.129 212.105 202.304 211.697 204.335 210.826C206.366 209.954 208.21 208.64 209.75 206.964C211.291 205.288 212.496 203.286 213.29 201.084C214.084 198.882 214.45 196.526 214.366 194.164L208.412 156.919Z" fill="#E5E5E5"/>
        <path d="M151.079 231.653C150.845 233.255 150.505 234.837 150.062 236.387C149.564 237.904 148.794 239.307 148.338 240.84C146.885 245.726 148.9 251.174 152.117 254.945C154.907 258.202 158.509 260.517 162.487 261.608C165.39 262.398 168.408 262.512 171.399 262.622C179.682 262.926 188.178 263.198 196.027 260.317C198.507 259.385 200.902 258.207 203.182 256.8C203.902 256.429 204.536 255.888 205.039 255.218C205.637 254.296 205.714 253.1 205.709 251.973C205.691 248.173 204.979 244.393 205.148 240.597C205.242 238.495 205.605 236.395 205.426 234.299C205.179 231.919 204.257 229.68 202.788 227.888C201.319 226.096 199.374 224.84 197.22 224.29C194.993 223.772 192.684 224.054 190.417 224.29C184.533 224.902 178.624 225.188 172.713 225.147C166.674 225.105 160.672 224.108 154.662 224.003C152.885 223.973 152.921 224.565 152.355 226.427C151.834 228.14 151.408 229.885 151.079 231.653V231.653Z" fill="#2F2E41"/>
        <path d="M127.462 228.564C125.838 228.123 124.165 227.93 122.491 227.993C120.733 228.098 119.015 228.607 117.453 229.486C115.89 230.365 114.519 231.594 113.429 233.091C112.339 234.588 111.557 236.319 111.133 238.169C110.71 240.019 110.655 241.945 110.973 243.819C111.378 245.85 112.041 247.81 112.943 249.644C114.261 252.539 115.842 255.427 118.283 257.282C119.71 258.368 121.363 259.044 122.995 259.71L135.849 264.95C137.74 265.72 139.631 266.491 141.541 267.206C151.135 270.795 161.137 272.946 171.27 273.602C174.357 273.801 177.49 273.856 180.501 273.096C181.215 272.915 181.978 272.646 182.391 271.99C182.636 271.528 182.781 271.012 182.814 270.481L183.605 264.489C183.716 263.645 183.823 262.757 183.537 261.963C183.175 260.956 182.267 260.323 181.401 259.784C172.95 254.532 163.083 251.635 155.97 244.426C154.296 242.73 152.895 240.04 150.86 238.887C148.553 237.58 145.836 236.834 143.451 235.629C138.238 232.996 133.112 229.97 127.462 228.564Z" fill="#2F2E41"/>
        <path opacity="0.1" d="M140.295 236.642C144.838 238.183 164.02 248.856 167.308 252.582C166.867 252.754 151.915 243.686 151.466 243.54C147.387 242.216 143.286 240.883 139.413 238.944C138.634 238.554 134.351 236.722 134.545 235.658C134.764 234.457 139.488 236.369 140.295 236.642Z" fill="black"/>
        <path d="M167.714 143.58L155.482 153.63C155.482 153.63 142.574 154.067 143.01 162.996C143.446 171.925 148.612 214.199 148.612 214.199L149.733 228.745L170.994 235.3C182.481 238.842 194.618 239.123 206.235 236.117V236.117L203.709 221.525C203.709 221.525 213.939 155.251 207.776 152.333C201.613 149.416 197.761 150.249 197.761 150.249L190.035 142.955L167.714 143.58Z" fill="#E5E5E5"/>
        <path d="M203.924 127.346C203.924 140.393 192.775 138.42 179.022 138.42C165.269 138.42 154.12 140.393 154.12 127.346C154.12 114.298 159.566 91.1709 179.022 91.1709C199.148 91.1709 203.924 114.298 203.924 127.346Z" fill="#2F2E41"/>
        <path d="M191.966 131.767C198.51 124.686 198.51 113.205 191.966 106.124C185.423 99.0431 174.813 99.0431 168.269 106.124C161.725 113.205 161.725 124.686 168.269 131.767C174.813 138.849 185.423 138.849 191.966 131.767Z" fill="#FFB7B7"/>
        <path d="M159.578 118.487H166.205L169.129 109.627L169.714 118.487H172.882L174.587 113.319L174.928 118.487H198.466C198.466 113.396 196.597 108.513 193.271 104.914C189.944 101.314 185.432 99.2917 180.728 99.2917H177.316C172.612 99.2917 168.1 101.314 164.773 104.914C161.447 108.513 159.578 113.396 159.578 118.487V118.487Z" fill="#2F2E41"/>
        <path d="M195.835 145.664H162.322V189.432H195.835V145.664Z" fill="#6385C3"/>
        <path d="M164.168 269.923L167.32 278.798L200.457 269.868L195.806 256.769L164.168 269.923Z" fill="#FFB7B7"/>
        <path d="M166.043 266.545L172.249 284.024L172.249 284.025C173.298 286.98 173.219 290.264 172.03 293.155C170.842 296.047 168.64 298.309 165.91 299.444L165.575 299.583L155.414 270.964L166.043 266.545Z" fill="#2F2E41"/>
        <path d="M230.406 225.167C233.068 224.445 235.828 224.241 238.556 224.565C240.735 224.824 242.98 225.48 244.571 227.112C246.507 229.098 247.129 232.17 247.181 235.056C247.266 240.805 245.504 246.408 242.195 250.907C241.388 252.045 240.427 253.046 239.345 253.876C238.178 254.666 236.935 255.315 235.637 255.81L206.851 268.096C199.278 271.329 191.679 274.57 183.78 276.701C183.35 276.925 182.856 276.956 182.406 276.786C181.955 276.616 181.586 276.259 181.379 275.795C181.372 275.78 181.366 275.766 181.36 275.752C178.838 271.853 176.722 267.665 175.051 263.263C174.972 263.159 174.917 263.035 174.892 262.903C174.866 262.77 174.87 262.633 174.904 262.503C174.938 262.373 175 262.254 175.085 262.155C175.171 262.056 175.277 261.981 175.395 261.937L195.755 249.278C197.214 248.371 198.688 247.451 199.899 246.188C200.779 245.265 201.5 244.18 202.027 242.983C202.449 242.029 202.488 239.778 203.027 239.073C203.555 238.382 205.361 238.327 206.195 238.056C207.371 237.666 208.522 237.195 209.643 236.645C214.197 234.44 218.253 231.237 222.619 228.655C225.068 227.14 227.684 225.968 230.406 225.167V225.167Z" fill="#2F2E41"/>
        <path opacity="0.1" d="M218.864 234.621C215.366 237.464 210.836 240.077 207.37 242.995C206.186 243.991 186.462 255.99 186.183 257.584C189.417 258.174 210.021 242.577 212.969 241.02C215.917 239.464 218.53 237.269 221.119 235.091C221.779 234.536 224.576 232.867 222.681 232.246C221.614 231.897 219.652 234.052 218.864 234.621Z" fill="black"/>
        <path d="M281.736 124.911C288.384 124.911 293.773 119.08 293.773 111.886C293.773 104.693 288.384 98.8611 281.736 98.8611C275.088 98.8611 269.699 104.693 269.699 111.886C269.699 119.08 275.088 124.911 281.736 124.911Z" fill="#F1F1F1"/>
        <path d="M259.459 127.244C264.122 127.244 267.903 123.154 267.903 118.107C267.903 113.061 264.122 108.97 259.459 108.97C254.795 108.97 251.015 113.061 251.015 118.107C251.015 123.154 254.795 127.244 259.459 127.244Z" fill="#F1F1F1"/>
        <path d="M104.782 121.284C108.521 121.284 111.552 118.004 111.552 113.958C111.552 109.911 108.521 106.631 104.782 106.631C101.042 106.631 98.0112 109.911 98.0112 113.958C98.0112 118.004 101.042 121.284 104.782 121.284Z" fill="#F1F1F1"/>
        <path d="M115.929 126.211C118.552 126.211 120.678 123.91 120.678 121.071C120.678 118.233 118.552 115.932 115.929 115.932C113.306 115.932 111.179 118.233 111.179 121.071C111.179 123.91 113.306 126.211 115.929 126.211Z" fill="#F1F1F1"/>
        <path d="M181.608 61.2006C184.466 61.2006 186.783 58.6932 186.783 55.6003C186.783 52.5073 184.466 50 181.608 50C178.749 50 176.432 52.5073 176.432 55.6003C176.432 58.6932 178.749 61.2006 181.608 61.2006Z" fill="#F1F1F1"/>
        <path opacity="0.17" d="M150.765 173.592L151.228 169.728C151.228 169.728 168.485 171.091 165.788 175.676C163.092 180.262 156.543 180.678 156.543 180.678L150.765 173.592Z" fill="#2F2E41"/>
        <path d="M163.792 156.791C164.78 156.908 165.732 157.261 166.58 157.824C167.427 158.388 168.149 159.147 168.693 160.047V160.047C169.189 160.869 169.526 161.791 169.685 162.758C169.843 163.724 169.82 164.715 169.615 165.671C169.411 166.628 169.03 167.529 168.495 168.322C167.96 169.115 167.283 169.783 166.504 170.286C166.218 170.469 165.92 170.627 165.612 170.76L155.005 205.869C154.698 206.562 154.267 207.182 153.737 207.694C153.208 208.206 152.59 208.6 151.919 208.853C151.248 209.105 150.538 209.212 149.829 209.167C149.12 209.121 148.427 208.925 147.788 208.589C147.15 208.252 146.579 207.783 146.109 207.207C145.638 206.631 145.278 205.96 145.048 205.233C144.818 204.506 144.724 203.737 144.769 202.97C144.815 202.203 145 201.454 145.315 200.765L156.595 166.045C156.288 164.897 156.247 163.684 156.476 162.514C156.705 161.344 157.197 160.253 157.909 159.338C158.621 158.423 159.529 157.712 160.556 157.267C161.582 156.823 162.693 156.659 163.792 156.791Z" fill="#FFB7B7"/>
        <path d="M150.923 170.057C150.923 170.057 157.001 181.294 165.788 175.676L157.273 210.94H150.098L142.676 209.44L144.754 194.87L150.923 170.057Z" fill="#E5E5E5"/>
        <path d="M194.321 177.738L189.286 170.257C189.286 170.257 191.706 162.499 201.089 165.336C201.089 165.336 207.06 179.799 194.321 177.738Z" fill="#E5E5E5"/>
        <path opacity="0.17" d="M194.321 177.738L189.286 170.257C189.286 170.257 191.706 162.499 201.089 165.336C201.089 165.336 207.06 179.799 194.321 177.738Z" fill="#2F2E41"/>
        <path d="M195.654 151.604C197.107 152.334 198.269 153.605 198.929 155.184C199.588 156.764 199.702 158.547 199.25 160.21L210.53 194.929C210.845 195.618 211.03 196.368 211.076 197.135C211.122 197.901 211.027 198.671 210.797 199.398C210.567 200.125 210.207 200.796 209.737 201.372C209.266 201.947 208.695 202.417 208.057 202.753C207.418 203.09 206.725 203.286 206.016 203.332C205.307 203.377 204.597 203.27 203.926 203.017C203.255 202.765 202.637 202.371 202.108 201.859C201.578 201.347 201.147 200.727 200.84 200.034L190.233 164.925C189.925 164.792 189.627 164.633 189.341 164.45C188.562 163.948 187.885 163.28 187.35 162.487C186.815 161.694 186.434 160.792 186.23 159.836C186.025 158.88 186.002 157.888 186.16 156.922C186.319 155.956 186.656 155.034 187.152 154.212V154.212C187.696 153.311 188.418 152.552 189.265 151.989C190.113 151.426 191.065 151.073 192.053 150.955C193.286 150.804 194.533 151.028 195.654 151.604Z" fill="#FFB7B7"/>
        <path d="M189.286 170.258C189.286 170.258 197.593 175.712 201.089 165.336L212.795 198.689L209.317 205.272L208.814 205.317C206.739 205.504 204.653 205.144 202.735 204.266C200.817 203.388 199.125 202.02 197.803 200.279V200.279C195.108 196.727 193.273 192.505 192.464 187.993L189.286 170.258Z" fill="#E5E5E5"/>
    </g>
    <defs>
        <linearGradient id="paint0_linear_105_395" x1="350" y1="0" x2="-33.1717" y2="262.005" gradientUnits="userSpaceOnUse">
            <stop stop-color="#FFEACC"/>
            <stop offset="1" stop-color="#FFCDEC"/>
        </linearGradient>
        <clipPath id="clip0_105_395">
            <rect width="250" height="250" fill="white" transform="translate(50 50)"/>
        </clipPath>
    </defs>
</svg>
